<svg width="154" height="128" viewBox="0 0 154 128" fill="none" xmlns="http://www.w3.org/2000/svg">
<g clip-path="url(#clip0_17621_92952)">
<path d="M76.7109 0.825195C105.941 0.825221 129.891 24.7787 129.892 54.0127C129.892 83.2468 105.941 107.201 76.7109 107.201C47.4794 107.201 23.4512 83.2453 23.4512 54.0127C23.4514 24.7795 47.4012 0.825195 76.7109 0.825195ZM65.6299 84.6533C59.8403 82.3441 54.3476 81.3014 48.0791 83.2539L48.0615 83.2588L48.0449 83.2656C44.7904 84.4356 41.8894 85.6972 39.0518 86.5869L37.8164 86.9746L38.6895 87.9307C48.2617 98.41 62.3929 105.281 76.7109 105.281C91.0254 105.281 103.926 98.9899 113.57 89.1729L114.555 88.1709L113.2 87.7988C110.588 87.0822 107.867 85.9625 105.033 84.6689L105.022 84.6641L104.38 84.3906C97.738 81.6394 90.9542 81.3216 84.5391 84.6895L84.4971 84.7119L84.458 84.7383C81.2464 86.9323 78.159 87.8641 75.1123 87.7979C72.0547 87.7313 68.9619 86.6577 65.752 84.7139L65.6934 84.6787L65.6299 84.6533ZM64.5488 75.8516C59.1501 73.8325 53.9553 73.0408 48.0791 74.8711L48.0547 74.8789L48.0303 74.8877C42.8313 76.8691 38.2327 78.935 33.9268 79.8096L32.499 80.1006L33.4824 81.1758C34.3994 82.1783 35.1801 83.3441 35.9033 84.5459L36.2148 85.0635L36.8018 84.9229C40.5958 84.0172 44.514 82.2786 48.5781 80.7598C54.3287 78.971 59.3924 79.8821 64.9648 82.0977C68.3181 84.1173 71.6697 85.3067 75.0762 85.3809C78.5002 85.4554 81.9032 84.4015 85.3398 82.0654C91.4019 78.8968 97.86 79.262 104.351 82.1045C108.203 83.9049 112.11 85.3275 116.035 85.9082L116.611 85.9932L116.885 85.4805C117.581 84.1741 118.51 82.9147 119.546 81.7246L120.613 80.499L118.993 80.3613C114.321 79.9655 109.708 78.4567 105.038 76.2891L105.03 76.2852L105.022 76.2822L104.381 76.0078C97.7483 73.2565 90.9539 72.939 84.5391 76.3066L84.4971 76.3291L84.458 76.3564C81.2464 78.5504 78.159 79.4813 75.1123 79.415C72.0547 79.3485 68.9619 78.2749 65.752 76.3311L65.6943 76.2969L65.6318 76.2715L64.5488 75.8516ZM64.5488 67.4805C59.1501 65.4614 53.9553 64.6697 48.0791 66.5L48.0596 66.5059L48.041 66.5127C46.3637 67.1269 44.7474 67.7668 43.1865 68.3809C41.6219 68.9964 40.1126 69.5861 38.6289 70.1094C35.6601 71.1564 32.8365 71.9216 29.9795 72.0791L28.6533 72.1514L29.3066 73.3086C30.046 74.6168 30.8258 76.0302 31.2852 77.2588L32.0801 77.1143L32.1748 77.7744C37.4115 77.0246 42.8329 74.5304 48.583 72.375C54.3315 70.5883 59.3941 71.5 64.9648 73.7148C68.3152 75.733 71.666 76.9427 75.0732 77.0273C78.4982 77.1123 81.9026 76.0582 85.3398 73.6826C91.4 70.515 97.8562 70.8787 104.345 73.7188C109.722 76.3589 115.362 77.8568 121.17 78.1104L121.78 78.1367L121.983 77.5596C122.446 76.2478 123.207 74.9568 123.976 73.4316L124.578 72.2354H123.239C117.027 72.2354 110.89 70.7212 105.048 67.9219L105.022 67.9102C98.1872 64.9092 91.1609 64.4592 84.5391 67.9355L84.4971 67.958L84.458 67.9844C81.2464 70.1784 78.159 71.1102 75.1123 71.0439C72.0547 70.9774 68.9619 69.9038 65.752 67.96L65.6943 67.9248L65.6318 67.9004L64.5488 67.4805ZM64.5488 59.0859C59.1502 57.0669 53.9552 56.2752 48.0791 58.1055L48.0527 58.1143L48.0283 58.124C40.5575 60.9987 34.3099 63.7603 27.5156 63.6836L26.5273 63.6719L26.6924 64.6465C26.8258 65.4349 27.043 66.1897 27.2559 66.9102C27.4724 67.643 27.6843 68.3394 27.8398 69.0742L27.9785 69.7285H28.6465C31.9904 69.7285 35.2406 68.9228 38.5098 67.8115C41.727 66.7179 45.13 65.2624 48.5811 63.9932C54.3304 62.2057 59.3934 63.1169 64.9648 65.332C68.3152 67.3502 71.666 68.5599 75.0732 68.6445C78.4963 68.7295 81.8987 67.6765 85.334 65.3037C91.3924 62.1347 97.8525 62.5707 104.356 65.3418C110.812 68.4843 117.848 70.0485 124.804 69.8066L125.477 69.7832L125.589 69.1201C125.706 68.4307 125.878 67.7735 126.071 67.0732C126.262 66.3817 126.473 65.641 126.644 64.8369L126.862 63.8066L125.81 63.8418C118.542 64.0859 111.59 62.6447 105.046 59.5273L105.034 59.5215L105.022 59.5166L104.381 59.2422C97.7483 56.4909 90.9539 56.1734 84.5391 59.541L84.4941 59.5654L84.4521 59.5947C81.2429 61.8252 78.1583 62.7552 75.1143 62.6797C72.0578 62.6037 68.9646 61.5118 65.752 59.5664L65.6943 59.5312L65.6318 59.5059L64.5488 59.0859ZM64.5488 50.7031C59.1501 48.6841 53.9553 47.8933 48.0791 49.7236L48.0547 49.7305L48.0303 49.7402C40.0438 52.7842 33.5816 55.8569 26.4805 55.5391L25.6641 55.502L25.6201 56.3184C25.5769 57.1207 25.6459 57.8699 25.7061 58.5342C25.7679 59.2174 25.8191 59.8007 25.7793 60.373L25.7529 60.748L26.0186 61.0137L26.0303 61.0244L26.2451 61.2402L26.5488 61.2637C30.2726 61.5573 33.8405 60.8786 37.4414 59.7646C41.0135 58.6596 44.697 57.0971 48.5889 55.6074C54.3346 53.8233 59.3954 54.7354 64.9639 56.9492C68.3145 58.9676 71.6657 60.1771 75.0732 60.2617C78.4964 60.3467 81.8986 59.2937 85.334 56.9209C91.3924 53.7519 97.8525 54.1879 104.356 56.959C111.467 60.423 118.914 61.915 126.686 61.582L127.431 61.5498L127.474 60.8047C127.545 59.5554 127.804 57.9997 127.723 56.3232L127.683 55.4961L126.856 55.5391C119.114 55.9384 111.93 54.4208 105.045 51.1445L105.034 51.1387L105.022 51.1338L104.381 50.8604C97.7482 48.1089 90.954 47.7905 84.5391 51.1582L84.4941 51.1826L84.4521 51.2119C81.2428 53.4424 78.1583 54.3724 75.1143 54.2969C72.0578 54.2209 68.9646 53.129 65.752 51.1836L65.6943 51.1484L65.6318 51.123L64.5488 50.7031ZM76.7334 2.74512C49.2101 2.74516 26.6185 24.8243 25.6309 52.0283L25.6025 52.8203L26.3916 52.8809C33.9385 53.4633 40.8234 50.1979 48.6055 47.2236C54.3485 45.4419 59.4075 46.3527 64.9736 48.5654C68.3249 50.5845 71.6768 51.7943 75.085 51.8789C78.5109 51.9639 81.9162 50.9102 85.3545 48.5332C91.4103 45.3694 97.8675 45.8064 104.368 48.5762C111.48 52.041 118.93 53.5333 126.952 53.1201L127.759 53.0781L127.734 52.2705C126.907 24.9056 104.258 2.74512 76.7334 2.74512Z" fill="white" stroke="white" stroke-width="1.65002"/>
<path d="M83.9385 11.3633C87.0574 13.6265 89.1463 17.3336 89.1465 21.5547C89.1465 28.4926 83.5012 34.0723 76.5518 34.0723C72.1735 34.0722 68.3749 31.8246 66.1865 28.4873C68.3804 30.6493 71.3394 31.9717 74.6885 31.9717C81.572 31.9715 87.0576 26.4724 87.0576 19.6006C87.0576 16.4293 85.8911 13.5538 83.9385 11.3633ZM72.0078 14.373L71.877 14.9629L72.4004 15.2656L74.5215 16.4902L71.9707 16.8281L71.3867 16.9053L71.2705 17.4824L70.8037 19.7861L69.8252 17.6328L69.5762 17.085L68.9795 17.1543L66.623 17.4268L68.4893 15.7246L68.9297 15.3232L68.6865 14.7793L67.6748 12.5137L69.8086 13.7207L70.3223 14.0117L70.7627 13.6191L72.5195 12.0576L72.0078 14.373Z" fill="white" stroke="white" stroke-width="1.65002"/>
<path fill-rule="evenodd" clip-rule="evenodd" d="M143.978 66.6991L144.306 64.5865ZM143.82 62.8015L143.978 60.0336ZM142.103 58.0791L141.855 55.3113ZM137.946 54.4978L137.619 51.9785ZM135.744 57.4239L135.585 55.3113ZM133.304 62.632L132.739 60.4403ZM132.987 66.5409L132.253 64.5074ZM149.254 90.7852L151.038 89.0002ZM151.117 87.2943L152.665 84.8541ZM151.931 82.3347L153.072 79.9736ZM150.146 77.1266L151.117 74.6864ZM146.723 78.6744L147.864 76.5617ZM142.092 82.0071L143.391 79.1602ZM139.81 85.1817L140.296 82.7414ZM127.938 119.345L129.971 118.859ZM131.519 117.639L134.117 116.747ZM135.088 114.148L137.528 113.007ZM136.873 108.94L138.986 107.72ZM133.213 108.048L135.168 107.313ZM127.441 107.878L129.226 106.41ZM123.781 109.098L125.329 107.63Z" fill="white"/>
<path d="M143.978 66.6991L144.306 64.5865M143.82 62.8015L143.978 60.0336M142.103 58.0791L141.855 55.3113M137.946 54.4978L137.619 51.9785M135.744 57.4239L135.585 55.3113M133.304 62.632L132.739 60.4403M132.987 66.5409L132.253 64.5074M149.254 90.7852L151.038 89.0002M151.117 87.2943L152.665 84.8541M151.931 82.3347L153.072 79.9736M150.146 77.1266L151.117 74.6864M146.723 78.6744L147.864 76.5617M142.092 82.0071L143.391 79.1602M139.81 85.1817L140.296 82.7414M127.938 119.345L129.971 118.859M131.519 117.639L134.117 116.747M135.088 114.148L137.528 113.007M136.873 108.94L138.986 107.72M133.213 108.048L135.168 107.313M127.441 107.878L129.226 106.41M123.781 109.098L125.329 107.63" stroke="white" stroke-width="0.594008" stroke-miterlimit="2.41"/>
<path fill-rule="evenodd" clip-rule="evenodd" d="M21.4057 110.06C20.1066 109.088 18.7172 108.919 17.0116 109.325C17.2601 110.794 18.5591 112.093 20.5924 113.065M53.2828 120.058C45.0706 122.17 35.39 117.459 23.3486 112.579ZM39.5356 119.007C40.1908 116.002 38.8014 113.313 35.0625 111.031C34.4977 112.986 35.39 115.584 37.0166 118.103C34.091 118.759 31.6511 120.058 30.8378 121.843C35.0624 122.656 37.909 121.594 39.5356 118.996V119.007ZM34.9043 112.748C33.6843 110.794 32.1368 109.743 29.776 109.743C30.0245 111.777 30.9959 114.296 32.6225 116.251C30.0245 116.33 27.5845 117.798 26.1161 119.256C27.7427 120.555 29.5274 120.962 31.6511 120.476M30.1035 111.042C29.2112 109.574 27.9121 108.602 26.1161 108.275C25.4609 110.308 26.4437 112.669 27.9008 114.296C25.4609 114.703 23.3486 115.844 22.3658 117.629C23.8343 118.77 25.4609 118.928 27.1666 118.363M25.6981 109.337C24.3991 107.868 23.0097 107.71 20.9764 108.275C20.9764 109.743 21.9479 111.37 23.4163 112.59M22.9306 116.657C21.0555 116.815 19.7565 115.923 18.4574 114.296C19.7565 113.076 21.3831 112.59 23.4163 112.827M16.1757 59.4696C16.5823 57.9219 16.1757 56.6227 15.2042 55.0749C13.9052 55.9674 13.1709 57.7637 13.1709 59.9554M23.1791 97.9374C14.0746 92.1644 14.967 78.8221 14.7185 62.2262ZM15.0461 79.7937C18.1411 79.0594 19.9259 76.7886 20.5811 72.473C18.7059 72.6311 16.6727 74.5856 14.8879 77.0258C13.1822 74.5856 10.9795 72.8006 9.19477 72.7102C9.92901 76.9355 12.0413 79.1385 15.0461 79.7824V79.7937ZM19.0335 72.9588C20.3326 71.0043 20.6601 69.2984 19.8468 67.1067C18.0621 68.1686 16.1079 70.0327 14.967 72.1453C13.8261 69.8633 11.6347 68.1573 9.60143 67.423C8.94626 69.3775 9.44328 71.0834 10.6632 72.9588M18.7963 67.8297C19.7678 66.4514 20.1744 64.9828 19.7678 63.0283C17.6554 63.2768 15.8594 65.1409 14.8879 67.1745C13.5889 65.0618 11.7138 63.5141 9.6805 63.2656C9.27384 65.1409 9.6805 66.5983 10.8214 68.067M18.7059 63.1865C19.4402 61.3111 19.0335 60.0119 17.7345 58.306C16.3564 58.9612 15.2155 60.4186 14.7298 62.294M10.7423 63.3559C9.84994 61.8082 10.2566 60.1814 11.3071 58.5545C12.8547 59.0403 13.9955 60.4299 14.5603 62.3731M6.42727 81.0816C5.86247 79.4548 4.9588 78.4832 3.33219 77.7489C2.59795 79.1272 2.92553 81.0025 3.98735 82.957M17.0793 101.259L6.42727 84.1771ZM15.5318 99.1462C17.8136 97.0336 18.2202 94.1076 16.6727 90.0405C15.0461 91.2606 14.2328 93.859 13.9842 96.8754C11.2958 95.6553 8.53961 95.1695 6.82263 96.062C9.6692 99.3157 12.5948 100.208 15.5205 99.1575L15.5318 99.1462ZM15.6109 91.3397C15.769 88.9785 15.1251 87.2726 13.25 85.8039C12.1882 87.5889 11.5443 90.2777 11.6234 92.718C9.51106 91.3397 6.66448 90.8426 4.55215 91.2493C5.11694 93.2038 6.3369 94.5821 8.2911 95.5649M12.7643 87.1031C12.8434 85.3182 12.5158 83.7704 11.1377 82.3808C9.51106 83.6009 8.85589 86.1203 9.02533 88.4024C6.83392 87.1822 4.47307 86.7755 2.59795 87.5889C3.16275 89.4643 4.30364 90.515 6.00932 91.0911M10.3244 83.0361C10.0759 81.0816 9.02533 80.11 7.15021 79.2966C6.25783 80.5167 6.08839 82.3921 6.49505 84.2562M3.5694 87.1822C2.02186 86.2107 1.53613 84.6629 1.53613 82.6294C3.24182 82.3808 4.9475 83.0361 6.3369 84.4144M51.1479 113.697C42.1224 111.415 31.9561 101.089 24.8735 102.31ZM60.58 115.324C37.0731 106.456 28.7819 87.2613 14.0633 104.264C30.3295 101.982 44.0766 118.171 58.7952 116.623M45.6241 121.662C56.1971 123.775 62.7036 106.456 76.6879 114.341C66.194 113.449 56.5134 131.988 45.6241 121.662ZM131.835 110.026C133.134 109.054 134.523 108.885 136.229 109.291C135.98 110.76 134.681 112.059 132.648 113.031M99.9576 120.024C108.17 122.137 117.85 117.425 129.892 112.545ZM113.705 118.973C113.05 115.968 114.439 113.279 118.178 110.997C118.833 112.952 117.85 115.55 116.224 118.069C119.149 118.725 121.589 120.024 122.403 121.809C118.178 122.622 115.331 121.56 113.705 118.962V118.973ZM118.336 112.714C119.556 110.76 121.104 109.709 123.464 109.709C123.216 111.743 122.244 114.262 120.618 116.217C123.216 116.296 125.656 117.764 127.124 119.222C125.498 120.521 123.713 120.928 121.589 120.442M123.137 111.009C124.108 109.54 125.328 108.568 127.124 108.241C127.779 110.274 126.797 112.635 125.34 114.262C127.779 114.669 129.892 115.81 130.875 117.595C129.406 118.736 127.779 118.894 126.074 118.329M127.542 109.303C128.841 107.834 130.231 107.676 132.264 108.241C132.264 109.709 131.292 111.336 129.824 112.556M130.31 116.623C132.185 116.782 133.484 115.889 134.783 114.262C133.484 113.042 131.857 112.556 129.824 112.794M137.065 59.4357C136.658 57.888 137.065 56.5888 138.036 55.041C139.335 55.9335 140.069 57.7298 140.069 59.9215M130.061 97.9035C139.166 92.1305 138.273 78.7882 138.522 62.1923ZM138.194 79.7598C135.099 79.0255 133.314 76.7547 132.659 72.4391C134.534 72.5972 136.568 74.5517 138.352 76.9919C140.058 74.5517 142.261 72.7667 144.046 72.6763C143.311 76.9016 141.199 79.1046 138.194 79.7485V79.7598ZM134.207 72.9249C132.908 70.9704 132.58 69.2645 133.394 67.0728C135.178 68.1347 137.132 69.9988 138.273 72.1114C139.414 69.8294 141.606 68.1235 143.639 67.3891C144.294 69.3436 143.797 71.0495 142.577 72.9249M134.444 67.7958C133.473 66.4175 133.066 64.9489 133.473 62.9944C135.585 63.243 137.381 65.107 138.352 67.1406C139.651 65.028 141.527 63.4802 143.56 63.2317C143.966 65.107 143.56 66.5644 142.419 68.0331M134.534 63.1526C133.8 61.2772 134.207 59.978 135.506 58.2721C136.884 58.9273 138.025 60.3847 138.511 62.2601M142.498 63.322C143.39 61.7743 142.984 60.1475 141.933 58.5206C140.386 59.0064 139.245 60.396 138.68 62.3392M146.813 81.0477C147.378 79.4209 148.361 78.4493 149.908 77.715C150.642 79.0933 150.315 80.9686 149.253 82.9231M136.161 101.225L146.813 84.1432ZM137.709 99.1123C135.427 96.9997 135.02 94.0737 136.568 90.0066C138.194 91.2267 139.008 93.8251 139.256 96.8415C141.945 95.6214 144.701 95.1356 146.418 96.0281C143.571 99.2818 140.645 100.174 137.72 99.1236L137.709 99.1123ZM137.629 91.3058C137.471 88.9446 138.115 87.2387 139.99 85.7701C141.052 87.555 141.696 90.2438 141.617 92.6841C143.729 91.3058 146.576 90.8087 148.688 91.2154C148.123 93.1699 146.903 94.5482 144.949 95.531M140.476 87.0693C140.397 85.2843 140.725 83.7365 142.103 82.3469C143.729 83.5671 144.384 86.0864 144.215 88.3685C146.406 87.1483 148.767 86.7416 150.642 87.555C150.078 89.4304 148.937 90.4811 147.31 91.0573M142.916 83.0022C143.164 81.0477 144.215 80.0761 146.09 79.2627C146.983 80.4829 147.152 82.3582 146.745 84.2223M149.671 87.1483C151.218 86.1768 151.704 84.629 151.704 82.5955C149.999 82.3469 148.372 83.0022 146.903 84.3805M102.092 113.663C111.118 111.381 121.284 101.055 128.367 102.276ZM92.6604 115.29C116.167 106.422 124.458 87.2274 139.177 104.23C122.911 101.948 109.164 118.137 94.4451 116.589M84.1997 116.51C81.2741 117.075 78.9132 117.889 76.7218 118.702C74.8467 117.731 71.7629 116.996 69.0745 116.51M86.7187 117.889C84.1997 118.374 81.5904 119.109 79.399 119.922C82.6522 121.391 85.4197 123.334 87.9387 125.695L85.9845 127.243C83.217 124.554 80.3704 122.521 76.7105 121.063C73.2088 122.69 69.8765 124.724 67.2784 127.243L65.3242 125.695C67.6851 123.413 70.2041 121.47 73.2992 119.922C71.424 119.109 68.9841 118.374 66.5442 117.889M107.616 121.628C97.0432 123.741 90.5368 106.422 76.5524 114.307C87.0463 113.415 96.7269 131.954 107.616 121.628Z" fill="white"/>
<path d="M21.4057 110.06C20.1066 109.088 18.7172 108.919 17.0116 109.325C17.2601 110.794 18.5591 112.093 20.5924 113.065M53.2828 120.058C45.0706 122.17 35.39 117.459 23.3486 112.579M34.9043 112.748C33.6843 110.794 32.1368 109.743 29.776 109.743C30.0245 111.777 30.9959 114.296 32.6225 116.251C30.0245 116.33 27.5845 117.798 26.1161 119.256C27.7427 120.555 29.5274 120.962 31.6511 120.476M30.1035 111.042C29.2112 109.574 27.9121 108.602 26.1161 108.275C25.4609 110.308 26.4437 112.669 27.9008 114.296C25.4609 114.703 23.3486 115.844 22.3658 117.629C23.8343 118.77 25.4609 118.928 27.1666 118.363M25.6981 109.337C24.3991 107.868 23.0097 107.71 20.9764 108.275C20.9764 109.743 21.9479 111.37 23.4163 112.59M22.9306 116.657C21.0555 116.815 19.7565 115.923 18.4574 114.296C19.7565 113.076 21.3831 112.59 23.4163 112.827M16.1757 59.4696C16.5823 57.9219 16.1757 56.6227 15.2042 55.0749C13.9052 55.9674 13.1709 57.7637 13.1709 59.9554M23.1791 97.9374C14.0746 92.1644 14.967 78.8221 14.7185 62.2262M19.0335 72.9588C20.3326 71.0043 20.6601 69.2984 19.8468 67.1067C18.0621 68.1686 16.1079 70.0327 14.967 72.1453C13.8261 69.8633 11.6347 68.1573 9.60143 67.423C8.94626 69.3775 9.44328 71.0834 10.6632 72.9588M18.7963 67.8297C19.7678 66.4514 20.1744 64.9828 19.7678 63.0283C17.6554 63.2768 15.8594 65.1409 14.8879 67.1745C13.5889 65.0618 11.7138 63.5141 9.6805 63.2656C9.27384 65.1409 9.6805 66.5983 10.8214 68.067M18.7059 63.1865C19.4402 61.3111 19.0335 60.0119 17.7345 58.306C16.3564 58.9612 15.2155 60.4186 14.7298 62.294M10.7423 63.3559C9.84994 61.8082 10.2566 60.1814 11.3071 58.5545C12.8547 59.0403 13.9955 60.4299 14.5603 62.3731M6.42727 81.0816C5.86247 79.4548 4.9588 78.4832 3.33219 77.7489C2.59795 79.1272 2.92553 81.0025 3.98735 82.957M17.0793 101.259L6.42727 84.1771M15.6109 91.3397C15.769 88.9785 15.1251 87.2726 13.25 85.8039C12.1882 87.5889 11.5443 90.2777 11.6234 92.718C9.51106 91.3397 6.66448 90.8426 4.55215 91.2493C5.11694 93.2038 6.3369 94.5821 8.2911 95.5649M12.7643 87.1031C12.8434 85.3182 12.5158 83.7704 11.1377 82.3808C9.51106 83.6009 8.85589 86.1203 9.02533 88.4024C6.83392 87.1822 4.47307 86.7755 2.59795 87.5889C3.16275 89.4643 4.30364 90.515 6.00932 91.0911M10.3244 83.0361C10.0759 81.0816 9.02533 80.11 7.15021 79.2966C6.25783 80.5167 6.08839 82.3921 6.49505 84.2562M3.5694 87.1822C2.02186 86.2107 1.53613 84.6629 1.53613 82.6294C3.24182 82.3808 4.9475 83.0361 6.3369 84.4144M51.1479 113.697C42.1224 111.415 31.9561 101.089 24.8735 102.31M60.58 115.324C37.0731 106.456 28.7819 87.2613 14.0633 104.264C30.3295 101.982 44.0766 118.171 58.7952 116.623M131.835 110.026C133.134 109.054 134.523 108.885 136.229 109.291C135.98 110.76 134.681 112.059 132.648 113.031M99.9576 120.024C108.17 122.137 117.85 117.425 129.892 112.545M118.336 112.714C119.556 110.76 121.104 109.709 123.464 109.709C123.216 111.743 122.244 114.262 120.618 116.217C123.216 116.296 125.656 117.764 127.124 119.222C125.498 120.521 123.713 120.928 121.589 120.442M123.137 111.009C124.108 109.54 125.328 108.568 127.124 108.241C127.779 110.274 126.797 112.635 125.34 114.262C127.779 114.669 129.892 115.81 130.875 117.595C129.406 118.736 127.779 118.894 126.074 118.329M127.542 109.303C128.841 107.834 130.231 107.676 132.264 108.241C132.264 109.709 131.292 111.336 129.824 112.556M130.31 116.623C132.185 116.782 133.484 115.889 134.783 114.262C133.484 113.042 131.857 112.556 129.824 112.794M137.065 59.4357C136.658 57.888 137.065 56.5888 138.036 55.041C139.335 55.9335 140.069 57.7298 140.069 59.9215M130.061 97.9035C139.166 92.1305 138.273 78.7882 138.522 62.1923M134.207 72.9249C132.908 70.9704 132.58 69.2645 133.394 67.0728C135.178 68.1347 137.132 69.9988 138.273 72.1114C139.414 69.8294 141.606 68.1235 143.639 67.3891C144.294 69.3436 143.797 71.0495 142.577 72.9249M134.444 67.7958C133.473 66.4175 133.066 64.9489 133.473 62.9944C135.585 63.243 137.381 65.107 138.352 67.1406C139.651 65.028 141.527 63.4802 143.56 63.2317C143.966 65.107 143.56 66.5644 142.419 68.0331M134.534 63.1526C133.8 61.2772 134.207 59.978 135.506 58.2721C136.884 58.9273 138.025 60.3847 138.511 62.2601M142.498 63.322C143.39 61.7743 142.984 60.1475 141.933 58.5206C140.386 59.0064 139.245 60.396 138.68 62.3392M146.813 81.0477C147.378 79.4209 148.361 78.4493 149.908 77.715C150.642 79.0933 150.315 80.9686 149.253 82.9231M136.161 101.225L146.813 84.1432M137.629 91.3058C137.471 88.9446 138.115 87.2387 139.99 85.7701C141.052 87.555 141.696 90.2438 141.617 92.6841C143.729 91.3058 146.576 90.8087 148.688 91.2154C148.123 93.1699 146.903 94.5482 144.949 95.531M140.476 87.0693C140.397 85.2843 140.725 83.7365 142.103 82.3469C143.729 83.5671 144.384 86.0864 144.215 88.3685C146.406 87.1483 148.767 86.7416 150.642 87.555C150.078 89.4304 148.937 90.4811 147.31 91.0573M142.916 83.0022C143.164 81.0477 144.215 80.0761 146.09 79.2627C146.983 80.4829 147.152 82.3582 146.745 84.2223M149.671 87.1483C151.218 86.1768 151.704 84.629 151.704 82.5955C149.999 82.3469 148.372 83.0022 146.903 84.3805M102.092 113.663C111.118 111.381 121.284 101.055 128.367 102.276M92.6604 115.29C116.167 106.422 124.458 87.2274 139.177 104.23C122.911 101.948 109.164 118.137 94.4451 116.589M84.1997 116.51C81.2741 117.075 78.9132 117.889 76.7218 118.702C74.8467 117.731 71.7629 116.996 69.0745 116.51M86.7187 117.889C84.1997 118.374 81.5904 119.109 79.399 119.922C82.6522 121.391 85.4197 123.334 87.9387 125.695L85.9845 127.243C83.217 124.554 80.3704 122.521 76.7105 121.063C73.2088 122.69 69.8765 124.724 67.2784 127.243L65.3242 125.695C67.6851 123.413 70.2041 121.47 73.2992 119.922C71.424 119.109 68.9841 118.374 66.5442 117.889M39.5356 119.007C40.1908 116.002 38.8014 113.313 35.0625 111.031C34.4977 112.986 35.39 115.584 37.0166 118.103C34.091 118.759 31.6511 120.058 30.8378 121.843C35.0624 122.656 37.909 121.594 39.5356 118.996V119.007ZM15.0461 79.7937C18.1411 79.0594 19.9259 76.7886 20.5811 72.473C18.7059 72.6311 16.6727 74.5856 14.8879 77.0258C13.1822 74.5856 10.9795 72.8006 9.19477 72.7102C9.92901 76.9355 12.0413 79.1385 15.0461 79.7824V79.7937ZM15.5318 99.1462C17.8136 97.0336 18.2202 94.1076 16.6727 90.0405C15.0461 91.2606 14.2328 93.859 13.9842 96.8754C11.2958 95.6553 8.53961 95.1695 6.82263 96.062C9.6692 99.3157 12.5948 100.208 15.5205 99.1575L15.5318 99.1462ZM45.6241 121.662C56.1971 123.775 62.7036 106.456 76.6879 114.341C66.194 113.449 56.5134 131.988 45.6241 121.662ZM113.705 118.973C113.05 115.968 114.439 113.279 118.178 110.997C118.833 112.952 117.85 115.55 116.224 118.069C119.149 118.725 121.589 120.024 122.403 121.809C118.178 122.622 115.331 121.56 113.705 118.962V118.973ZM138.194 79.7598C135.099 79.0255 133.314 76.7547 132.659 72.4391C134.534 72.5972 136.568 74.5517 138.352 76.9919C140.058 74.5517 142.261 72.7667 144.046 72.6763C143.311 76.9016 141.199 79.1046 138.194 79.7485V79.7598ZM137.709 99.1123C135.427 96.9997 135.02 94.0737 136.568 90.0066C138.194 91.2267 139.008 93.8251 139.256 96.8415C141.945 95.6214 144.701 95.1356 146.418 96.0281C143.571 99.2818 140.645 100.174 137.72 99.1236L137.709 99.1123ZM107.616 121.628C97.0432 123.741 90.5368 106.422 76.5524 114.307C87.0463 113.415 96.7269 131.954 107.616 121.628Z" stroke="white" stroke-width="0.842105" stroke-miterlimit="2.41"/>
<path fill-rule="evenodd" clip-rule="evenodd" d="M9.29635 66.6991L8.96877 64.5865ZM9.45449 62.8015L9.29635 60.0336ZM11.1715 58.0791L11.42 55.3113ZM15.3284 54.4978L15.656 51.9785ZM17.5311 57.4239L17.6892 55.3113ZM19.971 62.632L20.5358 60.4403ZM20.2873 66.5409L21.0215 64.5074ZM4.02115 90.7852L2.23639 89.0002ZM2.15732 87.2943L0.609778 84.8541ZM1.34401 82.3347L0.203125 79.9736ZM3.12877 77.1266L2.15732 74.6864ZM6.55144 78.6744L5.41055 76.5617ZM11.1828 82.0071L9.88373 79.1602ZM13.4645 85.1817L12.9788 82.7414ZM25.3366 119.345L23.3033 118.859ZM21.7558 117.639L19.1577 116.747ZM18.1862 114.148L15.7463 113.007ZM16.4015 108.94L14.2891 107.72ZM20.0614 108.048L18.1072 107.313ZM25.8336 107.878L24.0488 106.41ZM29.4935 109.098L27.9459 107.63Z" fill="white"/>
<path d="M9.29635 66.6991L8.96877 64.5865M9.45449 62.8015L9.29635 60.0336M11.1715 58.0791L11.42 55.3113M15.3284 54.4978L15.656 51.9785M17.5311 57.4239L17.6892 55.3113M19.971 62.632L20.5358 60.4403M20.2873 66.5409L21.0215 64.5074M4.02115 90.7852L2.23639 89.0002M2.15732 87.2943L0.609778 84.8541M1.34401 82.3347L0.203125 79.9736M3.12877 77.1266L2.15732 74.6864M6.55144 78.6744L5.41055 76.5617M11.1828 82.0071L9.88373 79.1602M13.4645 85.1817L12.9788 82.7414M25.3366 119.345L23.3033 118.859M21.7558 117.639L19.1577 116.747M18.1862 114.148L15.7463 113.007M16.4015 108.94L14.2891 107.72M20.0614 108.048L18.1072 107.313M25.8336 107.878L24.0488 106.41M29.4935 109.098L27.9459 107.63" stroke="white" stroke-width="0.594008" stroke-miterlimit="2.41"/>
<mask id="path-9-inside-1_17621_92952" fill="white">
<path fill-rule="evenodd" clip-rule="evenodd" d="M96.3195 87.363L98.6013 86.3915C98.9289 86.0638 99.2564 85.9057 99.4146 85.8266C99.7422 85.6684 100.07 85.499 100.228 85.2617H100.307C100.307 85.5103 100.228 85.5893 100.149 85.6684C100.149 85.7475 99.9003 85.917 99.9003 85.9961C99.5727 86.4818 99.0079 86.8885 98.1946 87.2953C97.867 87.4534 97.4604 87.6229 97.0537 87.8601C96.4889 88.1087 95.9919 88.2668 95.7547 88.3459C95.348 88.6735 94.8623 88.9108 94.6138 89.1593C94.6138 89.2384 94.4557 89.4079 94.4557 89.566C94.3766 89.7242 94.3766 89.8146 94.3766 89.8937V91.1929C94.3766 91.6787 94.4557 92.0854 94.4557 92.4921C94.4557 92.7406 94.6138 92.8988 94.7042 93.057C94.8623 93.3055 94.9527 93.4637 95.1899 93.5427H95.348C95.5062 92.9779 95.7547 92.5712 95.8338 92.2435C96.1613 91.7577 96.3986 91.351 96.7261 91.1025H96.9747C97.0537 91.0234 97.2232 91.0234 97.2232 91.0234C97.4717 91.0234 97.7089 91.1025 97.8783 91.1025C98.2059 91.2607 98.5335 91.351 98.8498 91.4301L99.584 91.6787C99.6367 91.7314 99.6367 91.8142 99.584 91.9272C99.3355 92.0854 98.7707 92.6615 98.2059 93.3959C97.7202 94.0511 97.1441 94.4578 96.7374 94.6951C96.2517 95.1018 95.5966 95.3503 94.8623 95.3503C94.7042 95.1922 94.4557 95.1018 94.3766 94.8645C94.2185 94.7064 94.1281 94.4578 94.1281 94.2093C93.9699 94.616 93.8005 94.9436 93.6424 95.1809C93.4842 95.4181 93.3148 95.7457 93.0776 95.9943C92.9194 96.5592 92.8291 96.9659 92.75 97.2144C92.6709 97.542 92.5015 97.9487 92.2643 98.2764C92.0157 98.3554 91.7785 98.4345 91.53 98.5249C91.1234 98.6831 90.7958 98.7735 90.3101 98.8525H90.0616C89.9034 98.9316 89.734 98.9316 89.6549 98.9316C89.5758 98.8525 89.5758 98.7735 89.6549 98.6831C89.9034 98.5249 90.1406 98.3554 90.3891 98.1973C90.7167 98.0391 91.0443 97.9487 91.2024 97.7115C91.53 97.6324 91.6882 97.4629 91.9367 97.3839C92.2643 97.2257 92.4224 96.9772 92.5015 96.819V96.6608C92.5015 96.5027 92.5015 96.2541 92.4224 96.175C92.3433 96.175 92.2643 96.096 92.2643 96.096H91.7785C91.6995 96.096 91.53 96.096 91.3719 96.0169C91.2928 96.0169 91.2137 95.8587 91.2137 95.7683C91.1347 95.6893 91.1347 95.6102 91.1347 95.3616C91.1347 95.2035 91.2137 94.9549 91.2928 94.6273C91.3719 94.2997 91.5413 94.0624 91.5413 93.8139C91.6204 93.7348 91.6995 93.6557 91.6995 93.5653C91.6995 93.475 91.7785 93.4863 91.8576 93.4072H92.1061C92.3546 93.4072 92.4337 93.4072 92.5918 93.5653C92.6709 93.7235 92.8404 93.893 92.8404 94.0511C92.9194 94.2997 93.0889 94.4578 93.0889 94.7064H93.1679C93.247 94.7064 93.247 94.6273 93.3261 94.6273C93.4842 94.4691 93.6537 94.2997 93.6537 94.1415C93.8118 93.893 93.9022 93.5766 93.9022 93.3281V90.2326C94.0603 89.5773 94.2297 89.0915 94.467 88.7639C94.6251 88.4363 94.8736 88.199 95.1221 88.0296L96.3421 87.3743L96.3195 87.363ZM98.4318 92.2435L98.0252 92.0854L97.1328 91.8368H96.8843C96.7261 91.8368 96.6358 91.9159 96.5567 91.9159C96.4776 92.0741 96.3986 92.2435 96.2291 92.4808C96.1501 92.5599 95.9806 92.8084 95.9015 92.8875C95.9015 93.0457 95.8225 93.2942 95.7434 93.3733V93.5314C96.1501 93.5314 96.4776 93.5314 96.8843 93.3733C97.2119 93.2942 97.5395 93.0457 97.9461 92.8084C98.0252 92.7293 98.1043 92.5599 98.1946 92.5599C98.2737 92.4808 98.4431 92.3113 98.4431 92.2322L98.4318 92.2435ZM78.0201 94.5256L78.8334 93.3846H79.0819C79.3304 93.5427 79.4886 93.7122 79.5676 93.7913C79.8161 94.0398 80.0534 94.1189 80.2228 94.198H80.3019C80.46 93.8704 80.7876 93.6331 81.0361 93.3846H81.1152C81.3637 93.4637 81.5218 93.6331 81.68 93.7913C81.759 93.8704 82.0076 94.0398 82.3351 94.198V94.3562C82.2561 94.4352 82.177 94.5143 81.9285 94.6838C81.8494 94.9323 81.7703 95.0905 81.68 95.1696C81.5218 95.3277 81.4315 95.4181 81.3524 95.5763C81.1942 95.5763 81.1039 95.4181 80.9457 95.4181C80.9457 95.4181 80.8667 95.339 80.6972 95.26C80.6182 95.1809 80.4487 95.1018 80.2906 95.0114C80.2115 94.9323 80.1324 94.6838 80.0421 94.6047C79.963 94.8532 79.8839 94.9323 79.6354 95.0905C79.4773 95.2487 79.3078 95.4181 79.3078 95.5763H79.2288C79.1497 95.5763 79.0706 95.5763 78.9012 95.4181C78.8221 95.339 78.743 95.339 78.6527 95.339C78.4945 95.1809 78.4041 95.0905 78.3251 95.0114C78.0766 94.9323 77.9975 94.6838 77.9184 94.6047L77.9975 94.5256H78.0201ZM89.4064 92.0854H89.4855C89.5645 92.2435 89.734 92.5712 89.9712 92.8197C90.2084 93.0683 90.3778 93.3055 90.536 93.554V93.8817C90.4569 94.0398 90.3778 94.1302 90.3778 94.2093C90.2197 94.2884 90.1293 94.4578 90.0503 94.616C89.8921 94.6951 89.6436 94.8645 89.4855 94.8645C89.4064 94.8645 89.3273 94.7064 89.1579 94.7064C88.8303 94.6273 88.7512 94.5482 88.5931 94.5482C88.514 94.5482 88.4349 94.5482 88.3446 94.6273C88.017 94.7064 87.7798 95.034 87.4522 95.3616C87.294 95.6893 87.0455 95.9265 86.8874 96.175C86.6389 96.4236 86.4807 96.5027 86.3226 96.5817C86.2435 96.6608 85.9159 96.7399 85.7578 96.7399H85.5997C85.5206 96.6608 85.4415 96.6608 85.2721 96.6608C85.1026 96.6608 85.0236 96.5817 84.9445 96.5027C84.6169 97.1579 84.1312 97.6437 83.476 98.0504C82.9903 98.299 82.3351 98.4571 81.5218 98.7057C80.957 98.7848 80.3019 98.8638 79.8161 98.9542C79.161 99.0333 78.5962 99.0333 77.941 99.0333C77.3762 99.0333 76.8001 98.9542 76.2353 98.9542C75.7496 98.796 75.5011 98.7961 75.5011 98.7057C75.1735 98.5475 74.9363 98.378 74.8459 98.1408C74.8459 98.0617 74.7669 97.8132 74.7669 97.7341V96.514C74.8459 96.2654 74.925 95.9491 74.925 95.6215C75.0041 95.4633 75.1735 95.4633 75.1735 95.4633C75.2526 95.4633 75.3317 95.6215 75.3317 95.7119V96.1976C75.3317 96.2767 75.3317 96.5253 75.4107 96.6043C75.4107 96.6834 75.4898 96.8529 75.6592 96.8529C76.145 97.0111 76.7211 97.2596 77.2859 97.2596C77.8506 97.3387 78.664 97.3387 79.4773 97.3387C80.3696 97.3387 81.3524 97.3387 81.9172 97.1805C82.8886 97.0223 83.5438 96.7738 84.199 96.4462C84.3571 96.288 84.5265 96.1976 84.6847 96.0395C84.7638 95.8813 84.9332 95.7119 85.0123 95.4746C85.0913 95.3955 85.2608 95.3955 85.2608 95.3955C85.3399 95.4746 85.3399 95.7231 85.2608 95.8022C85.1026 95.9604 85.1026 96.0508 85.1026 96.0508H85.5884C86.0741 95.9717 86.4807 95.7231 86.9665 95.2374C87.1246 95.0792 87.4522 94.5821 88.0283 93.9382C88.1074 93.78 88.1864 93.6896 88.3559 93.6105C88.514 93.5314 88.6044 93.362 88.7625 93.2829C88.7625 92.9553 88.9207 92.7971 88.9207 92.6276C88.9997 92.5486 89.2482 92.2209 89.4064 92.1419V92.0854ZM64.6796 100.547L65.8205 99.5756H65.8996C65.9786 99.7337 66.1481 99.9032 66.3062 100.061C66.4644 100.31 66.7129 100.389 66.871 100.547C66.871 100.547 66.871 100.626 66.7919 100.705L65.8996 101.519C65.8996 101.598 65.8205 101.598 65.8205 101.598C65.6623 101.598 65.572 101.598 65.572 101.519C65.4929 101.519 65.4138 101.519 65.4138 101.44C65.2557 101.281 65.1653 101.191 65.0863 101.112C64.8377 100.863 64.7587 100.784 64.6796 100.626V100.547ZM71.9203 97.2935H72.0784C72.1575 97.3726 72.3269 97.542 72.4851 97.7002C72.6432 97.9487 72.8917 98.0278 73.0499 98.1069C72.9708 98.2651 72.8917 98.3554 72.8014 98.4345C72.6432 98.5136 72.5529 98.7622 72.4738 98.8412C72.3947 98.8412 72.3947 98.9203 72.3156 98.9994C72.2366 99.0785 72.0671 99.1576 71.909 99.0785C71.7508 99.0785 71.5814 98.9203 71.5023 98.8299C71.3442 98.6718 71.0957 98.4232 71.0166 98.2651L71.909 97.2935H71.9203ZM71.9203 96.2315C71.6718 96.5592 71.4346 96.7964 71.107 97.124C70.9488 97.124 70.7794 96.9659 70.6213 96.7964C70.3727 96.7173 70.2937 96.6382 70.2146 96.4688C70.1355 96.3897 70.0565 96.2202 70.0565 96.1411C70.2146 95.983 70.384 95.8135 70.5422 95.6554C70.7003 95.3277 70.8698 95.1696 70.9488 95.0905H71.0279C71.4346 95.4181 71.6831 95.6554 71.6831 95.6554C71.7621 95.7344 71.9316 95.8135 72.1688 95.983L72.903 95.1696H73.0612C73.2193 95.3277 73.3888 95.5763 73.4678 95.6554C73.7163 95.8135 73.8745 95.9039 74.0326 95.983V96.1411C74.0326 96.1411 74.0326 96.2202 73.9536 96.2202L73.1402 97.1127L73.0612 97.1918C72.9821 97.1918 72.903 97.1127 72.8127 97.1127C72.6545 97.1127 72.6545 96.9546 72.5642 96.9546C72.406 96.7964 72.3156 96.706 72.2366 96.6269C72.1575 96.5479 72.0784 96.4688 71.909 96.2202L71.9203 96.2315ZM64.4424 96.2315V91.6787C64.4424 91.4301 64.5215 91.272 64.6005 91.1138C64.7587 90.5489 64.849 90.2213 64.849 90.2213C64.9281 90.2213 64.9281 90.1422 65.0975 90.1422C65.0975 90.1422 65.1766 90.2213 65.1766 90.3004C65.0975 91.1138 64.9281 91.9272 64.9281 92.7406V95.0227C65.0863 95.4294 65.0863 95.8361 65.0863 96.1637C65.1653 96.4914 65.2444 96.7286 65.4929 96.8981C65.651 97.1466 65.9786 97.2257 66.2271 97.2257C66.4757 97.2257 66.7129 97.1466 66.9614 97.1466C67.1195 96.9885 67.4471 96.819 67.6165 96.7399C67.8651 96.4914 68.0232 96.4123 68.0232 96.2541C68.2717 96.175 68.3508 96.0056 68.4298 95.8474C67.6956 95.7683 66.9614 95.7683 66.2384 95.6893H66.0803C66.0012 95.6893 65.9222 95.6102 65.9222 95.6102C66.0803 95.1244 66.2497 94.7177 66.4869 94.3901C66.8145 94.2319 67.1421 93.9043 67.6278 93.5766C68.0345 93.4185 68.5202 93.0908 68.6897 93.0908C69.0172 93.0118 69.2544 92.9327 69.503 92.9327C69.7515 93.0908 69.9096 93.2603 70.0678 93.4185H70.2259C70.5535 93.4185 70.7907 93.2603 71.0392 92.9327C71.2877 92.7745 71.4459 92.6051 71.5249 92.526H71.6831C71.7621 92.526 71.7621 92.6051 71.6831 92.7745C71.5249 93.0231 71.2764 93.3394 71.0279 93.5879C70.7794 93.9156 70.5422 94.1528 70.2146 94.2432H70.0565C69.9774 94.2432 69.808 94.1641 69.5707 94.085C69.3222 93.8365 69.1641 93.7574 69.085 93.7574C68.6784 93.7574 68.2717 93.8365 67.8651 94.085C67.5375 94.2432 67.1308 94.4126 66.8936 94.7403C66.7355 94.8984 66.7355 94.9888 66.7355 94.9888C67.5488 95.0679 68.3621 95.147 69.2545 95.147C69.2545 95.2261 69.3335 95.2261 69.3335 95.3051V95.6328L67.786 97.8245C67.5375 98.2312 67.2212 98.4797 66.8936 98.717C66.6451 98.9655 66.2384 99.0446 65.9222 99.0446C65.6736 99.0446 65.5946 98.9655 65.4364 98.9655C65.1088 98.8073 64.7022 98.4006 64.6231 97.8245C64.544 97.7454 64.465 97.2596 64.465 96.2767L64.4424 96.2315ZM67.6956 90.4585L68.6671 89.3966H68.7461C69.0737 89.6451 69.3109 89.8824 69.4804 90.1309C69.4804 90.21 69.5594 90.21 69.7289 90.2891C69.8079 90.3682 69.8079 90.4472 69.8079 90.4472C69.4804 90.7749 69.1528 91.1025 68.7461 91.4188C68.7461 91.4188 68.6671 91.4188 68.588 91.3397C68.5089 91.3397 68.4298 91.2607 68.3395 91.2607C68.1813 91.1025 68.0119 91.0121 67.9328 90.933C67.8538 90.6845 67.6843 90.6054 67.6843 90.4472L67.6956 90.4585ZM55.3379 97.4517L55.496 97.3726C55.8236 97.124 56.3093 96.8077 56.716 96.5592H56.795C56.9532 96.8868 57.4502 97.3726 57.6083 97.7793V97.9374C57.4502 97.9374 57.2808 98.186 57.0436 98.2651C56.795 98.3442 56.6369 98.5136 56.3884 98.6718C56.2302 98.6718 56.0608 98.6718 56.0608 98.5136C55.9817 98.4345 55.8123 98.2651 55.8123 98.2651C55.7332 98.1069 55.5638 97.7793 55.4847 97.7002C55.4056 97.6211 55.3266 97.542 55.3266 97.4517H55.3379ZM63.7194 94.6047C63.3919 95.2599 62.9852 95.6667 62.4204 95.983C61.7652 96.3897 61.2005 96.5479 60.5453 96.5479C59.8901 96.4688 59.0768 96.4688 58.3539 96.2202C57.5406 96.1411 56.7273 95.9717 55.993 95.7344C55.2588 95.5763 54.4455 95.1696 53.8807 94.921C53.6322 94.6725 53.474 94.5934 53.2255 94.3562C53.1465 94.198 53.1465 94.0285 53.0674 93.8704C53.0674 93.7122 53.1465 93.5427 53.1465 93.4637C53.1465 93.3055 53.2255 93.2151 53.2255 93.057C53.3837 92.8084 53.474 92.5712 53.474 92.3226C53.7225 92.0741 53.8016 91.8368 53.9598 91.4301H54.2083C54.2083 91.4301 54.2873 91.4301 54.2873 91.5092C54.2083 91.6674 54.2083 91.7577 54.2083 91.7577L54.0501 92.0854C54.0501 92.2435 53.9711 92.4921 53.9711 92.5712C54.0501 92.7293 54.2196 92.8197 54.2196 92.8988C54.5472 93.2264 55.191 93.554 55.5186 93.7913C56.1738 94.0398 56.8967 94.2771 57.8004 94.5256C58.5346 94.8532 59.3479 95.0114 59.9918 95.0905C60.647 95.1696 61.3699 95.2487 62.0251 95.2487C62.2736 95.2487 62.5108 95.1696 62.8384 95.0905C62.9965 95.0114 63.3241 94.6047 63.5726 94.6047C63.6517 94.5256 63.7307 94.5256 63.7307 94.5256C63.7835 94.5256 63.7835 94.552 63.7307 94.6047H63.7194Z"/>
</mask>
<path fill-rule="evenodd" clip-rule="evenodd" d="M96.3195 87.363L98.6013 86.3915C98.9289 86.0638 99.2564 85.9057 99.4146 85.8266C99.7422 85.6684 100.07 85.499 100.228 85.2617H100.307C100.307 85.5103 100.228 85.5893 100.149 85.6684C100.149 85.7475 99.9003 85.917 99.9003 85.9961C99.5727 86.4818 99.0079 86.8885 98.1946 87.2953C97.867 87.4534 97.4604 87.6229 97.0537 87.8601C96.4889 88.1087 95.9919 88.2668 95.7547 88.3459C95.348 88.6735 94.8623 88.9108 94.6138 89.1593C94.6138 89.2384 94.4557 89.4079 94.4557 89.566C94.3766 89.7242 94.3766 89.8146 94.3766 89.8937V91.1929C94.3766 91.6787 94.4557 92.0854 94.4557 92.4921C94.4557 92.7406 94.6138 92.8988 94.7042 93.057C94.8623 93.3055 94.9527 93.4637 95.1899 93.5427H95.348C95.5062 92.9779 95.7547 92.5712 95.8338 92.2435C96.1613 91.7577 96.3986 91.351 96.7261 91.1025H96.9747C97.0537 91.0234 97.2232 91.0234 97.2232 91.0234C97.4717 91.0234 97.7089 91.1025 97.8783 91.1025C98.2059 91.2607 98.5335 91.351 98.8498 91.4301L99.584 91.6787C99.6367 91.7314 99.6367 91.8142 99.584 91.9272C99.3355 92.0854 98.7707 92.6615 98.2059 93.3959C97.7202 94.0511 97.1441 94.4578 96.7374 94.6951C96.2517 95.1018 95.5966 95.3503 94.8623 95.3503C94.7042 95.1922 94.4557 95.1018 94.3766 94.8645C94.2185 94.7064 94.1281 94.4578 94.1281 94.2093C93.9699 94.616 93.8005 94.9436 93.6424 95.1809C93.4842 95.4181 93.3148 95.7457 93.0776 95.9943C92.9194 96.5592 92.8291 96.9659 92.75 97.2144C92.6709 97.542 92.5015 97.9487 92.2643 98.2764C92.0157 98.3554 91.7785 98.4345 91.53 98.5249C91.1234 98.6831 90.7958 98.7735 90.3101 98.8525H90.0616C89.9034 98.9316 89.734 98.9316 89.6549 98.9316C89.5758 98.8525 89.5758 98.7735 89.6549 98.6831C89.9034 98.5249 90.1406 98.3554 90.3891 98.1973C90.7167 98.0391 91.0443 97.9487 91.2024 97.7115C91.53 97.6324 91.6882 97.4629 91.9367 97.3839C92.2643 97.2257 92.4224 96.9772 92.5015 96.819V96.6608C92.5015 96.5027 92.5015 96.2541 92.4224 96.175C92.3433 96.175 92.2643 96.096 92.2643 96.096H91.7785C91.6995 96.096 91.53 96.096 91.3719 96.0169C91.2928 96.0169 91.2137 95.8587 91.2137 95.7683C91.1347 95.6893 91.1347 95.6102 91.1347 95.3616C91.1347 95.2035 91.2137 94.9549 91.2928 94.6273C91.3719 94.2997 91.5413 94.0624 91.5413 93.8139C91.6204 93.7348 91.6995 93.6557 91.6995 93.5653C91.6995 93.475 91.7785 93.4863 91.8576 93.4072H92.1061C92.3546 93.4072 92.4337 93.4072 92.5918 93.5653C92.6709 93.7235 92.8404 93.893 92.8404 94.0511C92.9194 94.2997 93.0889 94.4578 93.0889 94.7064H93.1679C93.247 94.7064 93.247 94.6273 93.3261 94.6273C93.4842 94.4691 93.6537 94.2997 93.6537 94.1415C93.8118 93.893 93.9022 93.5766 93.9022 93.3281V90.2326C94.0603 89.5773 94.2297 89.0915 94.467 88.7639C94.6251 88.4363 94.8736 88.199 95.1221 88.0296L96.3421 87.3743L96.3195 87.363ZM98.4318 92.2435L98.0252 92.0854L97.1328 91.8368H96.8843C96.7261 91.8368 96.6358 91.9159 96.5567 91.9159C96.4776 92.0741 96.3986 92.2435 96.2291 92.4808C96.1501 92.5599 95.9806 92.8084 95.9015 92.8875C95.9015 93.0457 95.8225 93.2942 95.7434 93.3733V93.5314C96.1501 93.5314 96.4776 93.5314 96.8843 93.3733C97.2119 93.2942 97.5395 93.0457 97.9461 92.8084C98.0252 92.7293 98.1043 92.5599 98.1946 92.5599C98.2737 92.4808 98.4431 92.3113 98.4431 92.2322L98.4318 92.2435ZM78.0201 94.5256L78.8334 93.3846H79.0819C79.3304 93.5427 79.4886 93.7122 79.5676 93.7913C79.8161 94.0398 80.0534 94.1189 80.2228 94.198H80.3019C80.46 93.8704 80.7876 93.6331 81.0361 93.3846H81.1152C81.3637 93.4637 81.5218 93.6331 81.68 93.7913C81.759 93.8704 82.0076 94.0398 82.3351 94.198V94.3562C82.2561 94.4352 82.177 94.5143 81.9285 94.6838C81.8494 94.9323 81.7703 95.0905 81.68 95.1696C81.5218 95.3277 81.4315 95.4181 81.3524 95.5763C81.1942 95.5763 81.1039 95.4181 80.9457 95.4181C80.9457 95.4181 80.8667 95.339 80.6972 95.26C80.6182 95.1809 80.4487 95.1018 80.2906 95.0114C80.2115 94.9323 80.1324 94.6838 80.0421 94.6047C79.963 94.8532 79.8839 94.9323 79.6354 95.0905C79.4773 95.2487 79.3078 95.4181 79.3078 95.5763H79.2288C79.1497 95.5763 79.0706 95.5763 78.9012 95.4181C78.8221 95.339 78.743 95.339 78.6527 95.339C78.4945 95.1809 78.4041 95.0905 78.3251 95.0114C78.0766 94.9323 77.9975 94.6838 77.9184 94.6047L77.9975 94.5256H78.0201ZM89.4064 92.0854H89.4855C89.5645 92.2435 89.734 92.5712 89.9712 92.8197C90.2084 93.0683 90.3778 93.3055 90.536 93.554V93.8817C90.4569 94.0398 90.3778 94.1302 90.3778 94.2093C90.2197 94.2884 90.1293 94.4578 90.0503 94.616C89.8921 94.6951 89.6436 94.8645 89.4855 94.8645C89.4064 94.8645 89.3273 94.7064 89.1579 94.7064C88.8303 94.6273 88.7512 94.5482 88.5931 94.5482C88.514 94.5482 88.4349 94.5482 88.3446 94.6273C88.017 94.7064 87.7798 95.034 87.4522 95.3616C87.294 95.6893 87.0455 95.9265 86.8874 96.175C86.6389 96.4236 86.4807 96.5027 86.3226 96.5817C86.2435 96.6608 85.9159 96.7399 85.7578 96.7399H85.5997C85.5206 96.6608 85.4415 96.6608 85.2721 96.6608C85.1026 96.6608 85.0236 96.5817 84.9445 96.5027C84.6169 97.1579 84.1312 97.6437 83.476 98.0504C82.9903 98.299 82.3351 98.4571 81.5218 98.7057C80.957 98.7848 80.3019 98.8638 79.8161 98.9542C79.161 99.0333 78.5962 99.0333 77.941 99.0333C77.3762 99.0333 76.8001 98.9542 76.2353 98.9542C75.7496 98.796 75.5011 98.7961 75.5011 98.7057C75.1735 98.5475 74.9363 98.378 74.8459 98.1408C74.8459 98.0617 74.7669 97.8132 74.7669 97.7341V96.514C74.8459 96.2654 74.925 95.9491 74.925 95.6215C75.0041 95.4633 75.1735 95.4633 75.1735 95.4633C75.2526 95.4633 75.3317 95.6215 75.3317 95.7119V96.1976C75.3317 96.2767 75.3317 96.5253 75.4107 96.6043C75.4107 96.6834 75.4898 96.8529 75.6592 96.8529C76.145 97.0111 76.7211 97.2596 77.2859 97.2596C77.8506 97.3387 78.664 97.3387 79.4773 97.3387C80.3696 97.3387 81.3524 97.3387 81.9172 97.1805C82.8886 97.0223 83.5438 96.7738 84.199 96.4462C84.3571 96.288 84.5265 96.1976 84.6847 96.0395C84.7638 95.8813 84.9332 95.7119 85.0123 95.4746C85.0913 95.3955 85.2608 95.3955 85.2608 95.3955C85.3399 95.4746 85.3399 95.7231 85.2608 95.8022C85.1026 95.9604 85.1026 96.0508 85.1026 96.0508H85.5884C86.0741 95.9717 86.4807 95.7231 86.9665 95.2374C87.1246 95.0792 87.4522 94.5821 88.0283 93.9382C88.1074 93.78 88.1864 93.6896 88.3559 93.6105C88.514 93.5314 88.6044 93.362 88.7625 93.2829C88.7625 92.9553 88.9207 92.7971 88.9207 92.6276C88.9997 92.5486 89.2482 92.2209 89.4064 92.1419V92.0854ZM64.6796 100.547L65.8205 99.5756H65.8996C65.9786 99.7337 66.1481 99.9032 66.3062 100.061C66.4644 100.31 66.7129 100.389 66.871 100.547C66.871 100.547 66.871 100.626 66.7919 100.705L65.8996 101.519C65.8996 101.598 65.8205 101.598 65.8205 101.598C65.6623 101.598 65.572 101.598 65.572 101.519C65.4929 101.519 65.4138 101.519 65.4138 101.44C65.2557 101.281 65.1653 101.191 65.0863 101.112C64.8377 100.863 64.7587 100.784 64.6796 100.626V100.547ZM71.9203 97.2935H72.0784C72.1575 97.3726 72.3269 97.542 72.4851 97.7002C72.6432 97.9487 72.8917 98.0278 73.0499 98.1069C72.9708 98.2651 72.8917 98.3554 72.8014 98.4345C72.6432 98.5136 72.5529 98.7622 72.4738 98.8412C72.3947 98.8412 72.3947 98.9203 72.3156 98.9994C72.2366 99.0785 72.0671 99.1576 71.909 99.0785C71.7508 99.0785 71.5814 98.9203 71.5023 98.8299C71.3442 98.6718 71.0957 98.4232 71.0166 98.2651L71.909 97.2935H71.9203ZM71.9203 96.2315C71.6718 96.5592 71.4346 96.7964 71.107 97.124C70.9488 97.124 70.7794 96.9659 70.6213 96.7964C70.3727 96.7173 70.2937 96.6382 70.2146 96.4688C70.1355 96.3897 70.0565 96.2202 70.0565 96.1411C70.2146 95.983 70.384 95.8135 70.5422 95.6554C70.7003 95.3277 70.8698 95.1696 70.9488 95.0905H71.0279C71.4346 95.4181 71.6831 95.6554 71.6831 95.6554C71.7621 95.7344 71.9316 95.8135 72.1688 95.983L72.903 95.1696H73.0612C73.2193 95.3277 73.3888 95.5763 73.4678 95.6554C73.7163 95.8135 73.8745 95.9039 74.0326 95.983V96.1411C74.0326 96.1411 74.0326 96.2202 73.9536 96.2202L73.1402 97.1127L73.0612 97.1918C72.9821 97.1918 72.903 97.1127 72.8127 97.1127C72.6545 97.1127 72.6545 96.9546 72.5642 96.9546C72.406 96.7964 72.3156 96.706 72.2366 96.6269C72.1575 96.5479 72.0784 96.4688 71.909 96.2202L71.9203 96.2315ZM64.4424 96.2315V91.6787C64.4424 91.4301 64.5215 91.272 64.6005 91.1138C64.7587 90.5489 64.849 90.2213 64.849 90.2213C64.9281 90.2213 64.9281 90.1422 65.0975 90.1422C65.0975 90.1422 65.1766 90.2213 65.1766 90.3004C65.0975 91.1138 64.9281 91.9272 64.9281 92.7406V95.0227C65.0863 95.4294 65.0863 95.8361 65.0863 96.1637C65.1653 96.4914 65.2444 96.7286 65.4929 96.8981C65.651 97.1466 65.9786 97.2257 66.2271 97.2257C66.4757 97.2257 66.7129 97.1466 66.9614 97.1466C67.1195 96.9885 67.4471 96.819 67.6165 96.7399C67.8651 96.4914 68.0232 96.4123 68.0232 96.2541C68.2717 96.175 68.3508 96.0056 68.4298 95.8474C67.6956 95.7683 66.9614 95.7683 66.2384 95.6893H66.0803C66.0012 95.6893 65.9222 95.6102 65.9222 95.6102C66.0803 95.1244 66.2497 94.7177 66.4869 94.3901C66.8145 94.2319 67.1421 93.9043 67.6278 93.5766C68.0345 93.4185 68.5202 93.0908 68.6897 93.0908C69.0172 93.0118 69.2544 92.9327 69.503 92.9327C69.7515 93.0908 69.9096 93.2603 70.0678 93.4185H70.2259C70.5535 93.4185 70.7907 93.2603 71.0392 92.9327C71.2877 92.7745 71.4459 92.6051 71.5249 92.526H71.6831C71.7621 92.526 71.7621 92.6051 71.6831 92.7745C71.5249 93.0231 71.2764 93.3394 71.0279 93.5879C70.7794 93.9156 70.5422 94.1528 70.2146 94.2432H70.0565C69.9774 94.2432 69.808 94.1641 69.5707 94.085C69.3222 93.8365 69.1641 93.7574 69.085 93.7574C68.6784 93.7574 68.2717 93.8365 67.8651 94.085C67.5375 94.2432 67.1308 94.4126 66.8936 94.7403C66.7355 94.8984 66.7355 94.9888 66.7355 94.9888C67.5488 95.0679 68.3621 95.147 69.2545 95.147C69.2545 95.2261 69.3335 95.2261 69.3335 95.3051V95.6328L67.786 97.8245C67.5375 98.2312 67.2212 98.4797 66.8936 98.717C66.6451 98.9655 66.2384 99.0446 65.9222 99.0446C65.6736 99.0446 65.5946 98.9655 65.4364 98.9655C65.1088 98.8073 64.7022 98.4006 64.6231 97.8245C64.544 97.7454 64.465 97.2596 64.465 96.2767L64.4424 96.2315ZM67.6956 90.4585L68.6671 89.3966H68.7461C69.0737 89.6451 69.3109 89.8824 69.4804 90.1309C69.4804 90.21 69.5594 90.21 69.7289 90.2891C69.8079 90.3682 69.8079 90.4472 69.8079 90.4472C69.4804 90.7749 69.1528 91.1025 68.7461 91.4188C68.7461 91.4188 68.6671 91.4188 68.588 91.3397C68.5089 91.3397 68.4298 91.2607 68.3395 91.2607C68.1813 91.1025 68.0119 91.0121 67.9328 90.933C67.8538 90.6845 67.6843 90.6054 67.6843 90.4472L67.6956 90.4585ZM55.3379 97.4517L55.496 97.3726C55.8236 97.124 56.3093 96.8077 56.716 96.5592H56.795C56.9532 96.8868 57.4502 97.3726 57.6083 97.7793V97.9374C57.4502 97.9374 57.2808 98.186 57.0436 98.2651C56.795 98.3442 56.6369 98.5136 56.3884 98.6718C56.2302 98.6718 56.0608 98.6718 56.0608 98.5136C55.9817 98.4345 55.8123 98.2651 55.8123 98.2651C55.7332 98.1069 55.5638 97.7793 55.4847 97.7002C55.4056 97.6211 55.3266 97.542 55.3266 97.4517H55.3379ZM63.7194 94.6047C63.3919 95.2599 62.9852 95.6667 62.4204 95.983C61.7652 96.3897 61.2005 96.5479 60.5453 96.5479C59.8901 96.4688 59.0768 96.4688 58.3539 96.2202C57.5406 96.1411 56.7273 95.9717 55.993 95.7344C55.2588 95.5763 54.4455 95.1696 53.8807 94.921C53.6322 94.6725 53.474 94.5934 53.2255 94.3562C53.1465 94.198 53.1465 94.0285 53.0674 93.8704C53.0674 93.7122 53.1465 93.5427 53.1465 93.4637C53.1465 93.3055 53.2255 93.2151 53.2255 93.057C53.3837 92.8084 53.474 92.5712 53.474 92.3226C53.7225 92.0741 53.8016 91.8368 53.9598 91.4301H54.2083C54.2083 91.4301 54.2873 91.4301 54.2873 91.5092C54.2083 91.6674 54.2083 91.7577 54.2083 91.7577L54.0501 92.0854C54.0501 92.2435 53.9711 92.4921 53.9711 92.5712C54.0501 92.7293 54.2196 92.8197 54.2196 92.8988C54.5472 93.2264 55.191 93.554 55.5186 93.7913C56.1738 94.0398 56.8967 94.2771 57.8004 94.5256C58.5346 94.8532 59.3479 95.0114 59.9918 95.0905C60.647 95.1696 61.3699 95.2487 62.0251 95.2487C62.2736 95.2487 62.5108 95.1696 62.8384 95.0905C62.9965 95.0114 63.3241 94.6047 63.5726 94.6047C63.6517 94.5256 63.7307 94.5256 63.7307 94.5256C63.7835 94.5256 63.7835 94.552 63.7307 94.6047H63.7194Z" fill="white" stroke="white" stroke-width="3.30004" mask="url(#path-9-inside-1_17621_92952)"/>
</g>
<defs>
<clipPath id="clip0_17621_92952">
<rect width="153.263" height="128" fill="white"/>
</clipPath>
</defs>
</svg>
