<svg width="99" height="91" viewBox="0 0 99 91" fill="none" xmlns="http://www.w3.org/2000/svg">
<rect width="98.1377" height="90.6963" fill="white"/>
<g clip-path="url(#clip0_18726_232780)">
<path d="M22.7109 47.8831C23.0781 47.2272 23.2249 47.0769 24.0023 47.0827C24.5929 47.0871 25.199 47.0853 25.7902 47.0847L27.3897 47.0838C27.8429 47.0839 28.4281 47.0286 28.8237 47.26C29.3533 47.5696 29.4207 48.3581 29.1045 48.8423C28.7411 49.3986 27.9397 49.3003 27.3553 49.3008L25.7819 49.3013H24.5465C24.0829 49.3021 23.5099 49.3615 23.1183 49.0748C22.8813 48.9013 22.8503 48.6994 22.7109 48.4881V47.8831Z" fill="#343434"/>
<path d="M75.4309 48.4435C75.1995 48.9588 74.9851 49.2693 74.3647 49.2914C73.6122 49.3184 72.8518 49.3035 72.0978 49.3022L70.7407 49.3009C70.3857 49.3022 70.0196 49.3336 69.6724 49.2623C69.5027 49.2276 69.3349 49.1444 69.2046 49.0404C68.6357 48.585 68.7536 47.5109 69.4098 47.1928C69.5158 47.1413 69.8157 47.0988 69.9336 47.0953C70.6132 47.0749 71.2939 47.0903 71.9737 47.0852C72.7403 47.0918 73.508 47.0735 74.2743 47.0942C74.9668 47.1128 75.173 47.3373 75.4309 47.9322V48.4435Z" fill="#343434"/>
<path d="M48.7614 21.8252H49.3542C49.6073 21.9601 49.8058 22.0292 49.9847 22.2803C50.2346 22.6313 50.1685 23.1986 50.1687 23.6178L50.169 25.1587L50.1695 26.6654C50.1692 26.9478 50.1852 27.3098 50.1383 27.5816C50.0222 28.5708 48.4221 28.6719 48.0919 27.8786C47.8901 27.3938 47.9678 26.0022 47.968 25.4726L47.9689 23.91C47.9691 23.4859 47.9392 22.8971 48.0417 22.4938C48.1354 22.1251 48.4671 21.9846 48.7614 21.8252Z" fill="#343434"/>
</g>
<path d="M31.0334 29.1933C31.1789 29.1831 31.2974 29.1865 31.4381 29.2282C31.5893 29.2728 31.7301 29.3472 31.8521 29.4471C31.956 29.5333 32.0546 29.633 32.151 29.728C33.0927 30.667 34.0331 31.6051 34.9676 32.5513C35.5158 33.1064 35.43 33.748 34.8767 34.2645C34.7289 34.4024 34.5972 34.4917 34.4079 34.5689C34.138 34.5896 33.8386 34.5734 33.5986 34.4351C33.4098 34.3263 30.6336 31.3424 30.3613 31.0051C30.2426 30.858 30.1448 30.7236 30.1007 30.5369C30.0325 30.2601 30.0802 29.9674 30.2328 29.7266C30.4331 29.4048 30.6791 29.2687 31.0334 29.1933Z" fill="#343434"/>
<path d="M66.5483 29.4298C66.7998 29.3999 67.0251 29.4167 67.2537 29.5399C67.5211 29.684 67.7335 29.9345 67.8105 30.2302C67.873 30.4714 67.8532 30.7933 67.7165 31.0076C67.5343 31.2928 64.7353 34.1159 64.4323 34.3358C64.267 34.4559 64.0637 34.5178 63.867 34.5644C63.2718 34.6114 62.7776 34.4816 62.6131 33.8359C62.5549 33.6079 62.5899 33.2605 62.7215 33.0641C62.9488 32.7254 63.2723 32.4317 63.5614 32.1432L64.57 31.134L65.5145 30.1901C65.8391 29.8663 66.0847 29.5391 66.5483 29.4298Z" fill="#343434"/>
<path d="M45.3467 74.547C45.1021 74.4574 44.8095 74.3813 44.5786 74.2814C43.8163 73.9514 43.2443 73.3356 42.8939 72.5919C42.4287 71.6047 42.481 70.6733 42.4814 69.6199L42.483 67.3299C42.4836 65.9676 42.5444 64.9541 42.0443 63.6389C41.5709 62.3938 40.7254 61.2351 39.7206 60.3619C39.0008 59.7366 38.4355 59.2928 37.7679 58.5731C33.8739 54.393 32.6655 48.3768 34.6434 43.0174C36.083 39.1273 39.008 35.9679 42.7758 34.2332C46.4684 32.5118 50.701 32.3603 54.5072 33.8134C58.3045 35.2309 61.3763 38.1099 63.0362 41.8076C64.7519 45.5407 64.9056 49.8045 63.4633 53.6514C62.684 55.7363 61.433 57.6126 59.8081 59.1338C59.2994 59.6025 58.7812 59.9846 58.2847 60.4302C57.5912 61.0611 57.0135 61.8087 56.5779 62.6389C55.6298 64.4354 55.6618 65.6319 55.662 67.542L55.6628 70.0766C55.6636 70.7009 55.7068 71.5179 55.5369 72.1041C55.2687 73.0303 54.5657 73.8394 53.6902 74.2466C53.4912 74.339 52.9629 74.4786 52.8484 74.547H45.3467ZM44.6682 65.7408C46.2004 65.7563 47.7326 65.7599 49.2648 65.7521L53.4693 65.7496C53.5318 65.1683 53.5795 64.7276 53.7146 64.1579C54.223 62.1065 55.3088 60.2435 56.8433 58.7904C57.2225 58.4372 57.6133 58.1339 57.9886 57.7949C58.6819 57.1773 59.3056 56.4859 59.849 55.7332C63.2419 50.9245 63.0231 44.4459 59.3131 39.8771C57.1759 37.1891 54.0506 35.4699 50.6361 35.1044C50.1122 35.0477 49.4527 35.0101 48.9286 35.0189C45.4413 35.0835 42.1248 36.5401 39.7178 39.0642C37.5731 41.2795 36.115 44.3291 35.9245 47.3975C35.6973 51.0589 37.0936 54.9553 39.7501 57.5004C40.3625 58.0871 41.0502 58.5633 41.6623 59.1484C43.5224 60.9615 44.5807 63.1442 44.6682 65.7408ZM44.6703 67.9706C44.6866 68.6276 44.6634 69.2917 44.6714 69.9479C44.6789 70.5593 44.61 71.6098 45.0786 72.0732C45.2103 72.2037 45.3791 72.2899 45.5619 72.3203C45.7834 72.3556 46.2526 72.344 46.4884 72.3435L47.9242 72.3432L50.7468 72.3435C51.1419 72.3432 52.5799 72.3893 52.8677 72.2408C53.6338 71.8013 53.4381 71.1174 53.4631 70.3611C53.4891 69.5741 53.4343 68.7622 53.4659 67.9765C51.8558 67.9626 50.2453 67.9588 48.6351 67.965C47.505 67.965 46.2849 67.9433 45.1636 67.9704C44.9919 67.9753 44.8421 67.9812 44.6703 67.9706Z" fill="#066235"/>
<path d="M48.952 38.3107C50.7483 38.2182 52.8034 38.8489 54.3201 39.7914C56.5298 41.1688 58.1024 43.3667 58.693 45.9026C58.8456 46.5625 59.1507 48.2359 58.7766 48.8141C58.5897 49.1029 58.3202 49.2247 57.9953 49.2926C57.7003 49.3076 57.4414 49.2502 57.1906 49.089C56.6678 48.7541 56.7685 48.0199 56.719 47.4769C56.3973 43.9359 53.4678 40.9486 49.9349 40.5549C49.4491 40.5007 48.8347 40.5871 48.4129 40.312C47.901 39.9623 47.8351 39.1761 48.197 38.6978C48.4045 38.4235 48.6328 38.3577 48.952 38.3107Z" fill="#343434"/>
<path d="M42.4297 65.7939H55.7104V78.8528C55.7104 79.8644 54.8903 80.6844 53.8788 80.6844H44.2612C43.2497 80.6844 42.4297 79.8644 42.4297 78.8528V65.7939Z" fill="#066235"/>
<path d="M45 68H53V77C53 77.5523 52.5523 78 52 78H46C45.4477 78 45 77.5523 45 77V68Z" fill="white"/>
<path d="M53.5127 10.0303C53.7763 10.1451 54.2409 10.243 54.582 10.3809C55.7651 10.8679 56.7079 11.8025 57.2051 12.9814C57.4958 13.6891 57.5846 14.4799 57.6738 15.2354C57.8768 16.948 58.1281 18.6612 58.3242 20.374L62.8291 22.248C64.1282 21.1716 65.5044 20.1642 66.8271 19.1143C67.3941 18.6639 67.9835 18.1862 68.6436 17.8848C69.4148 17.5303 70.2655 17.3843 71.1104 17.4619C73.0508 17.6362 73.8935 18.6489 75.1777 19.9326L77.2607 22.0156C78.0219 22.7775 78.8745 23.5965 79.5918 24.3867C80.4312 25.3114 80.7899 26.7073 80.6621 27.9541C80.6056 28.5412 80.4381 29.1122 80.168 29.6367C79.8254 30.3107 79.1945 31.0619 78.7188 31.6729L76.7021 34.2637C76.4968 34.5277 76.0431 35.0839 75.8809 35.3564C76.3547 36.2621 76.7751 37.1949 77.1406 38.1494C77.331 38.6414 77.5227 39.2189 77.7295 39.6973C77.8024 39.863 79.2322 39.9836 79.4639 40.0137L82.4238 40.3916C83.0472 40.4695 83.7918 40.5455 84.3945 40.6855C85.767 41.0047 86.9009 41.9183 87.5811 43.1436C87.8427 43.6143 87.9707 44.2504 88.1377 44.7773V53.3701C88.0183 53.7436 87.9093 54.2032 87.7686 54.5557C87.3351 55.6395 86.5007 56.5194 85.4688 57.0547C84.3833 57.6174 82.9207 57.6962 81.6982 57.8477L79.2617 58.1592C78.7966 58.2164 78.1869 58.2744 77.7363 58.3877C77.4895 58.958 77.2936 59.5879 77.0605 60.1758C76.7008 61.0693 76.3064 61.9485 75.8799 62.8115L78.3379 65.9609C78.9533 66.7526 79.9324 67.9028 80.3066 68.7822C80.6422 69.5722 80.7613 70.4367 80.6523 71.2881C80.4349 73.0851 79.4812 73.8971 78.2764 75.1035L76.3145 77.0654C75.6877 77.6918 75.0298 78.3264 74.416 78.9619C73.1761 80.2464 71.8361 80.891 70.0117 80.6445C69.4667 80.5766 68.9377 80.4094 68.4521 80.1523C67.8258 79.8238 67.0789 79.2036 66.501 78.7539L63.9521 76.7686C63.7146 76.5837 63.0206 76.0237 62.7979 75.8975C62.591 75.9897 62.3831 76.0865 62.1748 76.1836V72.5176C62.8415 72.2189 63.3989 72.2458 64.043 72.7246C64.5481 73.1004 65.0486 73.4952 65.5488 73.8848L68.2871 76.0186C68.5159 76.1966 68.8507 76.4386 69.0605 76.6221C70.8602 78.1959 71.545 77.2275 72.8418 75.9238L74.7422 74.0146L76.1797 72.5889C76.5123 72.2597 76.9703 71.8536 77.21 71.4512C77.8727 70.3359 76.8492 69.363 76.1934 68.5225L73.7559 65.3955C72.1553 63.3406 71.8148 63.2755 73.1807 60.8936C73.3691 60.5651 73.6798 59.8403 73.832 59.4697C74.0461 58.9398 74.2475 58.4043 74.4375 57.8652C74.7877 56.8405 74.9584 55.4207 76.2373 55.248C76.876 55.1614 77.5129 55.077 78.1523 54.9961L81.7607 54.5352C82.218 54.4757 83.3748 54.3632 83.7412 54.2412C84.0799 54.1275 84.3743 53.9092 84.5811 53.6182C84.9854 53.0429 84.8786 51.8254 84.8789 51.1191L84.8799 48.248L84.8789 46.3389C84.8793 45.526 84.9464 44.5136 84.126 44.0742C83.4987 43.7382 82.25 43.6693 81.5225 43.5762L77.7529 43.0996C74.9462 42.7527 75.3222 42.8174 74.4375 40.2588C74.2624 39.7658 74.0758 39.2767 73.8789 38.792C73.6637 38.2701 73.4319 37.7594 73.1885 37.251C72.9283 36.7077 72.523 36.1002 72.3594 35.5312C72.0774 34.5531 73.2915 33.341 73.8643 32.6055L76.127 29.7012C76.4073 29.3409 77.0916 28.5109 77.2695 28.1416C77.4263 27.8096 77.4673 27.4346 77.3877 27.0762C77.266 26.5093 76.2824 25.6511 75.8613 25.2314L72.418 21.7881C72.2845 21.6547 72.1383 21.5152 72.0078 21.3799C70.6775 19.997 69.6381 21.0736 68.4863 21.9727L65.417 24.3643C64.8958 24.77 63.631 25.9087 62.958 25.8506C62.3766 25.8004 61.3964 25.2039 60.8252 24.9268C60.3503 24.6979 59.87 24.4801 59.3848 24.2734C58.8415 24.0466 58.2897 23.8405 57.7305 23.6562C56.7656 23.3439 55.4541 23.1579 55.2568 21.9629C55.1504 21.3204 55.0777 20.6717 54.9961 20.0254L54.5342 16.3369C54.409 15.3426 54.4273 13.4594 53.0195 13.3193C51.9037 13.2084 50.7149 13.3149 49.5918 13.2764C48.2974 13.3108 46.673 13.2085 45.4268 13.2959C43.8584 13.3904 43.8227 14.5309 43.6758 15.7715C43.6473 16.0123 43.6134 16.2609 43.583 16.502L43.0811 20.4971C42.7357 23.2314 42.6679 22.8933 40.127 23.748C39.6473 23.9132 39.1729 24.0931 38.7041 24.2871C38.1855 24.5102 37.6714 24.7446 37.1631 24.9902C36.2736 25.4276 35.3348 26.219 34.373 25.5986C33.7566 25.2008 33.198 24.7365 32.6191 24.2861L29.3672 21.7578C28.6052 21.167 27.9381 20.4469 26.8516 20.8252C26.7129 20.8736 26.4163 21.0889 26.3076 21.1963C24.5952 22.8888 22.9012 24.5983 21.2002 26.3027C20.705 26.7989 20.5436 27.5951 20.9072 28.2207C21.2552 28.7906 21.7254 29.3436 22.1396 29.875L24.5615 32.9775C26.2651 35.1552 26.1183 34.945 24.8838 37.3779C24.6545 37.8252 24.4478 38.2839 24.2646 38.752C23.9281 39.6153 23.5971 40.4897 23.3359 41.3809C23.1329 42.0736 22.825 42.673 22.0498 42.8594C21.3535 43.0267 20.5888 43.0924 19.873 43.1816L15.9619 43.6699C15.4287 43.7355 14.6342 43.7943 14.1621 43.9902C13.5644 44.2385 13.2489 44.9234 13.2588 45.5361C13.2635 45.8248 13.2294 46.1517 13.2451 46.4443C13.2486 48.5267 13.2361 50.609 13.2539 52.6914C13.26 53.4072 13.7518 54.0905 14.4619 54.2568C15.1249 54.4029 15.8388 54.4681 16.5205 54.5527L20.3877 55.0371C23.1801 55.3938 22.8094 55.3313 23.6865 57.8555C23.873 58.3838 24.0728 58.9068 24.2861 59.4248C24.5281 60.0005 24.7849 60.5553 25.0566 61.1123C25.3133 61.638 25.7863 62.3295 25.8105 62.8994C25.8467 63.7574 24.8293 64.8024 24.3184 65.457L21.8906 68.5723C21.546 69.0148 21.0712 69.5556 20.835 70.0488C20.539 70.6664 20.7217 71.3373 21.1865 71.8096C22.8974 73.547 24.6178 75.2647 26.3545 76.9785C26.8452 77.4627 27.6328 77.5443 28.2471 77.207C28.7395 76.895 29.2338 76.4666 29.6963 76.1084L33.0381 73.5068C33.4596 73.1791 34.0205 72.7004 34.4824 72.4639C34.9679 72.2152 35.4727 72.3211 35.9619 72.5312V76.1963C35.7516 76.0984 35.5417 75.9997 35.333 75.8984C34.9731 76.1266 34.3164 76.6666 33.9688 76.9375L31.3857 78.9492C30.8446 79.3708 30.3343 79.7827 29.7285 80.1279C28.1528 81.026 25.8177 80.8446 24.4375 79.6445C23.6081 78.9231 22.7585 78.0119 21.9697 77.2236L19.8496 75.1035C19.2802 74.5335 18.5792 73.8887 18.1436 73.2188C17.3584 71.9822 17.2292 70.191 17.8076 68.8457C18.2481 67.821 19.1732 66.7715 19.873 65.8711L22.2578 62.8008C21.7442 61.886 21.3401 60.8329 20.9443 59.8613C20.745 59.3719 20.605 58.8564 20.4062 58.3662C18.97 58.1289 17.5032 57.9933 16.0615 57.793C15.114 57.6613 13.9951 57.6042 13.1113 57.2646C11.9062 56.7938 10.9115 55.8608 10.4053 54.667C10.2443 54.2874 10.166 53.8001 10 53.4561V44.6494C10.0716 44.5403 10.2069 44.0665 10.2529 43.917C10.4143 43.3932 10.6403 42.9291 10.9717 42.4893C11.5142 41.7629 12.2515 41.2052 13.0977 40.8799C13.8678 40.5787 15.2377 40.4611 16.1074 40.3496C17.534 40.1771 18.9591 39.9929 20.3828 39.7979C20.6224 39.2307 20.8353 38.5495 21.0723 37.958C21.4428 37.033 21.8163 36.2253 22.251 35.333L19.5928 31.9111C19.1756 31.3742 18.4843 30.533 18.1455 29.9736C17.9014 29.5749 17.7165 29.1426 17.5977 28.6904C17.2885 27.5215 17.4673 26.0746 18.0869 25.0283C18.4226 24.4615 18.8598 24.0155 19.3223 23.5537C20.1941 22.6832 21.0653 21.811 21.9365 20.9395L23.4131 19.4639C24.3235 18.5554 24.9084 17.9147 26.2178 17.5967C28.6104 17.0158 29.91 18.0383 31.6758 19.415L34.1309 21.3311C34.4957 21.6156 34.9582 22.0136 35.3486 22.2363C36.1937 21.8586 36.9373 21.4666 37.8232 21.1201C38.2258 20.9627 39.53 20.5297 39.7861 20.3721C40.0435 18.9425 40.1599 17.3631 40.374 15.9141C40.5166 14.9494 40.5501 13.918 40.9219 13.0088C41.3865 11.8738 42.2979 10.8922 43.4346 10.4141C43.8311 10.2473 44.267 10.1684 44.6523 10H53.4453L53.5127 10.0303Z" fill="#066235"/>
<defs>
<clipPath id="clip0_18726_232780">
<rect width="52.7204" height="52.7204" fill="white" transform="translate(22.7109 21.8252)"/>
</clipPath>
</defs>
</svg>
