<svg width="379" height="373" viewBox="0 0 379 373" fill="none" xmlns="http://www.w3.org/2000/svg">
<g clip-path="url(#clip0_7297_68823)">
<path d="M379 163.515H274.561C274.561 163.515 284.915 135.109 300.851 135.109C316.787 135.109 321.779 154.72 321.779 154.72C321.779 154.72 332.529 144.071 341.36 144.071C350.191 144.071 357.869 158.149 357.869 158.149C357.869 158.149 370.354 150.577 378.991 163.525L379 163.515Z" fill="#EBEBEB"/>
<path d="M53.3177 93.0228H4.51245C4.51245 93.0228 15.4196 77.156 24.0106 77.156C32.6016 77.156 35.1392 87.7401 35.1392 87.7401C35.1392 87.7401 41.2018 82.8002 46.8214 83.6807C52.4411 84.5611 53.3177 93.0228 53.3177 93.0228Z" fill="#EBEBEB"/>
<path d="M294.659 15.8668H245.854C245.854 15.8668 256.761 0 265.352 0C273.943 0 276.48 10.5841 276.48 10.5841C276.48 10.5841 282.543 5.64421 288.163 6.52467C293.782 7.40513 294.659 15.8668 294.659 15.8668Z" fill="#EBEBEB"/>
<path d="M142.079 62.4849H47.0151C47.0151 62.4849 60.0354 33.2906 73.96 31.4649C87.8846 29.6391 94.547 53.152 94.547 53.152C94.547 53.152 103.526 44.8386 110.594 44.8386C117.662 44.8386 123.107 55.7841 123.107 55.7841C123.107 55.7841 137.234 48.2863 142.079 62.4756V62.4849Z" fill="#EBEBEB"/>
<path d="M127.13 224.434H32.0664C32.0664 224.434 45.0867 195.24 59.0113 193.414C72.9359 191.588 79.5983 215.101 79.5983 215.101C79.5983 215.101 88.5768 206.788 95.6452 206.788C102.714 206.788 108.158 217.733 108.158 217.733C108.158 217.733 122.286 210.235 127.13 224.425V224.434Z" fill="#EBEBEB"/>
<path d="M6.10864 290.126L52.524 289.894L98.93 289.82L191.751 289.662L284.582 289.81L330.988 289.894L377.404 290.126L330.988 290.348L284.582 290.431L191.751 290.589L98.93 290.431L52.524 290.348L6.10864 290.126Z" fill="#263238"/>
<path d="M352.655 264.073C349.545 260.042 346.011 255.602 346.223 250.255C346.426 245.315 348.078 239.837 352.59 237.214C353.882 236.464 354.823 236.204 355.229 237.873C355.857 240.412 354.787 243.498 354.242 245.954C353.541 249.152 353.033 252.321 352.932 255.602C352.858 257.882 353.024 260.171 353.015 262.461C353.015 262.748 353.015 263.035 353.006 263.322C353.006 263.424 353.006 263.545 353.006 263.647C353.033 263.684 353.061 263.73 353.089 263.767C353.144 263.851 353.153 263.934 353.126 263.999C353.116 264.027 353.098 264.055 353.079 264.082C352.978 264.194 352.784 264.231 352.664 264.082L352.655 264.073Z" fill="#FF6E4F"/>
<path d="M353.079 264.082C350.542 260.403 347.561 256.603 347.94 251.923C348.115 249.754 348.761 247.595 349.601 245.602C349.979 244.694 351.105 241.96 352.286 241.904C354.427 241.793 351.566 250.431 351.428 251.441C350.902 255.241 351.658 258.957 353.024 262.461C353.024 262.748 353.024 263.035 353.015 263.322C351.954 260.885 351.225 258.29 351.003 255.63C350.69 251.941 351.926 248.874 352.59 245.324C352.738 244.555 353.329 242.127 352.018 242.33C351.151 242.46 350.034 245.111 349.804 245.685C349.01 247.576 348.401 249.634 348.207 251.682C347.764 256.399 350.653 260.236 353.126 264.008C353.116 264.036 353.098 264.064 353.079 264.092V264.082Z" fill="white"/>
<path d="M351.778 268.17C351.594 268.244 351.418 268.327 351.234 268.411C351.234 268.411 351.225 268.411 351.215 268.411C351.169 268.429 351.114 268.429 351.077 268.401C350.985 268.346 350.948 268.207 351.003 268.123C351.022 268.086 351.058 268.068 351.105 268.049C351.132 268.049 351.151 268.031 351.188 268.021C351.243 268.003 351.298 267.984 351.363 267.966C351.363 267.966 351.363 267.957 351.363 267.947C351.372 267.938 351.391 267.919 351.4 267.901C353.596 265.204 356.226 262.868 358.394 260.125C360.471 257.512 362.362 254.75 364.632 252.303C366.063 250.755 373.629 243.526 375.244 247.993C375.955 249.977 374.395 252.822 373.417 254.472C372.116 256.687 370.354 258.596 368.36 260.199C363.433 264.166 357.426 265.649 351.769 268.16L351.778 268.17Z" fill="#FF6E4F"/>
<path d="M363.091 261.803C365.039 260.468 366.866 258.93 368.36 257.085C368.886 256.455 371.396 253.415 370.566 252.414C370.031 251.765 368.619 252.618 368.139 252.878C366.1 253.99 364.632 255.982 363.073 257.66C359.908 261.089 356.457 264.212 352.83 267.132C352.572 267.271 352.304 267.41 352.046 267.549C351.824 267.66 351.612 267.781 351.4 267.901C351.326 267.947 351.252 267.975 351.179 268.022C351.123 268.049 351.068 268.086 351.003 268.114C350.948 268.198 350.994 268.337 351.077 268.392C351.243 268.3 351.418 268.216 351.585 268.123C351.465 268.225 351.345 268.309 351.215 268.411C351.215 268.411 351.225 268.411 351.234 268.411C351.391 268.337 351.529 268.272 351.677 268.207C351.714 268.188 351.741 268.179 351.778 268.161C351.991 268.012 352.194 267.845 352.397 267.697C356.014 265.806 359.723 264.101 363.091 261.793V261.803ZM353.716 266.678C355.848 264.982 357.878 263.184 359.843 261.293C361.421 259.773 362.925 258.179 364.393 256.557C365.223 255.639 366.054 254.703 367.022 253.934C367.761 253.35 370.677 251.413 369.975 254.147C369.459 256.131 366.93 258.346 365.454 259.597C363.82 260.996 362.03 262.183 360.166 263.258C358.062 264.481 355.875 265.565 353.707 266.678H353.716Z" fill="white"/>
<path d="M342.08 278.559C342.015 278.494 341.96 278.429 341.951 278.42C339.432 274.5 335.473 269.727 335.713 264.778C335.888 261.126 337.891 256.214 341.499 254.722C345.577 253.044 344.784 260.774 344.664 262.748C344.378 267.78 342.449 278.402 342.329 278.494C342.311 278.522 342.311 278.559 342.292 278.587C342.292 278.587 342.292 278.596 342.292 278.605C342.255 278.68 342.163 278.624 342.089 278.559H342.08Z" fill="#FF6E4F"/>
<path d="M342.283 278.605C342.264 278.29 342.237 277.975 342.228 277.66C342.006 274.046 341.932 270.422 342.043 266.807C342.071 265.899 342.79 258.92 340.982 259.245C339.893 259.448 339.238 262.053 338.998 262.905C338.573 264.435 338.407 266.038 338.5 267.623C338.739 271.274 340.594 274.574 341.886 277.966C341.96 278.124 342.015 278.281 342.071 278.448C342.071 278.485 342.071 278.513 342.071 278.55C342.154 278.624 342.237 278.68 342.274 278.605H342.283ZM339.072 269.578C338.749 267.994 338.712 266.344 338.933 264.731C339.081 263.665 339.727 259.801 341.083 259.727C341.803 259.689 341.729 260.134 341.868 260.95C341.932 261.321 341.96 261.71 341.978 262.081C342.015 263.017 341.951 263.943 341.905 264.87C341.822 266.511 341.775 268.133 341.766 269.773C341.748 272.451 341.84 275.121 342.025 277.799C341.093 275.028 339.653 272.433 339.072 269.569V269.578Z" fill="white"/>
<path d="M354.777 279.857C349.785 282.007 344.193 282.544 338.869 281.516C338.832 281.516 338.804 281.497 338.776 281.479C338.693 281.423 338.675 281.321 338.712 281.238C338.739 281.154 338.822 281.08 338.942 281.099C339.053 281.117 339.164 281.136 339.275 281.154C344.839 278.086 350.422 275.102 355.931 271.914C357.232 271.163 365.601 266.557 366.053 269.838C366.33 271.868 363.248 274.24 361.919 275.39C359.788 277.234 357.361 278.745 354.777 279.866V279.857Z" fill="#FF6E4F"/>
<path d="M360.655 273.536C360.987 273.1 361.273 272.554 360.627 272.294C359.391 271.784 355.515 274.036 354.399 274.602C349.813 276.947 345.143 278.837 340.391 280.756C339.994 280.913 339.588 281.08 339.182 281.247C339.025 281.247 338.868 281.247 338.712 281.238C338.684 281.33 338.712 281.432 338.776 281.479C338.813 281.469 338.859 281.451 338.905 281.432C339.108 281.432 339.33 281.442 339.542 281.432C342.91 281.46 346.315 280.923 349.48 279.922C351.52 279.273 353.467 278.42 355.331 277.364C357.038 276.4 359.437 275.111 360.646 273.508L360.655 273.536ZM339.81 281.238C339.708 281.238 339.607 281.238 339.505 281.238C339.681 281.182 339.847 281.126 340.013 281.062C343.768 279.792 347.496 278.337 351.058 276.585C352.867 275.695 354.62 274.694 356.456 273.87C357.232 273.517 359.409 272.461 360.12 272.794C360.821 273.11 360.074 273.666 359.686 274.036C359.4 274.305 358.837 274.713 358.542 274.926C353.015 279.05 346.546 281.108 339.8 281.219L339.81 281.238Z" fill="white"/>
<path d="M328.294 290.126L327.749 289.366C328.404 288.874 329.06 288.383 329.706 287.883C332.317 285.862 334.91 283.823 337.466 281.729C338.924 280.533 340.364 279.338 341.748 278.096C341.794 278.049 341.84 278.012 341.895 277.975C342.006 277.864 342.117 277.771 342.237 277.66C342.357 277.558 342.477 277.438 342.597 277.326C345.669 274.481 348.447 271.386 350.56 267.632C351.252 266.399 351.898 265.139 352.507 263.86C352.563 263.74 352.618 263.61 352.683 263.489C352.701 263.461 352.719 263.424 352.729 263.387C352.793 263.267 352.849 263.137 352.913 263.007C352.959 262.905 352.996 262.822 353.042 262.72C354.851 258.753 356.346 254.638 357.933 250.616C358.385 249.467 358.847 248.308 359.308 247.159C359.336 247.085 359.363 247.011 359.391 246.955C359.419 246.872 359.456 246.788 359.493 246.696C361.532 241.608 363.627 236.529 365.527 231.403C365.592 231.209 365.878 231.348 365.804 231.533C364.568 234.962 363.405 238.429 362.224 241.895C362.067 242.358 361.91 242.812 361.753 243.276C361.44 244.193 361.135 245.092 360.812 246.01C360.175 247.826 359.539 249.634 358.865 251.441C356.983 256.501 355.137 261.691 352.636 266.501C352.452 266.863 352.258 267.215 352.055 267.567C351.935 267.79 351.815 268.012 351.686 268.225C351.548 268.475 351.4 268.735 351.252 268.985C348.622 273.434 345.097 276.882 341.222 280.098C340.954 280.32 340.677 280.542 340.4 280.765C340.281 280.867 340.151 280.969 340.022 281.08C339.948 281.126 339.884 281.191 339.819 281.247C339.727 281.312 339.644 281.386 339.552 281.46C339.487 281.506 339.422 281.571 339.348 281.617C339.118 281.803 338.878 281.988 338.638 282.183C336.045 284.222 333.424 286.224 330.794 288.207C329.964 288.837 329.124 289.486 328.294 290.135V290.126Z" fill="#FF6E4F"/>
<path d="M360.554 232.562C361.846 228.493 365.657 221.709 370.815 222.608C372.891 222.97 374.229 224.592 374.229 226.705C374.229 229.151 372.55 231.459 371.11 233.294C367.262 238.197 362.99 242.692 359.492 247.873C359.492 247.928 359.197 248.318 359.114 248.429C359.04 248.54 358.883 248.41 358.957 248.299C359.068 248.132 359.188 247.965 359.299 247.789C359.317 242.775 359.031 237.391 360.554 232.562Z" fill="#FF6E4F"/>
<path d="M359.492 247.91C359.492 247.91 359.529 247.836 359.539 247.799C360.184 246.232 360.923 244.74 361.735 243.276C363.442 240.236 365.463 237.391 367.539 234.564C368.342 233.48 372.365 228.317 369.025 227.956C367.622 227.808 366.182 229.003 365.223 229.884C363.673 231.283 362.482 233.035 361.587 234.925C359.825 238.688 359.419 242.85 359.363 246.955C359.363 247.15 359.354 247.335 359.354 247.521C359.326 247.576 359.308 247.632 359.28 247.687C359.262 247.715 359.243 247.762 359.234 247.799C359.225 247.827 359.225 247.845 359.234 247.873C359.252 247.956 359.345 248.012 359.419 247.984C359.446 247.975 359.474 247.956 359.483 247.919L359.492 247.91ZM359.474 246.696C359.622 243.313 359.963 239.865 361.116 236.668C361.716 235.009 362.547 233.396 363.608 231.987C364.079 231.367 364.614 230.764 365.186 230.227C365.601 229.828 366.072 229.43 366.552 229.114C367.622 228.392 369.071 228.002 369.624 228.54C370.316 229.207 370.049 229.782 369.532 230.931C369.366 231.32 369.154 231.691 368.942 232.052C368.397 232.961 367.77 233.813 367.142 234.657C366.099 236.056 365.075 237.465 364.097 238.911C363.433 239.884 362.787 240.885 362.196 241.904C361.153 243.656 360.221 245.463 359.428 247.345C359.428 247.141 359.446 246.928 359.455 246.714L359.474 246.696Z" fill="white"/>
<path d="M12.2174 257.576C14.7274 259.893 17.0712 262.377 19.3874 264.889C20.7069 266.307 21.9988 267.743 23.3276 269.171C24.7763 270.737 26.1513 272.479 28.1906 273.249C28.1906 273.249 28.1906 273.249 28.1998 273.249C28.2275 273.249 28.4489 273.397 28.4489 273.397C28.4489 273.415 28.4582 273.425 28.4674 273.434C28.5228 273.592 28.3659 273.814 28.1537 273.749C28.1075 273.731 28.0614 273.712 28.0152 273.693C27.9968 273.693 27.9783 273.693 27.9599 273.693C27.3601 273.703 26.4742 273.351 26.1051 273.267C24.4257 272.878 22.7739 272.368 21.1498 271.784C17.8279 270.589 14.6351 269.022 11.7007 267.03C9.08001 265.25 6.69004 263.137 4.62303 260.737C2.97128 258.809 0.489027 255.964 0.0276419 253.369C-0.387605 251.024 2.62985 251.478 4.03246 251.895C7.20679 252.84 9.83668 255.371 12.2082 257.567L12.2174 257.576Z" fill="#FF6E4F"/>
<path d="M4.61379 255.862C3.89403 256.872 6.6162 259.93 7.76043 261.293C9.55983 263.452 11.6361 265.352 13.8968 267.002C17.9663 269.986 22.5709 272.081 27.3785 273.527C27.5723 273.582 27.7661 273.647 27.9599 273.703C27.9783 273.703 27.9968 273.703 28.0152 273.703C28.0521 273.712 28.0983 273.731 28.1444 273.749C28.3567 273.823 28.5228 273.601 28.4674 273.434C28.0798 273.258 27.7107 273.063 27.3508 272.859C27.0186 272.674 26.6957 272.498 26.3819 272.294C22.8939 270.209 19.8579 267.308 16.8959 264.546C13.4078 261.302 5.58269 254.518 4.62301 255.853L4.61379 255.862ZM26.8894 272.952C27.3693 273.221 27.8676 273.471 28.3567 273.693C27.9599 273.564 27.5723 273.443 27.1847 273.304C22.9954 271.896 18.9259 270.097 15.2533 267.604C13.1863 266.214 11.2577 264.62 9.52292 262.822C8.59092 261.849 7.71429 260.839 6.91148 259.764C6.57929 259.31 4.38309 256.631 4.96444 256.103C5.37046 255.732 7.88962 257.382 7.94498 257.419C8.45251 257.743 8.94158 258.095 9.43064 258.457C10.4272 259.198 11.3961 259.995 12.3374 260.792C14.3767 262.553 16.333 264.425 18.3169 266.251C20.9653 268.689 23.7336 271.191 26.8987 272.943L26.8894 272.952Z" fill="white"/>
<path d="M31.1158 247.159C33.3951 251.589 33.9303 256.687 33.9949 261.599C34.0318 264.231 33.9395 266.863 33.9118 269.495C33.8841 271.701 33.7088 274.25 34.161 276.539C34.1794 276.641 34.1979 276.743 34.2256 276.845C34.3732 277.493 34.5762 278.124 34.853 278.717C34.8715 278.763 34.8715 278.809 34.853 278.846C34.8899 278.902 34.9361 278.958 34.9638 279.023C34.9915 279.06 34.9453 279.115 34.8992 279.078C34.8438 279.032 34.7884 278.976 34.7331 278.93C34.7331 278.93 34.7331 278.93 34.7238 278.921C34.6593 278.921 34.6039 278.902 34.5762 278.828C34.567 278.809 34.5485 278.782 34.5393 278.754C34.4839 278.707 34.4286 278.652 34.3824 278.605C30.5529 275.065 28.4121 269.059 26.9541 264.24C25.4961 259.449 24.8318 254.286 26.096 249.374C26.4189 248.142 26.9634 245.204 28.449 244.777C29.8055 244.388 30.6544 246.214 31.1343 247.15L31.1158 247.159Z" fill="#FF6E4F"/>
<path d="M29.1041 250.032C27.6 250.282 27.9229 254.425 27.9599 255.435C28.089 258.503 28.6888 261.525 29.3348 264.518C30.4144 269.421 31.817 274.129 34.3177 278.429C34.3362 278.494 34.3546 278.55 34.3731 278.605C34.4285 278.661 34.4838 278.717 34.53 278.763C34.5392 278.791 34.5484 278.819 34.5669 278.837C34.5946 278.902 34.6592 278.93 34.7145 278.93C34.6961 278.846 34.6684 278.772 34.6592 278.698C34.4931 278.096 34.3454 277.475 34.2162 276.863C34.1978 276.761 34.1701 276.659 34.1516 276.557C33.2842 272.285 33.1274 267.864 32.8136 263.499C32.5829 260.468 32.2323 257.41 31.4479 254.462C31.2541 253.712 30.3498 249.838 29.0856 250.051L29.1041 250.032ZM30.4513 252.219C32.4999 256.993 32.4445 262.665 32.7859 267.762C33.0074 271.21 33.3396 274.667 34.207 277.994C32.1031 274.046 30.8204 269.625 29.8515 265.306C29.2886 262.813 28.7719 260.301 28.4858 257.762C28.329 256.399 28.2182 254.991 28.2644 253.61C28.2828 252.979 28.3659 251.756 28.5781 251.135C29.0949 249.652 30.1007 251.404 30.4513 252.219Z" fill="white"/>
<path d="M42.9919 285.455C43.0288 285.538 43.0196 285.64 42.9642 285.714C43.0011 285.714 43.0288 285.714 43.0657 285.714C43.1211 285.714 43.1488 285.751 43.1488 285.788C43.1488 285.825 43.1395 285.872 43.0842 285.881C37.1877 286.817 30.6268 287.086 24.8226 285.492C22.3772 284.824 20.0149 283.805 17.911 282.368C16.4715 281.395 13.574 279.421 13.3987 277.466C13.0665 273.536 23.4384 277.614 25.0071 278.235C27.8492 279.366 30.5991 280.728 33.4228 281.914C36.5141 283.203 39.6884 284.268 42.8627 285.334C42.9273 285.353 42.9734 285.399 43.0011 285.445L42.9919 285.455Z" fill="#FF6E4F"/>
<path d="M42.992 285.455C42.669 285.427 42.3553 285.399 42.0416 285.353C36.8279 284.787 32.011 283.425 27.1019 281.284C24.7304 280.255 22.322 279.115 19.8028 278.494C19.1753 278.346 16.8684 277.614 17.2375 279.097C17.4313 279.866 21.2239 282.072 22.2574 282.563C24.6197 283.675 27.1573 284.407 29.7041 284.917C33.9581 285.76 38.4058 286.076 42.7613 285.825C42.8905 285.825 43.0197 285.825 43.1396 285.807C43.1396 285.77 43.112 285.723 43.0566 285.733C43.0289 285.733 42.992 285.733 42.9643 285.733C43.0105 285.649 43.0289 285.547 42.992 285.464V285.455ZM31.9095 285C29.3535 284.62 26.8066 284.055 24.3797 283.147C23.4201 282.785 22.4696 282.368 21.5561 281.896C20.8363 281.516 20.1258 281.126 19.4706 280.654C17.8742 279.486 17.5512 279.06 17.6897 278.754C17.7727 278.568 18.1141 278.457 19.4152 278.67C20.2365 278.8 21.0762 279.087 21.8514 279.384C22.9771 279.81 24.0845 280.283 25.1918 280.765C27.3972 281.72 29.6026 282.711 31.8726 283.499C35.1116 284.63 38.535 285.38 41.9677 285.612C38.6088 285.677 35.2684 285.51 31.9095 285.01V285Z" fill="white"/>
<path d="M42.3828 268.429C43.85 269.977 44.7543 272.007 45.4279 274.009C46.7752 278.04 47.2458 282.303 48.307 286.418C48.4639 287.03 48.6392 287.642 48.8237 288.253C48.8514 288.318 49.2482 288.995 49.2021 288.958C49.1929 288.958 48.9991 288.754 48.6761 288.411C47.0797 286.724 42.3274 281.543 40.5096 278.04C39.393 275.881 38.3319 273.554 37.769 271.173C37.5106 270.033 37.0307 267.456 38.1565 266.585C39.3654 265.649 41.6261 267.623 42.3828 268.429Z" fill="#FF6E4F"/>
<path d="M39.9653 269.43C38.3873 270.088 41.6539 277.067 42.0599 277.985C43.5825 281.377 45.5388 284.556 47.8826 287.438C48.141 287.772 48.4086 288.087 48.6762 288.411C48.9992 288.754 49.193 288.958 49.2022 288.967C49.2114 288.949 48.8515 288.328 48.8238 288.263C48.7869 288.161 48.7593 288.05 48.7316 287.948C48.5839 287.438 48.4363 286.928 48.3163 286.437C47.2828 283.684 46.2955 280.904 45.1974 278.17C44.413 276.196 43.5271 274.277 42.4291 272.452C42.1799 272.044 40.6573 269.152 39.9745 269.449L39.9653 269.43ZM41.2571 270.876C44.7913 275.964 46.074 282.1 48.4086 287.753C48.4455 287.846 48.4824 287.929 48.5193 288.031C48.4271 287.901 48.3163 287.781 48.224 287.651C46.3416 285.214 44.6806 282.637 43.2965 279.894C42.4475 278.226 41.7093 276.502 41.0726 274.741C40.7404 273.814 40.2975 272.795 40.0852 271.821C39.9929 271.386 39.7807 270.172 40.0668 270.023C40.4728 269.801 41.0172 270.542 41.2571 270.876Z" fill="white"/>
<path d="M11.7653 228.429C17.3296 237.752 14.4967 249.717 19.4243 259.319C19.4335 259.337 19.4427 259.356 19.452 259.365C19.5996 259.662 19.7565 259.949 19.9226 260.236C20.0056 260.375 19.8857 260.524 19.7749 260.533C19.7196 260.533 19.6642 260.514 19.6273 260.449C19.5812 260.385 19.5442 260.31 19.5073 260.236C15.0965 256.121 11.5254 250.533 8.90471 245.129C6.62546 240.431 5.12135 235.148 5.89648 229.893C6.08103 228.595 6.37632 226.01 7.9358 225.528C9.58756 225.009 11.0732 227.261 11.7561 228.41L11.7653 228.429Z" fill="#FF6E4F"/>
<path d="M9.84584 231.849C9.19067 232.062 9.10763 233.026 9.0338 233.554C8.83079 234.87 8.83079 236.223 8.95075 237.539C9.17222 240.264 9.95657 242.915 10.9716 245.445C12.6787 249.699 14.8011 254.018 17.551 257.771C18.1692 258.624 18.8244 259.449 19.5165 260.236C19.5995 260.338 19.6918 260.431 19.7748 260.524C19.8948 260.514 20.0055 260.366 19.9317 260.227C19.7656 259.949 19.618 259.671 19.4703 259.384C19.4519 259.365 19.4426 259.337 19.4334 259.31C18.3261 257.456 17.3664 255.538 16.619 253.489C15.4747 250.329 14.8657 246.992 14.1367 243.721C13.8599 242.433 12.0974 231.098 9.8643 231.839L9.84584 231.849ZM11.313 233.758C12.4481 236.195 12.8079 238.966 13.3893 241.58C13.9798 244.212 14.5335 246.853 15.161 249.476C15.6593 251.552 16.3145 253.61 17.1634 255.584C17.8555 257.224 18.6952 258.818 19.6733 260.311C18.5568 258.957 17.551 257.512 16.619 256.029C16.6005 256.01 16.6005 255.992 16.5913 255.973C14.9395 253.322 13.5277 250.486 12.2358 247.678C12.2174 247.65 12.1989 247.604 12.1804 247.576C11.0362 245.083 10.0489 242.479 9.5321 239.773C9.25527 238.299 9.0984 236.798 9.16299 235.305C9.24604 233.609 9.47673 232.247 10.0581 232.219C10.4549 232.219 10.9901 233.053 11.3223 233.776L11.313 233.758Z" fill="white"/>
<path d="M12.4575 247.548C13.98 250.245 15.5672 252.915 17.1636 255.575C17.911 256.826 18.6677 258.077 19.4151 259.319C19.4336 259.347 19.4428 259.374 19.4521 259.393C19.7197 259.838 19.9965 260.301 20.2641 260.746C22.7187 264.815 25.1455 269.106 28.2368 272.73C29.8517 274.63 31.7249 276.344 33.6996 277.938C33.9026 278.096 34.1056 278.263 34.3086 278.42C34.4194 278.504 34.5301 278.596 34.6501 278.68C34.7054 278.735 34.77 278.782 34.8346 278.828C36.5602 280.163 38.3596 281.414 40.1036 282.619C42.549 284.305 45.0866 285.816 47.6334 287.299C47.7073 287.345 47.7811 287.392 47.8549 287.429C47.9656 287.503 48.0856 287.568 48.1963 287.642C48.2609 287.679 48.3163 287.707 48.3717 287.744C48.4824 287.809 48.5931 287.874 48.6946 287.938C49.5159 288.411 50.3372 288.893 51.1492 289.384L50.6232 290.126C47.9656 288.949 45.3634 287.494 42.8812 285.909C42.8258 285.881 42.7797 285.844 42.7335 285.807C42.4936 285.658 42.2445 285.501 42.0138 285.343C41.7093 285.158 41.4232 284.963 41.1279 284.769C40.4174 284.296 39.7253 283.823 39.0332 283.351C35.0469 280.589 30.9682 277.605 27.7293 273.953C27.637 273.851 27.554 273.749 27.4617 273.647C27.4248 273.61 27.3879 273.564 27.351 273.517C27.2864 273.452 27.2218 273.378 27.1572 273.304L26.8619 272.943C26.6866 272.73 26.5112 272.507 26.3451 272.294C26.299 272.229 26.2436 272.164 26.1975 272.099C23.5491 268.661 21.4268 264.713 19.2952 260.987C18.9076 260.301 18.5201 259.615 18.1417 258.93C17.9295 258.55 17.7172 258.16 17.5142 257.78C17.2005 257.196 16.896 256.603 16.5822 256.019C16.5638 256.001 16.5638 255.982 16.5546 255.964C15.0874 253.202 13.6847 250.422 12.1991 247.669C12.1345 247.548 12.3467 247.428 12.4205 247.558L12.4575 247.548Z" fill="#FF6E4F"/>
<path d="M191.752 373C288.984 373 367.807 359.626 367.807 343.129C367.807 326.632 288.984 313.259 191.752 313.259C94.5189 313.259 15.6963 326.632 15.6963 343.129C15.6963 359.626 94.5189 373 191.752 373Z" fill="#EBEBEB"/>
<path d="M123.328 85.0894C117.598 89.918 89.4256 124.627 47.5042 113.44C47.5042 113.44 54.711 143.376 68.9586 143.376C83.2061 143.376 91.7233 121.661 91.7233 121.661C91.7233 121.661 93.2828 125.442 96.9646 125.118C104.476 124.451 117.764 102.661 123.328 90.4092V85.0894Z" fill="#FF6E4F"/>
<path opacity="0.1" d="M123.328 85.0894C117.598 89.918 89.4256 124.627 47.5042 113.44C47.5042 113.44 54.711 143.376 68.9586 143.376C83.2061 143.376 91.7233 121.661 91.7233 121.661C91.7233 121.661 93.2828 125.442 96.9646 125.118C104.476 124.451 117.764 102.661 123.328 90.4092V85.0894Z" fill="black"/>
<path opacity="0.1" d="M123.328 85.0894V88.5834C119.739 93.7549 102.04 118.167 84.784 122.375C65.4612 127.092 47.5042 113.44 47.5042 113.44C89.4256 124.617 117.598 89.918 123.328 85.0894Z" fill="black"/>
<path d="M260.184 85.0894C265.914 89.918 294.087 124.627 336.008 113.44C336.008 113.44 328.801 143.376 314.554 143.376C300.306 143.376 291.789 121.661 291.789 121.661C291.789 121.661 290.229 125.442 286.548 125.118C279.036 124.451 265.748 102.661 260.184 90.4092V85.0894Z" fill="#FF6E4F"/>
<path opacity="0.1" d="M260.184 85.0894C265.914 89.918 294.087 124.627 336.008 113.44C336.008 113.44 328.801 143.376 314.554 143.376C300.306 143.376 291.789 121.661 291.789 121.661C291.789 121.661 290.229 125.442 286.548 125.118C279.036 124.451 265.748 102.661 260.184 90.4092V85.0894Z" fill="black"/>
<path opacity="0.1" d="M260.184 85.0894V88.5834C263.774 93.7549 281.472 118.167 298.728 122.375C318.051 127.092 336.008 113.44 336.008 113.44C294.087 124.617 265.914 89.918 260.184 85.0894Z" fill="black"/>
<path d="M310.106 342.573C304.865 341.924 233.129 318.56 231.818 318.56C230.508 318.56 211.951 320.2 191.752 320.2C171.552 320.2 152.995 318.56 151.685 318.56C150.375 318.56 78.6477 341.915 73.4063 342.573C68.1558 343.24 20.993 278.754 23.2907 276.446C25.5792 274.138 42.9457 277.762 44.902 277.438C46.8675 277.113 80.281 257.697 80.6039 256.047C80.9269 254.407 86.1682 213.284 91.7418 181.041C97.3061 148.798 109.21 100.447 123.181 85.0895C137.161 69.7324 171.663 60.9741 191.742 60.9741C211.822 60.9741 246.343 69.7416 260.313 85.0895C274.284 100.447 286.188 148.798 291.752 181.041C297.316 213.284 302.558 254.407 302.89 256.047C303.213 257.697 336.626 277.113 338.583 277.438C340.548 277.762 357.906 274.147 360.203 276.446C362.501 278.744 315.329 343.231 310.088 342.573H310.106Z" fill="#FF6E4F"/>
<path d="M168.885 64.1252C170.288 63.4394 176.812 56.3771 185.643 53.9675C188.697 53.1333 183.068 59.5653 183.068 59.5653C183.068 59.5653 196.162 51.6505 201.45 49.732C210.262 46.5345 214.636 45.8672 214.636 47.3316C214.636 50.6032 200.905 56.7664 198.598 59.3892C198.598 59.3892 206.746 57.4059 209.487 59.1297C212.228 60.8536 202.28 62.596 202.28 62.596L168.885 64.1252Z" fill="#FF6E4F"/>
<path opacity="0.1" d="M167.012 142.218C168.018 146.907 168.101 151.801 167.464 156.601C166.818 161.402 165.333 166.166 162.758 170.364C161.457 172.45 159.934 174.396 158.163 176.101C156.363 177.77 154.379 179.234 152.257 180.42C147.957 182.728 143.205 183.998 138.452 184.341C143.094 183.238 147.56 181.607 151.528 179.169C153.475 177.89 155.311 176.481 156.945 174.841C158.569 173.191 159.99 171.356 161.189 169.382C163.644 165.452 165.139 160.948 166.052 156.351C166.929 151.736 167.261 146.972 167.012 142.199V142.218Z" fill="black"/>
<path d="M138.923 118.64C120.892 118.64 111.821 132.542 111.821 148.779C111.821 161.93 122.525 175.36 139.827 175.36C157.129 175.36 167.833 159.576 167.833 147.231C167.833 134.886 158.495 118.649 138.914 118.649L138.923 118.64Z" fill="white"/>
<path d="M139.117 124.794C124.998 124.794 117.902 135.674 117.902 148.39C117.902 158.687 126.281 169.197 139.827 169.197C153.374 169.197 161.752 156.842 161.752 147.176C161.752 137.509 154.444 124.794 139.117 124.794Z" fill="#263238"/>
<path d="M145.65 125.025C139.237 125.025 136.016 129.965 136.016 135.739C136.016 140.41 139.818 145.193 145.973 145.193C152.128 145.193 155.93 139.585 155.93 135.192C155.93 130.799 152.608 125.035 145.65 125.035V125.025Z" fill="white"/>
<path d="M122.876 115.303C129.059 116.443 135.232 117.639 141.405 118.853C147.579 120.067 153.752 121.225 159.916 122.495L159.547 123.959L125.404 114.506L125.94 112.217C137.133 114.237 148.344 116.211 159.528 118.287L158.919 120.92L141.876 116.193L124.851 111.401L125.423 108.751L143.638 111.689L161.845 114.673L161.374 116.99L126.078 107.527L126.355 106.054C132.464 106.832 138.563 107.731 144.663 108.575C150.762 109.418 156.862 110.271 162.961 111.179C156.825 110.623 150.697 110.02 144.57 109.409C138.443 108.788 132.307 108.222 126.189 107.546L126.466 106.072L161.974 114.701L161.503 117.018L143.26 114.256L125.026 111.438L125.598 108.788L142.642 113.524L159.667 118.325L159.058 120.957C147.874 118.871 136.708 116.684 125.534 114.543L126.069 112.254L159.971 122.523L159.602 123.987C153.466 122.616 147.357 121.133 141.23 119.696C135.112 118.26 128.985 116.814 122.876 115.312V115.303Z" fill="#263238"/>
<path d="M190.847 79.1858C172.816 79.1858 163.746 93.0878 163.746 109.325C163.746 122.477 174.45 135.906 191.752 135.906C209.054 135.906 219.758 120.123 219.758 107.778C219.758 95.4326 210.419 79.1951 190.838 79.1951L190.847 79.1858Z" fill="white"/>
<path d="M191.05 85.3491C176.932 85.3491 169.836 96.2298 169.836 108.945C169.836 119.242 178.215 129.752 191.761 129.752C205.307 129.752 213.686 117.398 213.686 107.731C213.686 98.0648 206.378 85.3491 191.05 85.3491Z" fill="#263238"/>
<path d="M191.438 84.311C185.025 84.311 181.804 89.2509 181.804 95.0248C181.804 99.6959 185.606 104.478 191.761 104.478C197.916 104.478 201.718 98.8711 201.718 94.478C201.718 90.085 198.396 84.3203 191.438 84.3203V84.311Z" fill="white"/>
<path d="M172.383 83.5695C178.667 83.4304 184.951 83.3378 191.244 83.2636C197.528 83.1895 203.812 83.0597 210.106 83.0505L210.041 84.5611L174.699 82.2719L174.764 79.9179C186.132 79.612 197.51 79.2506 208.878 79.0096L208.814 81.7066L191.17 80.5574L173.527 79.3433L173.555 76.6277L191.982 75.7843L210.41 74.9966V77.3599L173.942 75.2931L173.915 73.7917C180.051 73.3098 186.206 72.9483 192.352 72.522C198.497 72.1049 204.643 71.6972 210.798 71.345C204.68 72.0586 198.553 72.7166 192.425 73.3654C186.298 74.0049 180.18 74.7093 174.044 75.2931L174.016 73.7917L210.53 74.9966V77.3599L192.112 78.3794L173.693 79.3433L173.721 76.637L191.364 77.7955L208.998 79.0189L208.934 81.7159C197.556 81.9661 186.187 82.0958 174.81 82.2812L174.874 79.9271L210.152 83.0597L210.087 84.5704C203.803 84.4777 197.519 84.2738 191.235 84.1255C184.951 83.968 178.667 83.8012 172.383 83.5787V83.5695Z" fill="#263238"/>
<path opacity="0.1" d="M216.666 142.218C216.426 146.991 216.749 151.754 217.626 156.37C218.54 160.967 220.034 165.471 222.489 169.401C223.689 171.375 225.11 173.21 226.734 174.859C228.367 176.5 230.203 177.909 232.15 179.188C236.118 181.616 240.594 183.247 245.226 184.359C240.474 184.016 235.722 182.747 231.421 180.439C229.29 179.252 227.315 177.788 225.516 176.12C223.753 174.405 222.221 172.459 220.92 170.383C218.346 166.185 216.86 161.421 216.214 156.62C215.577 151.819 215.661 146.926 216.666 142.236V142.218Z" fill="black"/>
<path d="M244.755 118.64C262.786 118.64 271.857 132.542 271.857 148.779C271.857 161.93 261.153 175.36 243.851 175.36C226.549 175.36 215.845 159.576 215.845 147.231C215.845 134.886 225.183 118.649 244.765 118.649L244.755 118.64Z" fill="white"/>
<path d="M244.562 124.794C258.68 124.794 265.776 135.674 265.776 148.39C265.776 158.687 257.397 169.197 243.851 169.197C230.305 169.197 221.926 156.842 221.926 147.176C221.926 137.509 229.234 124.794 244.562 124.794Z" fill="#263238"/>
<path d="M238.019 125.025C244.432 125.025 247.653 129.965 247.653 135.739C247.653 140.41 243.851 145.193 237.696 145.193C231.541 145.193 227.74 139.585 227.74 135.192C227.74 130.799 231.061 125.035 238.019 125.035V125.025Z" fill="white"/>
<path d="M260.636 115.303C254.528 116.805 248.41 118.25 242.282 119.687C236.155 121.114 230.047 122.606 223.91 123.978L223.541 122.514L257.444 112.245L257.979 114.534C246.804 116.675 235.639 118.862 224.455 120.947L223.846 118.315L240.871 113.514L257.914 108.778L258.486 111.429L240.252 114.247L222.009 117.008L221.539 114.691L257.047 106.063L257.324 107.537C251.206 108.213 245.069 108.778 238.942 109.399C232.815 110.011 226.688 110.623 220.551 111.17C226.642 110.261 232.75 109.409 238.85 108.565C244.949 107.731 251.049 106.832 257.158 106.044L257.434 107.518L222.138 116.981L221.668 114.664L239.874 111.679L258.09 108.741L258.662 111.392L241.637 116.184L224.593 120.91L223.984 118.278C235.168 116.202 246.38 114.228 257.573 112.208L258.108 114.497L223.966 123.95L223.596 122.486C229.751 121.216 235.934 120.058 242.107 118.844C248.281 117.639 254.454 116.443 260.636 115.294V115.303Z" fill="#263238"/>
<path d="M220.837 187.38C219.499 190.188 203.277 186.351 191.761 186.351C179.525 186.351 164.013 190.188 162.675 187.38C161.346 184.563 168.691 156.712 191.761 156.712C214.83 156.712 222.166 184.553 220.837 187.38Z" fill="#263238"/>
<path d="M211.591 188.075C205.695 187.492 198.027 186.352 191.761 186.352C185.495 186.352 177.689 187.464 171.931 188.048C179.193 174.007 186.778 172.82 191.761 178.427C196.744 172.82 204.329 174.007 211.591 188.075Z" fill="#FF99BA"/>
<path d="M178.353 187.325C175.114 187.705 172.06 188.075 169.531 188.261L172.041 178.752L175.705 178.103L178.353 187.325Z" fill="white"/>
<path d="M215.901 188.39C213.261 188.298 209.801 187.899 206.082 187.473L209.607 179.641L214.295 179.966L215.901 188.39Z" fill="white"/>
<path d="M252.922 211.495C251.335 203.442 248.566 196.268 244.626 189.975C240.677 183.701 235.666 178.492 229.576 174.368C225.137 171.356 220.293 169.15 215.07 167.76C214.664 168.594 214.101 169.372 213.335 169.678C211.462 170.438 209.967 168.89 209.967 168.89C209.967 168.89 209.192 170.726 207.679 171.291C206.165 171.856 204.91 170.262 204.91 170.262C204.91 170.262 203.332 174.192 200.379 174.331C197.427 174.461 195.922 169.456 195.922 169.456C195.922 169.456 194.787 171.93 192.988 171.93C191.189 171.93 188.457 168.464 188.457 168.464C188.457 168.464 188.448 168.223 188.439 167.843C188.005 167.973 187.581 168.103 187.156 168.242C180.226 170.494 173.988 174.062 168.442 178.983C162.897 183.895 158.218 189.994 154.444 197.278C150.661 204.563 148.114 212.765 146.813 221.885C145.502 231.014 145.65 239.605 147.237 247.659C148.815 255.722 151.583 262.887 155.524 269.18C159.473 275.463 164.456 280.625 170.482 284.666C176.498 288.716 183.364 291.293 191.069 292.405C198.635 293.499 205.916 292.961 212.892 290.802C219.878 288.633 226.143 285.093 231.689 280.181C237.244 275.278 241.913 269.17 245.687 261.886C249.48 254.601 252.018 246.399 253.319 237.279C254.629 228.15 254.491 219.568 252.903 211.505L252.922 211.495ZM225.47 233.247C224.676 238.78 223.338 243.739 221.437 248.113C219.545 252.497 217.229 256.186 214.489 259.17C211.739 262.164 208.694 264.332 205.335 265.676C201.976 267.029 198.451 267.437 194.732 266.9C190.875 266.344 187.534 264.935 184.692 262.692C181.859 260.449 179.534 257.502 177.744 253.869C175.944 250.217 174.763 246.028 174.173 241.283C173.582 236.538 173.693 231.412 174.477 225.879C175.262 220.356 176.609 215.36 178.519 210.912C180.42 206.463 182.745 202.737 185.486 199.744C188.236 196.759 191.281 194.591 194.64 193.238C197.989 191.894 201.588 191.495 205.445 192.051C209.155 192.589 212.44 193.979 215.282 196.222C218.115 198.474 220.44 201.421 222.231 205.054C224.021 208.706 225.211 212.923 225.793 217.733C226.355 222.543 226.254 227.714 225.47 233.238V233.247Z" fill="#37474F"/>
<path d="M247.994 210.402C246.407 202.348 243.639 195.175 239.699 188.882C235.749 182.607 230.739 177.399 224.648 173.274C220.21 170.262 215.365 168.056 210.142 166.666C209.736 167.5 209.174 168.279 208.408 168.585C206.534 169.345 205.04 167.797 205.04 167.797C205.04 167.797 204.264 169.632 202.751 170.197C201.238 170.763 199.983 169.169 199.983 169.169C199.983 169.169 198.405 173.098 195.452 173.237C192.499 173.367 190.995 168.362 190.995 168.362C190.995 168.362 189.86 170.837 188.061 170.837C186.261 170.837 183.53 167.371 183.53 167.371C183.53 167.371 183.521 167.13 183.511 166.75C183.078 166.879 182.653 167.009 182.229 167.148C175.299 169.4 169.061 172.969 163.515 177.89C157.969 182.802 153.291 188.9 149.516 196.185C145.733 203.469 143.186 211.672 141.885 220.791C140.575 229.92 140.722 238.512 142.31 246.566C143.888 254.629 146.656 261.793 150.596 268.086C154.546 274.37 159.529 279.532 165.554 283.573C171.571 287.623 178.436 290.199 186.141 291.312C193.708 292.405 200.989 291.868 207.965 289.708C214.95 287.54 221.216 283.999 226.762 279.087C232.317 274.184 236.986 268.077 240.76 260.792C244.553 253.507 247.09 245.305 248.391 236.186C249.702 227.057 249.563 218.474 247.976 210.411L247.994 210.402ZM220.542 232.154C219.748 237.687 218.41 242.645 216.51 247.02C214.618 251.404 212.302 255.092 209.561 258.077C206.811 261.07 203.766 263.239 200.407 264.583C197.048 265.936 193.523 266.344 189.805 265.806C185.947 265.25 182.607 263.841 179.765 261.598C176.932 259.356 174.607 256.408 172.816 252.775C171.017 249.124 169.836 244.935 169.245 240.189C168.655 235.444 168.765 230.319 169.55 224.786C170.334 219.262 171.681 214.267 173.592 209.818C175.492 205.369 177.818 201.644 180.558 198.65C183.308 195.666 186.353 193.497 189.712 192.144C193.062 190.8 196.661 190.402 200.518 190.958C204.227 191.495 207.513 192.885 210.355 195.128C213.188 197.38 215.513 200.328 217.303 203.961C219.093 207.612 220.284 211.829 220.865 216.639C221.428 221.449 221.326 226.621 220.542 232.145V232.154Z" fill="#455A64"/>
<path d="M202.843 159.168L200.49 172.181H194.76L193.126 160.012L192.416 168.019L186.575 168.297L184.914 157.611C187.018 157.037 189.306 156.722 191.77 156.722C195.978 156.722 199.65 157.648 202.852 159.178L202.843 159.168Z" fill="white"/>
<path d="M191.742 320.209C191.742 320.209 191.715 320.228 191.659 320.265C191.604 320.228 191.576 320.209 191.576 320.209H191.752H191.742Z" fill="black"/>
<path d="M191.576 320.209H191.752C191.752 320.209 191.724 320.228 191.668 320.265C191.613 320.228 191.585 320.209 191.585 320.209H191.576Z" fill="black"/>
<path opacity="0.1" d="M145.973 314.88C145.973 314.88 169.67 320.172 191.567 320.2C171.451 320.191 152.986 318.56 151.676 318.56C150.365 318.56 78.6478 341.915 73.4064 342.564C71.2102 342.833 61.7426 331.794 51.6106 318.662C55.7354 321.516 72.1791 332.86 74.1262 332.86C76.3593 332.86 145.973 314.88 145.973 314.88Z" fill="black"/>
<path opacity="0.1" d="M332.114 318.393C321.89 331.655 312.302 342.851 310.106 342.573C304.865 341.915 233.138 318.569 231.828 318.569C230.517 318.569 211.951 320.209 191.752 320.209C213.667 320.182 237.355 314.89 237.355 314.89C237.355 314.89 306.969 332.87 309.202 332.87C311.223 332.87 328.811 320.691 332.114 318.393Z" fill="black"/>
<path d="M92.7752 175.295C92.7752 175.295 64.5569 209.169 65.8673 235.324C67.1776 261.478 90.4314 279.569 121.39 279.736C121.39 279.736 134.687 281.543 139.827 279.736C139.827 279.736 133.506 269.208 132.851 267.567C132.851 267.567 146.776 263.786 154.638 252.266C154.638 252.266 143.574 247.168 138.462 241.413C138.462 241.413 145.299 231.218 146.776 229.902C146.776 229.902 132.694 230.884 127.776 231.876C127.776 231.876 105.989 230.56 97.4814 214.767C88.9642 198.975 92.7845 175.295 92.7845 175.295H92.7752Z" fill="#FF6E4F"/>
<path d="M75.1873 260.023C77.9279 263.378 81.2775 266.186 84.821 268.624C88.3829 271.043 92.2031 273.072 96.2079 274.629C97.2045 275.037 98.238 275.334 99.2439 275.705L100.766 276.233L102.317 276.65L105.426 277.465L108.592 278.049L110.169 278.337C110.695 278.411 111.231 278.448 111.766 278.513L114.959 278.846C117.09 279.004 119.24 278.985 121.381 279.06H121.446H121.492C124.5 279.486 127.582 279.727 130.627 279.773C133.672 279.81 136.736 279.671 139.615 278.958L139.126 280.162L135.499 274.138L133.728 271.089C133.146 270.042 132.574 269.087 132.039 267.873L131.679 267.048L132.593 266.752C134.651 266.084 136.727 265.204 138.72 264.231C140.713 263.248 142.632 262.145 144.478 260.913C146.333 259.699 148.031 258.281 149.636 256.779C151.233 255.269 152.608 253.554 153.853 251.765L154.25 253.109C152.728 252.405 151.27 251.654 149.821 250.857C148.372 250.06 146.951 249.217 145.558 248.318C142.789 246.51 140.104 244.499 137.806 241.978L137.373 241.506L137.714 240.959C138.988 238.929 140.289 236.946 141.645 234.972C142.328 233.989 143.011 233.007 143.749 232.052C144.515 231.088 145.179 230.152 146.287 229.244L146.813 230.718C143.648 230.903 140.473 231.135 137.317 231.431C134.161 231.719 130.996 232.034 127.896 232.562H127.822L127.785 232.571C123.291 232.432 118.963 231.487 114.811 229.939C110.686 228.373 106.801 226.074 103.553 223.072C100.314 220.059 97.7397 216.352 95.9773 212.33C94.2148 208.298 93.1997 203.979 92.7568 199.624C93.3843 203.952 94.5562 208.196 96.4017 212.126C98.2657 216.046 100.896 219.587 104.135 222.414C107.373 225.24 111.157 227.418 115.208 228.855C119.24 230.282 123.55 231.125 127.767 231.172H127.647C130.821 230.579 133.995 230.199 137.17 229.856C140.353 229.541 143.528 229.29 146.72 229.077L149.193 228.92L147.237 230.551C146.508 231.153 145.751 232.136 145.059 233.044C144.358 233.971 143.684 234.944 143.02 235.917C141.701 237.863 140.409 239.856 139.172 241.858L139.08 240.829C141.211 243.146 143.804 245.074 146.508 246.816C147.865 247.678 149.258 248.494 150.679 249.263C152.091 250.032 153.549 250.764 154.988 251.422L155.985 251.877L155.376 252.766C154.056 254.703 152.58 256.52 150.882 258.105C149.184 259.68 147.385 261.145 145.456 262.396C143.537 263.665 141.534 264.796 139.467 265.797C137.391 266.789 135.306 267.669 133.073 268.383L133.626 267.261C134.032 268.188 134.641 269.263 135.186 270.255L136.921 273.286L140.492 279.31L141.055 280.264L140.003 280.515C136.865 281.275 133.7 281.395 130.572 281.321C127.444 281.21 124.343 280.913 121.243 280.413H121.353C119.176 280.301 116.989 280.283 114.82 280.079L111.572 279.681C111.028 279.606 110.492 279.56 109.948 279.467L108.342 279.143L105.14 278.494L101.994 277.604L100.425 277.15L98.8932 276.585C97.8782 276.196 96.8354 275.862 95.8388 275.417C91.8248 273.712 88.023 271.543 84.5072 268.995C81.0007 266.437 77.7433 263.489 75.1411 260.014L75.1873 260.023Z" fill="#263238"/>
<path d="M74.1261 204.183C74.1261 204.183 61.558 216.51 61.1151 225.407C60.9582 228.623 65.8119 222.126 65.8119 222.126C65.8119 222.126 62.2316 233.109 62.8683 236.482C63.505 239.856 65.8673 231.505 65.8673 231.505L74.1169 204.183H74.1261Z" fill="#FF6E4F"/>
<path d="M290.396 173.534C290.396 173.534 311.158 212.469 304.579 237.808C297.999 263.146 271.562 276.112 241.221 269.949C241.221 269.949 227.832 269.004 223.163 266.177C223.163 266.177 231.486 257.159 232.464 255.686C232.464 255.686 219.601 249.133 214.24 236.26C214.24 236.26 226.106 233.526 232.28 228.938C232.28 228.938 227.647 217.557 226.466 215.963C226.466 215.963 240.059 219.809 244.663 221.774C244.663 221.774 266.256 224.934 277.791 211.218C289.325 197.501 290.386 173.534 290.386 173.534H290.396Z" fill="#FF6E4F"/>
<path d="M296.172 254.388C293.118 258.373 289.159 261.617 284.905 264.277C280.623 266.928 275.936 268.902 271.073 270.227C266.201 271.515 261.153 272.146 256.106 272.146C251.058 272.164 246.02 271.627 241.083 270.635H241.194C238.056 270.505 234.965 270.171 231.883 269.634C228.81 269.069 225.737 268.299 222.812 266.918L221.834 266.455L222.581 265.639L227.297 260.468L229.613 257.854C230.36 256.992 231.172 256.066 231.754 255.241L232.067 256.446C230.019 255.296 228.155 254.008 226.328 252.609C224.51 251.209 222.775 249.698 221.151 248.058C219.527 246.418 218.023 244.657 216.703 242.747C215.374 240.848 214.239 238.781 213.39 236.603L213.003 235.602L214.055 235.37C215.596 235.027 217.174 234.601 218.715 234.138C220.256 233.674 221.788 233.164 223.292 232.59C226.291 231.441 229.225 230.078 231.781 228.252L231.486 229.235C230.674 227.02 229.825 224.805 228.921 222.627C228.469 221.542 228.007 220.458 227.509 219.401C227.26 218.873 227.001 218.354 226.734 217.854C226.466 217.362 226.162 216.853 225.876 216.519L224.141 214.48L226.688 215.184C229.77 216.037 232.833 216.936 235.888 217.9C238.933 218.882 241.959 219.902 244.949 221.144L244.838 221.107C248.972 221.922 253.374 221.978 257.61 221.403C261.854 220.81 266.016 219.485 269.753 217.353C273.5 215.249 276.794 212.321 279.405 208.864C282.035 205.407 284.01 201.468 285.505 197.362C284.195 201.523 282.358 205.574 279.793 209.151C277.246 212.738 273.989 215.833 270.196 218.122C266.413 220.412 262.131 221.839 257.776 222.543C253.402 223.211 248.963 223.257 244.534 222.469H244.497L244.423 222.432C241.498 221.274 238.462 220.319 235.435 219.401C232.4 218.465 229.345 217.594 226.282 216.76L227.094 215.425C227.583 215.991 227.869 216.528 228.182 217.066C228.478 217.603 228.745 218.15 229.013 218.697C229.53 219.791 230.01 220.884 230.48 221.987C231.412 224.193 232.28 226.408 233.11 228.651L233.332 229.253L232.806 229.633C230.056 231.635 227.02 233.044 223.938 234.249C222.397 234.842 220.828 235.379 219.25 235.861C217.663 236.343 216.094 236.788 214.452 237.159L215.107 235.926C216.722 239.986 219.342 243.637 222.434 246.798C223.975 248.382 225.645 249.856 227.398 251.218C229.142 252.572 230.997 253.86 232.889 254.935L233.719 255.408L233.193 256.14C232.418 257.224 231.671 258.04 230.886 258.948L228.533 261.571L223.762 266.733L223.532 265.454C226.208 266.752 229.179 267.512 232.169 268.095C235.159 268.67 238.222 269.059 241.258 269.263H241.323L241.369 269.282C246.213 270.338 251.159 270.95 256.115 271.006C261.07 271.098 266.035 270.533 270.861 269.384C275.677 268.207 280.356 266.381 284.665 263.869C286.815 262.618 288.873 261.191 290.82 259.625C292.749 258.049 294.603 256.344 296.172 254.388Z" fill="#263238"/>
<path d="M305.824 224.434C305.824 224.434 308.666 234.731 306.922 240.532C305.178 246.334 304.588 237.808 304.588 237.808C304.588 237.808 303.914 248.716 302.659 249.244C301.404 249.773 302.17 244.721 302.17 244.721L305.824 224.434Z" fill="#FF6E4F"/>
<g opacity="0.1">
<path d="M50.6877 281.701C51.1121 289.087 66.4578 290.051 69.2353 282.34C72.0036 274.629 50.1525 272.349 50.6877 281.701Z" fill="black"/>
<path d="M284.877 321.164C283.05 327.058 293.459 331.767 297.602 326.447C301.746 321.127 287.184 313.712 284.877 321.164Z" fill="black"/>
<path d="M213.99 307.799C213.289 310.33 216.27 311.627 217.644 309.19C219.019 306.752 214.876 304.593 213.99 307.799Z" fill="black"/>
<path d="M282.118 252.479C284.674 257.863 296.43 253.887 296.163 247.289C295.895 240.69 278.879 245.667 282.118 252.479Z" fill="black"/>
<path d="M79.4596 281.163C81.5635 283.443 76.0269 286.678 74.4397 284.388C72.8525 282.099 77.7617 279.319 79.4596 281.163Z" fill="black"/>
<path d="M136.533 98.9634C134.198 100.965 131.808 96.7298 134.088 95.1542C136.376 93.5787 138.415 97.3508 136.533 98.9634Z" fill="black"/>
<path d="M294.262 235.073C296.366 237.353 290.829 240.588 289.242 238.299C287.655 236.009 292.564 233.229 294.262 235.073Z" fill="black"/>
<path d="M72.2898 268.086C78.214 267.039 77.7618 276.872 72.2898 276.325C66.8178 275.788 66.9746 269.031 72.2898 268.086Z" fill="black"/>
<path d="M85.3837 218.215C88.1889 217.714 87.9767 222.367 85.3837 222.117C82.7907 221.867 82.8645 218.66 85.3837 218.215Z" fill="black"/>
<path d="M143.906 195.425C146.711 194.924 146.499 199.577 143.906 199.327C141.313 199.077 141.387 195.87 143.906 195.425Z" fill="black"/>
<path d="M260.129 102.291C262.934 101.79 262.722 106.443 260.129 106.192C257.536 105.933 257.61 102.735 260.129 102.291Z" fill="black"/>
<path d="M87.6539 208.224C90.9297 205.036 95.6635 213.646 91.8617 215.296C88.0599 216.945 84.7102 211.088 87.6539 208.224Z" fill="black"/>
<path d="M281.629 165.267C286.169 164.776 284.619 174.488 280.614 173.441C276.609 172.394 277.56 165.702 281.629 165.267Z" fill="black"/>
<path d="M229.687 309.81C232.446 313.462 223.366 317.141 222.184 313.156C221.003 309.171 227.204 306.53 229.687 309.81Z" fill="black"/>
<path d="M131.033 82.346C136.957 81.2987 136.505 91.132 131.033 90.5852C125.561 90.0477 125.718 83.2913 131.033 82.346Z" fill="black"/>
</g>
<path d="M178.427 331.248L182.026 328.3L186.695 329.774V332.054L178.427 331.248Z" fill="#455A64"/>
<path d="M202.566 331.108L201.653 329.885L205.086 330.219L204.513 331.303L202.566 331.108Z" fill="#455A64"/>
<path d="M196.024 334.195C196.024 334.195 198.026 332.323 198.423 332.054C198.82 331.785 203.489 331.924 203.425 333.129C203.36 334.334 203.092 337.142 202.557 337.142H198.294L196.024 334.195Z" fill="#455A64"/>
<path d="M192.028 327.503L194.409 326.391L196.808 326.141L196.31 328.18L195.784 328.699L193.006 328.504L192.028 327.503Z" fill="#455A64"/>
<path d="M189.934 329.477H190.663L191.133 330.358H189.306C189.306 330.358 188.836 330.228 189.131 330.052C189.426 329.876 189.934 329.477 189.934 329.477Z" fill="#455A64"/>
<path d="M78.0662 345.836V314.621H17.1726V289.69L87.0355 199.624H106.017V289.486H124.371V314.621H106.017V345.836H78.0662ZM45.1141 289.486H81.1944V242.145L45.1141 289.486Z" fill="#37474F"/>
<path d="M72.8987 345.836V314.621H12.0051V289.69L81.868 199.624H100.849V289.486H119.203V314.621H100.849V345.836H72.8987ZM39.9466 289.486H76.0269V242.145L39.9466 289.486Z" fill="#455A64"/>
<path d="M325.212 345.836V314.621H264.309V289.69L334.172 199.624H353.153V289.486H371.507V314.621H353.153V345.836H325.202H325.212ZM292.26 289.486H328.34V242.145L292.26 289.486Z" fill="#37474F"/>
<path d="M320.044 345.836V314.621H259.141V289.69L329.004 199.624H347.986V289.486H366.34V314.621H347.986V345.836H320.035H320.044ZM287.092 289.486H323.172V242.145L287.092 289.486Z" fill="#455A64"/>
<path d="M149.959 32.4659C148.52 32.4659 147.209 32.1879 146.037 31.6132C144.866 31.0479 143.86 30.2972 143.02 29.3611C142.18 28.425 141.525 27.3592 141.073 26.1451C140.612 24.9403 140.381 23.7076 140.381 22.4472C140.381 21.1867 140.621 19.8707 141.11 18.6658C141.599 17.461 142.273 16.3952 143.131 15.4684C143.989 14.5416 145.004 13.8094 146.185 13.2626C147.366 12.7158 148.649 12.4377 150.033 12.4377C151.417 12.4377 152.746 12.7343 153.927 13.3182C155.099 13.9021 156.096 14.6713 156.926 15.6167C157.757 16.562 158.403 17.6371 158.864 18.8419C159.325 20.0468 159.556 21.2702 159.556 22.5121C159.556 23.8281 159.316 25.0793 158.836 26.2749C158.356 27.4704 157.692 28.527 156.843 29.4445C155.994 30.3621 154.979 31.0942 153.798 31.641C152.617 32.1879 151.334 32.4566 149.95 32.4566L149.959 32.4659ZM144.256 22.4565C144.256 23.3091 144.386 24.134 144.644 24.931C144.902 25.7281 145.281 26.4324 145.77 27.0441C146.259 27.6558 146.859 28.147 147.569 28.5177C148.28 28.8884 149.083 29.0738 149.987 29.0738C150.891 29.0738 151.722 28.8792 152.441 28.4992C153.152 28.1192 153.752 27.6095 154.241 26.9885C154.73 26.3583 155.099 25.6539 155.348 24.8569C155.597 24.0691 155.717 23.272 155.717 22.4565C155.717 21.6409 155.588 20.7789 155.321 19.9819C155.053 19.1848 154.675 18.4805 154.185 17.8688C153.696 17.2571 153.097 16.7659 152.386 16.4137C151.676 16.0523 150.873 15.8762 149.987 15.8762C149.101 15.8762 148.243 16.0708 147.523 16.4415C146.803 16.8215 146.204 17.322 145.724 17.9429C145.244 18.5639 144.884 19.2683 144.635 20.056C144.386 20.8438 144.256 21.6501 144.256 22.4657V22.4565Z" fill="#263238"/>
<path d="M168.839 32.6049C167.658 32.6049 166.597 32.401 165.656 31.9932C164.714 31.5854 163.912 31.0293 163.256 30.3342C162.601 29.6391 162.094 28.8421 161.752 27.9246C161.402 27.0163 161.226 26.0617 161.226 25.0607C161.226 24.0598 161.402 23.0774 161.752 22.1691C162.103 21.2609 162.601 20.4638 163.256 19.7687C163.912 19.0736 164.714 18.5268 165.656 18.1097C166.597 17.7019 167.658 17.498 168.839 17.498C170.02 17.498 171.072 17.7019 172.004 18.1097C172.936 18.5175 173.73 19.0736 174.385 19.7687C175.04 20.4638 175.538 21.2701 175.898 22.1691C176.249 23.0774 176.424 24.0413 176.424 25.0607C176.424 26.0802 176.249 27.0163 175.898 27.9246C175.548 28.8328 175.049 29.6391 174.403 30.3342C173.758 31.0293 172.964 31.5854 172.023 31.9932C171.081 32.401 170.02 32.6049 168.839 32.6049ZM165.047 25.07C165.047 25.7188 165.139 26.3119 165.333 26.8402C165.526 27.3685 165.794 27.8226 166.135 28.2119C166.477 28.6011 166.874 28.907 167.344 29.1201C167.806 29.3333 168.304 29.4352 168.839 29.4352C169.374 29.4352 169.873 29.3333 170.334 29.1201C170.795 28.907 171.192 28.6011 171.543 28.2119C171.884 27.8226 172.152 27.3592 172.346 26.8217C172.539 26.2841 172.641 25.691 172.641 25.0422C172.641 24.3934 172.549 23.8281 172.346 23.2905C172.152 22.753 171.884 22.2896 171.543 21.9003C171.201 21.5111 170.795 21.2145 170.334 20.9921C169.873 20.7789 169.374 20.677 168.839 20.677C168.304 20.677 167.806 20.7882 167.344 21.0106C166.883 21.2331 166.477 21.5389 166.135 21.9282C165.794 22.3174 165.526 22.7808 165.333 23.3184C165.139 23.8559 165.047 24.4398 165.047 25.07Z" fill="#263238"/>
<path d="M185.606 32.6049C184.425 32.6049 183.363 32.401 182.422 31.9932C181.481 31.5854 180.678 31.0293 180.023 30.3342C179.368 29.6391 178.86 28.8421 178.519 27.9246C178.168 27.0163 177.993 26.0617 177.993 25.0607C177.993 24.0598 178.168 23.0774 178.519 22.1691C178.87 21.2609 179.368 20.4638 180.023 19.7687C180.678 19.0736 181.481 18.5268 182.422 18.1097C183.363 17.7019 184.425 17.498 185.606 17.498C186.787 17.498 187.839 17.7019 188.78 18.1097C189.712 18.5175 190.506 19.0736 191.161 19.7687C191.816 20.4638 192.314 21.2701 192.674 22.1691C193.025 23.0774 193.2 24.0413 193.2 25.0607C193.2 26.0802 193.025 27.0163 192.674 27.9246C192.324 28.8328 191.825 29.6391 191.179 30.3342C190.533 31.0293 189.74 31.5854 188.799 31.9932C187.857 32.401 186.796 32.6049 185.615 32.6049H185.606ZM181.813 25.07C181.813 25.7188 181.915 26.3119 182.099 26.8402C182.293 27.3685 182.561 27.8226 182.902 28.2119C183.243 28.6011 183.64 28.907 184.111 29.1201C184.572 29.3333 185.071 29.4352 185.606 29.4352C186.141 29.4352 186.639 29.3333 187.101 29.1201C187.562 28.907 187.959 28.6011 188.309 28.2119C188.651 27.8226 188.919 27.3592 189.112 26.8217C189.306 26.2841 189.408 25.691 189.408 25.0422C189.408 24.3934 189.315 23.8281 189.112 23.2905C188.919 22.753 188.651 22.2896 188.309 21.9003C187.968 21.5111 187.562 21.2145 187.101 20.9921C186.639 20.7789 186.141 20.677 185.606 20.677C185.071 20.677 184.572 20.7882 184.111 21.0106C183.65 21.2331 183.243 21.5389 182.902 21.9282C182.561 22.3174 182.293 22.7808 182.099 23.3184C181.905 23.8559 181.813 24.4398 181.813 25.07Z" fill="#263238"/>
<path d="M204.375 32.6049C203.231 32.6049 202.234 32.3547 201.385 31.8449C200.536 31.3352 199.872 30.6494 199.392 29.7782V38.2584H195.682V17.7668H198.921V20.2692C199.457 19.4165 200.149 18.7492 200.998 18.258C201.846 17.7668 202.825 17.5166 203.932 17.5166C204.91 17.5166 205.814 17.7205 206.645 18.119C207.475 18.5175 208.186 19.0551 208.795 19.7317C209.395 20.4082 209.865 21.2053 210.207 22.1228C210.548 23.0403 210.714 24.0135 210.714 25.0237C210.714 26.0339 210.557 27.0719 210.244 27.9987C209.93 28.9255 209.487 29.7318 208.924 30.4177C208.361 31.1035 207.697 31.641 206.922 32.0303C206.147 32.4195 205.298 32.6142 204.375 32.6142V32.6049ZM203.129 29.4353C203.683 29.4353 204.19 29.3148 204.661 29.0738C205.132 28.8328 205.528 28.5085 205.861 28.1007C206.193 27.6929 206.451 27.2202 206.636 26.6827C206.82 26.1451 206.912 25.589 206.912 25.0144C206.912 24.4027 206.811 23.8374 206.608 23.3091C206.405 22.7808 206.128 22.3267 205.759 21.9282C205.399 21.5389 204.975 21.2331 204.486 21.0106C203.997 20.7882 203.461 20.677 202.898 20.677C202.548 20.677 202.188 20.7326 201.819 20.8531C201.45 20.9736 201.108 21.1404 200.795 21.3721C200.481 21.5945 200.204 21.854 199.946 22.1506C199.696 22.4472 199.503 22.7716 199.373 23.1237V26.5436C199.706 27.3778 200.213 28.0729 200.896 28.6197C201.579 29.1665 202.317 29.4353 203.111 29.4353H203.129Z" fill="#263238"/>
<path d="M218.715 32.6049C217.497 32.6049 216.306 32.4102 215.144 32.021C213.981 31.6317 212.984 31.0756 212.154 30.3527L213.538 28.0172C214.424 28.6474 215.282 29.1294 216.122 29.4445C216.961 29.7688 217.801 29.9264 218.622 29.9264C219.361 29.9264 219.942 29.7874 220.366 29.5093C220.791 29.2313 221.003 28.8328 221.003 28.3138C221.003 27.7948 220.754 27.4148 220.256 27.1738C219.757 26.9328 218.945 26.6548 217.82 26.3397C216.878 26.0802 216.076 25.8299 215.411 25.589C214.747 25.348 214.212 25.07 213.806 24.7641C213.4 24.4583 213.104 24.1061 212.92 23.7076C212.735 23.309 212.643 22.8364 212.643 22.271C212.643 21.5296 212.781 20.8623 213.067 20.2691C213.353 19.676 213.759 19.1755 214.267 18.7585C214.784 18.3414 215.384 18.0263 216.076 17.7946C216.768 17.5722 217.524 17.4609 218.336 17.4609C219.425 17.4609 220.449 17.6185 221.4 17.9336C222.35 18.2487 223.218 18.7585 224.011 19.4628L222.517 21.715C221.778 21.1589 221.059 20.7511 220.366 20.4916C219.674 20.2321 218.982 20.1023 218.299 20.1023C217.672 20.1023 217.146 20.2321 216.722 20.4916C216.297 20.7511 216.085 21.1681 216.085 21.7428C216.085 22.0023 216.131 22.2154 216.242 22.3822C216.343 22.5491 216.509 22.6974 216.722 22.8271C216.943 22.9569 217.238 23.0773 217.598 23.1978C217.958 23.3183 218.401 23.4481 218.945 23.5778C219.942 23.8373 220.791 24.0968 221.511 24.3563C222.221 24.6158 222.803 24.9124 223.255 25.2461C223.707 25.5797 224.039 25.969 224.251 26.4046C224.464 26.8402 224.565 27.3684 224.565 27.9709C224.565 29.3981 224.039 30.5288 222.987 31.3537C221.935 32.1785 220.505 32.5863 218.696 32.5863L218.715 32.6049Z" fill="#263238"/>
<path d="M226.909 32.3268V28.323H229.954V32.3268H226.909Z" fill="#263238"/>
<path d="M233.138 32.3268V28.323H236.183V32.3268H233.138Z" fill="#263238"/>
<path d="M239.366 32.3268V28.323H242.412V32.3268H239.366Z" fill="#263238"/>
<path d="M161.06 363.843V367.208H147.412V347.467H160.811V350.831H151.233V355.586H159.51V358.7H151.233V363.843H161.06Z" fill="#263238"/>
<path d="M164.05 367.208V347.467H172.742C173.647 347.467 174.477 347.661 175.243 348.041C176.009 348.421 176.664 348.922 177.218 349.543C177.772 350.164 178.205 350.868 178.519 351.656C178.833 352.444 178.99 353.231 178.99 354.038C178.99 355.317 178.676 356.475 178.03 357.523C177.393 358.57 176.535 359.33 175.446 359.793L179.931 367.217H175.64L171.626 360.6H167.861V367.217H164.041L164.05 367.208ZM167.87 357.226H172.659C173.01 357.226 173.342 357.143 173.647 356.976C173.951 356.809 174.219 356.587 174.44 356.29C174.662 356.003 174.837 355.669 174.966 355.28C175.096 354.89 175.16 354.473 175.16 354.029C175.16 353.584 175.086 353.139 174.939 352.75C174.791 352.36 174.597 352.017 174.348 351.73C174.099 351.443 173.813 351.22 173.49 351.063C173.167 350.905 172.844 350.831 172.503 350.831H167.879V357.226H167.87Z" fill="#263238"/>
<path d="M182.459 367.208V347.467H191.152C192.056 347.467 192.886 347.661 193.652 348.041C194.418 348.421 195.073 348.922 195.627 349.543C196.181 350.164 196.614 350.868 196.928 351.656C197.242 352.444 197.399 353.231 197.399 354.038C197.399 355.317 197.085 356.475 196.439 357.523C195.802 358.57 194.944 359.33 193.855 359.793L198.34 367.217H194.049L190.035 360.6H186.27V367.217H182.45L182.459 367.208ZM186.279 357.226H191.069C191.419 357.226 191.751 357.143 192.056 356.976C192.361 356.809 192.628 356.587 192.85 356.29C193.071 356.003 193.246 355.669 193.376 355.28C193.505 354.89 193.569 354.473 193.569 354.029C193.569 353.584 193.496 353.139 193.348 352.75C193.2 352.36 192.997 352.017 192.757 351.73C192.508 351.443 192.222 351.22 191.899 351.063C191.576 350.905 191.253 350.831 190.912 350.831H186.289V357.226H186.279Z" fill="#263238"/>
<path d="M209.247 367.347C207.808 367.347 206.506 367.069 205.335 366.503C204.163 365.938 203.157 365.187 202.317 364.251C201.477 363.315 200.822 362.249 200.361 361.044C199.899 359.839 199.669 358.607 199.669 357.346C199.669 356.086 199.909 354.77 200.398 353.565C200.887 352.36 201.56 351.294 202.419 350.368C203.277 349.441 204.301 348.709 205.482 348.153C206.663 347.606 207.946 347.337 209.33 347.337C210.714 347.337 212.043 347.634 213.215 348.217C214.387 348.801 215.383 349.571 216.214 350.507C217.044 351.452 217.69 352.527 218.152 353.732C218.613 354.937 218.844 356.16 218.844 357.402C218.844 358.718 218.604 359.969 218.124 361.165C217.644 362.36 216.98 363.417 216.131 364.334C215.282 365.252 214.267 365.984 213.086 366.531C211.905 367.078 210.622 367.356 209.238 367.356L209.247 367.347ZM203.544 357.337C203.544 358.19 203.674 359.015 203.932 359.812C204.19 360.609 204.569 361.313 205.048 361.925C205.538 362.536 206.137 363.028 206.848 363.398C207.558 363.769 208.361 363.954 209.266 363.954C210.17 363.954 211 363.76 211.711 363.38C212.421 363 213.021 362.49 213.51 361.869C213.999 361.239 214.368 360.525 214.618 359.738C214.867 358.95 214.987 358.153 214.987 357.328C214.987 356.503 214.857 355.65 214.59 354.853C214.322 354.056 213.944 353.352 213.455 352.74C212.966 352.128 212.366 351.637 211.655 351.276C210.945 350.914 210.151 350.738 209.266 350.738C208.38 350.738 207.521 350.924 206.802 351.313C206.082 351.693 205.482 352.193 205.002 352.814C204.522 353.435 204.163 354.14 203.913 354.927C203.664 355.715 203.535 356.512 203.535 357.328L203.544 357.337Z" fill="#263238"/>
<path d="M221.788 367.208V347.467H230.48C231.384 347.467 232.215 347.661 232.99 348.041C233.756 348.421 234.411 348.922 234.965 349.543C235.518 350.164 235.952 350.868 236.266 351.656C236.58 352.444 236.736 353.231 236.736 354.038C236.736 355.317 236.423 356.475 235.777 357.523C235.14 358.57 234.282 359.33 233.193 359.793L237.678 367.217H233.387L229.373 360.6H225.608V367.217H221.788V367.208ZM225.608 357.226H230.397C230.748 357.226 231.08 357.143 231.384 356.976C231.689 356.809 231.957 356.587 232.169 356.29C232.39 356.003 232.566 355.669 232.695 355.28C232.824 354.89 232.889 354.473 232.889 354.029C232.889 353.584 232.815 353.139 232.667 352.75C232.519 352.36 232.326 352.017 232.076 351.73C231.827 351.443 231.541 351.22 231.218 351.063C230.895 350.905 230.572 350.831 230.24 350.831H225.617V357.226H225.608Z" fill="#263238"/>
<path d="M347.571 54.3105C345.476 74.4684 327.491 89.1025 307.43 86.9987C299.319 86.146 292.112 82.6891 286.529 77.5268L268.249 80.2238L277.394 64.3477C275.179 58.9259 274.238 52.8925 274.884 46.6736C276.979 26.5157 294.963 11.8815 315.024 13.9854C335.095 16.0892 349.665 34.1526 347.571 54.3012V54.3105Z" fill="white"/>
<path d="M347.571 54.3104C346.805 61.0112 344.369 67.5729 340.198 72.9113C339.238 74.3108 338.001 75.4785 336.885 76.739C335.611 77.8511 334.43 79.0652 333.028 80.0198C330.352 82.0866 327.353 83.7085 324.215 84.9504C321.087 86.2757 317.728 86.906 314.378 87.3045C312.69 87.3972 310.992 87.5547 309.303 87.3972C307.605 87.3601 305.917 87.1747 304.246 86.8689C297.556 85.6548 291.226 82.5129 286.169 77.9067L286.603 78.0365L268.341 80.854L267.013 81.0579L267.686 79.8808L276.776 63.9769L276.729 64.6072C272.3 54.1343 273.297 41.6596 278.981 31.9004C281.814 27.0161 285.763 22.7992 290.423 19.6573C295.083 16.5062 300.482 14.5321 306.018 13.7814C311.555 13.04 317.258 13.5497 322.536 15.3107C327.814 17.0994 332.659 20.1022 336.626 23.9855C344.691 31.6872 348.752 43.2444 347.561 54.2919L347.571 54.3104ZM347.571 54.3104C348.678 43.2537 344.544 31.7706 336.479 24.1709C332.474 20.371 327.62 17.4886 322.388 15.8204C317.147 14.1707 311.536 13.7814 306.138 14.597C300.74 15.4311 295.517 17.4516 291.051 20.5841C286.594 23.726 282.838 27.841 280.116 32.5584C277.348 37.2666 275.917 42.6698 275.475 48.0823C275.133 53.5226 276.019 59.0185 278.049 64.0696L278.178 64.394L278.003 64.6906L268.803 80.5296L268.148 79.5564L286.446 76.9799L286.695 76.9429L286.871 77.1097C291.706 81.6695 297.824 84.8485 304.366 86.1645C306 86.4982 307.661 86.7021 309.322 86.767C310.983 86.943 312.653 86.8226 314.323 86.767C317.636 86.424 320.967 85.8587 324.086 84.6075C327.214 83.4305 330.232 81.892 332.898 79.8345C334.301 78.8984 335.482 77.6936 336.756 76.6C337.881 75.3488 339.118 74.1995 340.078 72.8093C344.267 67.5266 346.749 60.9834 347.561 54.2919L347.571 54.3104Z" fill="#263238"/>
<path d="M287.84 44.7459C288.301 45.8859 288.984 46.9054 289.777 47.8322C289.657 50.3438 291.411 52.6701 293.127 54.3105C295.157 56.2382 297.519 57.7767 300.039 58.9816C304.2 60.9649 308.722 62.1234 313.262 62.9019C313.013 66.5165 311.684 70.0939 310.364 73.4489C310.327 73.5323 310.466 73.5787 310.503 73.486C311.841 70.1588 313.28 66.5906 313.696 62.9668C314.591 63.1151 315.486 63.2541 316.381 63.3839C317.747 63.5785 319.158 63.7268 320.579 63.8102C323.034 64.1068 325.525 64.2643 327.98 64.1531C330.85 64.0234 333.775 63.3375 335.971 61.3727C338.075 59.4913 338.887 56.8036 338.26 54.0603C337.992 52.8832 337.521 51.7525 336.949 50.6775C336.599 49.9175 336.202 49.1946 335.768 48.5273C334.292 46.2473 332.326 44.3474 330.167 42.7255C329.595 42.2992 329.014 41.8821 328.423 41.4929C328.349 41.4187 328.266 41.3353 328.192 41.2612C326.079 39.2593 323.578 37.693 320.976 36.414C315.495 33.717 309.442 32.2527 303.342 32.1044C300.279 32.0302 297.178 32.2897 294.179 32.9014C291.54 33.439 288.947 34.5233 287.757 37.1184C286.908 38.9534 286.861 41.048 287.378 42.985C287.47 43.5782 287.618 44.162 287.858 44.7367L287.84 44.7459ZM318.42 62.5127C316.87 62.2903 315.329 62.0122 313.788 61.6693C313.788 61.4839 313.806 61.2986 313.806 61.104C314.148 61.1596 314.498 61.2059 314.849 61.243C315.154 61.2708 315.477 61.2986 315.8 61.3078C318.669 61.7805 321.576 61.9844 324.492 61.8547C327.085 61.7434 329.669 61.3635 332.188 60.7147C328.561 62.6888 323.938 62.939 319.98 62.661C319.463 62.6239 318.946 62.5683 318.429 62.5127H318.42ZM309.017 35.895C309.82 36.0525 310.623 36.2194 311.426 36.414C309.331 36.4511 307.255 36.7569 305.298 37.4427C303.167 38.1842 301.127 39.4354 299.753 41.2519C298.673 41.5577 297.593 41.9655 296.624 42.5401C296.394 42.5587 296.163 42.5772 295.932 42.6143C295.102 42.7348 294.234 42.9572 293.422 43.3001C293.422 43.1889 293.395 43.087 293.395 42.9757C293.385 40.427 295.416 38.7125 297.538 37.7208C299.891 36.6272 302.595 36.1267 305.169 35.9413C306.452 35.8486 307.734 35.8394 309.017 35.9043V35.895ZM294.124 47.4429C294.364 47.7673 294.622 48.0824 294.89 48.379C294.622 48.6014 294.382 48.8424 294.17 49.1204C294.068 48.5643 294.041 48.0083 294.114 47.4429H294.124ZM313.299 61.0205C313.299 61.1966 313.299 61.3727 313.299 61.5581C311.13 61.0576 308.999 60.4367 306.913 59.6767C308.214 60.0011 309.525 60.2976 310.844 60.5571C311.656 60.7147 312.478 60.8815 313.29 61.0298L313.299 61.0205ZM312.699 57.4987C307.153 56.368 301.672 54.4681 296.717 51.7155C296.071 51.3633 295.434 50.9833 294.806 50.5755C294.973 50.0658 295.323 49.5931 295.757 49.2409C297.898 51.2057 300.555 52.6145 303.204 53.773C306.046 55.0149 309.017 55.9231 311.979 56.8407C312.182 56.9055 312.339 56.8407 312.441 56.7109C312.459 56.7573 312.478 56.7943 312.496 56.8314C312.579 57.0538 312.634 57.267 312.708 57.4894L312.699 57.4987ZM297.39 49.3614C297.141 49.1668 296.883 48.9629 296.634 48.7497C297.704 48.3326 298.94 48.4439 300.048 48.6663C302.622 49.1853 305.345 49.936 307.651 51.215C309.608 52.2993 311.139 53.9027 312.09 55.8953C306.978 54.3105 301.709 52.6515 297.39 49.3707V49.3614ZM312.994 58.6387C313.059 58.963 313.114 59.2782 313.16 59.6025C313.142 59.6025 313.123 59.6025 313.105 59.5933C312.699 59.5191 312.302 59.4264 311.896 59.343C311.333 59.1947 310.77 59.0372 310.217 58.8611C307.356 57.9806 304.588 56.8129 301.949 55.4134C304.92 56.609 307.993 57.5636 311.121 58.2587C311.739 58.3977 312.367 58.5182 312.994 58.6387ZM313.659 58.7684C315.357 59.0743 317.064 59.2967 318.771 59.445C318.06 59.825 317.211 59.9547 316.418 59.964C315.523 59.9825 314.637 59.862 313.76 59.7138C313.732 59.3986 313.705 59.0835 313.659 58.7684ZM301.773 56.5534C301.635 56.4978 301.497 56.4514 301.367 56.3958C300.168 55.8861 298.996 55.2744 297.898 54.57C297.575 54.3661 297.224 54.153 296.883 53.9212C296.726 53.7637 296.569 53.5969 296.421 53.43C296.329 53.3281 296.246 53.2076 296.154 53.0964C297.944 54.3661 299.826 55.5246 301.783 56.5441L301.773 56.5534ZM294.456 46.2473C294.89 45.1723 295.655 44.3289 296.587 43.6708C297.409 43.5874 298.248 43.5782 299.079 43.643C299.254 44.1898 299.651 44.6903 300.205 45.1352C301.321 46.0342 302.521 46.8405 303.748 47.5819C308.224 50.2882 313.262 52.0398 318.439 52.7442C319.241 53.773 319.878 54.9037 320.146 56.127C320.321 56.9519 320.238 57.8231 319.814 58.5182C317.682 58.3606 315.55 58.0548 313.456 57.6563C313.382 57.3319 313.29 56.9982 313.188 56.6738C312.348 54.051 310.66 51.9286 308.307 50.5199C305.926 49.0834 303.084 48.2122 300.389 47.6097C298.894 47.2761 297.252 47.1278 295.831 47.8044C295.794 47.8229 295.766 47.8414 295.729 47.86C295.259 47.3688 294.834 46.822 294.465 46.2473H294.456ZM330.222 50.974C329.807 51.3355 329.29 51.5394 328.737 51.6691C327.482 49.3892 325.387 47.4985 323.348 45.9508C319.14 42.7533 313.982 40.8441 308.731 40.427C306.35 40.2417 303.933 40.3807 301.589 40.8348C301.653 40.7792 301.718 40.7143 301.783 40.668C302.632 39.9173 303.61 39.3334 304.643 38.87C308.63 37.1091 313.354 37.2667 317.58 38.2027C317.682 38.2398 317.793 38.2769 317.894 38.3139C322.25 39.8895 326.43 42.0953 330.038 45.0332C330.075 45.1074 330.13 45.1723 330.167 45.2371C331.071 46.8405 331.856 49.5468 330.222 50.9648V50.974ZM300.482 42.0026C302.549 41.4558 304.708 41.2148 306.839 41.2426C311.702 41.2982 316.538 42.7162 320.681 45.2649C322.776 46.5532 324.686 48.138 326.328 49.9823C326.799 50.5106 327.297 51.1501 327.722 51.8452C327.297 51.8916 326.873 51.9194 326.485 51.9472C325.11 52.0584 323.735 52.0955 322.36 52.0491C321.318 52.012 320.275 51.9194 319.232 51.7989C319.205 51.7618 319.177 51.7247 319.149 51.6877C315.652 47.4429 310.337 45.2001 305.197 43.7079C303.554 43.2352 301.856 42.8182 300.149 42.6143C300.223 42.4104 300.343 42.1972 300.491 42.0026H300.482ZM301.644 43.986C304.228 44.4957 306.784 45.2927 309.229 46.2937C311.564 47.2483 313.843 48.4717 315.8 50.0936C316.325 50.5292 316.851 51.0111 317.359 51.5208C313.742 50.9091 310.208 49.7692 306.932 48.1195C305.76 47.5263 304.616 46.8776 303.508 46.1639C302.899 45.7747 302.309 45.3669 301.727 44.9406C301.257 44.5884 300.675 44.2269 300.306 43.7543C300.758 43.8191 301.211 43.884 301.644 43.9767V43.986ZM327.888 56.9612C326.504 58.5274 324.021 58.6943 322.084 58.6387C321.807 58.6387 321.521 58.6109 321.244 58.5923C322.01 56.7109 321.198 54.6256 320.072 52.9296C320.072 52.9296 320.081 52.9296 320.09 52.9296C322.739 53.1705 325.572 53.2354 328.229 52.7813C328.857 54.1808 329.004 55.7007 327.897 56.9519L327.888 56.9612ZM293.902 45.2186C293.791 44.9684 293.699 44.7089 293.625 44.4494C294.004 44.2733 294.391 44.1342 294.788 44.023C294.65 44.1713 294.511 44.3103 294.391 44.4679C294.207 44.7089 294.041 44.9684 293.902 45.2186ZM334.845 58.7499C334.236 59.0372 333.554 59.2133 332.926 59.3986C330.481 60.103 327.952 60.5386 325.415 60.7147C323.385 60.8537 321.355 60.8259 319.334 60.6498C319.832 60.3903 320.266 60.0474 320.635 59.5933C320.662 59.5933 320.699 59.5933 320.727 59.5933C323.006 59.723 325.636 59.7694 327.629 58.4533C328.608 57.8138 329.337 56.8499 329.576 55.6914C329.798 54.6349 329.595 53.5598 329.189 52.5774C330.213 52.2993 331.154 51.7433 331.671 50.7794C332.179 49.8341 332.243 48.7497 332.096 47.7024C332.04 47.3224 331.948 46.9517 331.837 46.5903C333.452 48.0639 335.03 49.7228 336.036 51.6413C336.673 52.8462 337.023 54.2271 336.719 55.5802C336.46 56.7387 335.814 57.7675 334.993 58.6201C334.947 58.6665 334.892 58.7128 334.845 58.7591V58.7499ZM292.896 49.2224C292.223 48.62 291.568 47.9805 290.977 47.3039C291.189 46.2659 291.891 45.4688 292.758 44.9035C292.924 45.4132 293.155 45.9044 293.422 46.3771C293.118 47.4058 293.109 48.4902 293.321 49.556C293.173 49.4448 293.035 49.3336 292.887 49.2224H292.896ZM288.735 43.8006C288.273 42.3919 288.227 40.8812 288.901 39.4539C289.934 37.2481 292.149 35.8116 294.437 35.1999C297.233 34.4584 300.205 34.7272 303.047 35.0238C303.194 35.0423 303.342 35.0609 303.49 35.0794C301.312 35.3667 299.19 35.9135 297.215 36.8032C294.982 37.8042 292.878 39.5373 292.49 42.1045C292.407 42.6699 292.426 43.2167 292.5 43.7635C291.457 44.3567 290.589 45.1723 290.128 46.2659C289.565 45.4966 289.085 44.6811 288.725 43.8099L288.735 43.8006ZM321.493 37.8135C319.112 36.8311 316.648 36.0618 314.166 35.5521C312.745 35.2648 311.269 35.0516 309.783 34.9404C308.196 34.616 306.609 34.3472 305.031 34.1433C299.66 33.4297 292.776 32.6419 288.91 37.3686C288.781 37.5262 288.679 37.693 288.569 37.8505C288.772 37.3408 289.03 36.8589 289.362 36.4325C290.174 35.3945 291.374 34.755 292.601 34.3565C295.249 33.4946 298.175 33.2258 300.943 33.1331C306.572 32.9385 312.228 33.9116 317.479 35.9691C318.845 36.5067 320.192 37.1184 321.493 37.8135ZM329.696 62.9854C329.54 63.0039 329.383 63.0224 329.226 63.041C330.721 62.6239 332.16 62.0215 333.507 61.1874C334.2 60.761 334.855 60.2513 335.445 59.6767C335.833 59.482 336.202 59.2596 336.516 58.963C336.58 58.9074 336.626 58.8333 336.682 58.7777C336.571 58.9908 336.451 59.204 336.313 59.4079C334.799 61.5952 332.234 62.6332 329.696 62.9854ZM291.881 51.0296C291.531 50.455 291.235 49.8155 291.06 49.1482C291.752 49.7785 292.49 50.3531 293.247 50.8906C293.293 50.9277 293.349 50.974 293.395 51.0204C293.404 51.0296 293.422 51.0389 293.432 51.0482C293.376 52.1881 293.976 53.2076 294.816 53.9861C295.886 54.9778 297.141 55.7934 298.415 56.4978C298.876 56.8314 299.356 57.1558 299.845 57.4524C300.435 57.8138 301.044 58.1475 301.653 58.4626C300.195 57.8323 298.774 57.1094 297.436 56.2475C295.332 54.8944 293.182 53.2076 291.881 51.0389V51.0296Z" fill="#263238"/>
</g>
<defs>
<clipPath id="clip0_7297_68823">
<rect width="379" height="373" fill="white"/>
</clipPath>
</defs>
</svg>
