<svg width="440" height="373" viewBox="0 0 440 373" fill="none" xmlns="http://www.w3.org/2000/svg">
<g clip-path="url(#clip0_7297_69125)">
<path d="M0.210451 206.543C0.210451 206.543 3.69285 277.894 63.9557 323.701C124.218 369.498 206.686 370.407 273.484 372.895C340.281 375.392 390.9 335.966 397.673 278.497C404.447 221.027 353.187 205.778 324.447 141.458C295.708 77.1486 297.813 55.6514 238.621 17.3641C179.439 -20.9328 88.2942 6.45769 41.4253 76.565C-5.44368 146.672 0.210451 206.543 0.210451 206.543Z" fill="#066235" fill-opacity="0.05"/>
<path d="M109.39 274.412C109.39 274.412 118.497 272.604 126.304 278.621C134.12 284.629 140.062 299.908 143.133 321.3C146.204 342.682 147.945 351.953 165.969 354.957C184.003 357.961 227.275 356.755 253.125 356.162C278.975 355.559 277.77 331.517 256.129 329.116C234.488 326.715 219.516 332.484 196.947 327.499C174.379 322.505 217.057 315.894 249.509 320.707C281.96 325.519 296.397 326.715 313.818 324.916" stroke="#263238" stroke-width="2.40133" stroke-linecap="round" stroke-linejoin="round"/>
<path d="M109.39 242.41C109.39 242.41 126.907 242.553 131.719 260.587C136.531 278.621 138.33 303.869 138.933 323.701C139.535 343.534 140.138 360.362 162.975 365.174C185.811 369.986 247.729 368.178 264.558 364.572C281.386 360.965 300.023 344.739 286.198 341.132C272.374 337.525 253.144 341.132 260.348 345.944C267.562 350.757 286.791 349.551 309.637 346.547" stroke="#263238" stroke-width="2.40133" stroke-linecap="round" stroke-linejoin="round"/>
<path d="M112.987 305.16C112.987 305.16 123.692 304.232 127.873 316.325C132.064 328.427 126.945 331.211 129.27 337.267C131.595 343.314 146.28 337.669 146.213 342.682C146.156 347.255 140.349 348.547 106.94 346.576C63.2573 344.002 34.3553 350.766 36.6801 354.947C39.0049 359.138 73.9055 355.875 65.5247 362.39C57.1536 368.905 36.6801 361.462 20.8562 360.993C5.0323 360.525 2.24829 364.246 2.24829 364.246" stroke="#263238" stroke-width="2.40133" stroke-linecap="round" stroke-linejoin="round"/>
<path d="M114.278 134.254H9.09825C7.21724 134.254 5.69238 135.779 5.69238 137.66V336.923C5.69238 338.804 7.21724 340.329 9.09825 340.329H114.278C116.159 340.329 117.684 338.804 117.684 336.923V137.66C117.684 135.779 116.159 134.254 114.278 134.254Z" fill="#263238" stroke="#263238" stroke-width="1.20545" stroke-linecap="round" stroke-linejoin="round"/>
<path d="M114.948 165.127H8.36157V244.065H114.948V165.127Z" fill="#616161"/>
<path d="M114.948 256.894H8.36157V335.832H114.948V256.894Z" fill="#616161"/>
<path d="M101.736 266.509H41.2244V328.217H101.736V266.509Z" fill="#39AE49" stroke="#263238" stroke-width="1.20545" stroke-linecap="round" stroke-linejoin="round"/>
<path d="M101.736 173.938H41.2244V189.169H101.736V173.938Z" fill="#39AE49" stroke="#263238" stroke-width="1.20545" stroke-linecap="round" stroke-linejoin="round"/>
<path d="M101.736 203.195H41.2244V218.425H101.736V203.195Z" fill="#39AE49" stroke="#263238" stroke-width="1.20545" stroke-linecap="round" stroke-linejoin="round"/>
<path d="M99.7077 166.897L98.5406 170.093H44.9364L43.7597 166.897H32.4036V180.97H43.7597L44.9364 177.775H98.5406L99.7077 180.97H112.566V166.897H99.7077Z" fill="#263238" stroke="#263238" stroke-width="1.20545" stroke-linecap="round" stroke-linejoin="round"/>
<path d="M99.7077 182.252L98.5406 185.457H44.9364L43.7597 182.252H32.4036V196.335H43.7597L44.9364 193.13H98.5406L99.7077 196.335H112.566V182.252H99.7077Z" fill="#263238" stroke="#263238" stroke-width="1.20545" stroke-linecap="round" stroke-linejoin="round"/>
<path d="M99.7077 197.617L98.5406 200.812H44.9364L43.7597 197.617H32.4036V211.69H43.7597L44.9364 208.495H98.5406L99.7077 211.69H112.566V197.617H99.7077Z" fill="#263238" stroke="#263238" stroke-width="1.20545" stroke-linecap="round" stroke-linejoin="round"/>
<path d="M99.7077 212.972L98.5406 216.177H44.9364L43.7597 212.972H32.4036V227.055H43.7597L44.9364 223.85H98.5406L99.7077 227.055H112.566V212.972H99.7077Z" fill="#263238" stroke="#263238" stroke-width="1.20545" stroke-linecap="round" stroke-linejoin="round"/>
<path d="M99.7077 228.337L98.5406 231.532H44.9364L43.7597 228.337H32.4036V242.41H43.7597L44.9364 239.214H98.5406L99.7077 242.41H112.566V228.337H99.7077Z" fill="#263238" stroke="#263238" stroke-width="1.20545" stroke-linecap="round" stroke-linejoin="round"/>
<path d="M99.7077 259.047L98.5406 262.252H44.9364L43.7597 259.047H32.4036V273.13H43.7597L44.9364 269.934H98.5406L99.7077 273.13H112.566V259.047H99.7077Z" fill="#263238" stroke="#263238" stroke-width="1.20545" stroke-linecap="round" stroke-linejoin="round"/>
<path d="M99.7077 274.412L98.5406 277.607H44.9364L43.7597 274.412H32.4036V288.494H43.7597L44.9364 285.289H98.5406L99.7077 288.494H112.566V274.412H99.7077Z" fill="#263238" stroke="#263238" stroke-width="1.20545" stroke-linecap="round" stroke-linejoin="round"/>
<path d="M99.7077 289.767L98.5406 292.972H44.9364L43.7597 289.767H32.4036V303.85H43.7597L44.9364 300.654H98.5406L99.7077 303.85H112.566V289.767H99.7077Z" fill="#263238" stroke="#263238" stroke-width="1.20545" stroke-linecap="round" stroke-linejoin="round"/>
<path d="M99.7077 305.131L98.5406 308.327H44.9364L43.7597 305.131H32.4036V319.214H43.7597L44.9364 316.009H98.5406L99.7077 319.214H112.566V305.131H99.7077Z" fill="#263238" stroke="#263238" stroke-width="1.20545" stroke-linecap="round" stroke-linejoin="round"/>
<path d="M99.7077 320.487L98.5406 323.692H44.9364L43.7597 320.487H32.4036V334.569H43.7597L44.9364 331.374H98.5406L99.7077 334.569H112.566V320.487H99.7077Z" fill="#263238" stroke="#263238" stroke-width="1.20545" stroke-linecap="round" stroke-linejoin="round"/>
<path d="M112.547 246.524H10.5142V256.139H112.547V246.524Z" fill="white"/>
<path d="M19.115 251.221C19.115 249.738 17.9095 248.533 16.4266 248.533C14.9437 248.533 13.7383 249.738 13.7383 251.221C13.7383 252.704 14.9437 253.909 16.4266 253.909C17.9095 253.909 19.115 252.704 19.115 251.221Z" fill="#263238" stroke="#263238" stroke-width="1.20545" stroke-linecap="round" stroke-linejoin="round"/>
<path d="M25.391 253.909C26.8757 253.909 28.0793 252.706 28.0793 251.221C28.0793 249.736 26.8757 248.533 25.391 248.533C23.9062 248.533 22.7026 249.736 22.7026 251.221C22.7026 252.706 23.9062 253.909 25.391 253.909Z" fill="#39AE49" stroke="#263238" stroke-width="1.20545" stroke-linecap="round" stroke-linejoin="round"/>
<path d="M37.0339 251.221C37.0339 249.738 35.8285 248.533 34.3456 248.533C32.8627 248.533 31.6572 249.738 31.6572 251.221C31.6572 252.704 32.8627 253.909 34.3456 253.909C35.8285 253.909 37.0339 252.704 37.0339 251.221Z" fill="#263238" stroke="#263238" stroke-width="1.20545" stroke-linecap="round" stroke-linejoin="round"/>
<path d="M112.547 154.355H10.5142V163.97H112.547V154.355Z" fill="white"/>
<path d="M19.115 159.062C19.115 157.579 17.9095 156.374 16.4266 156.374C14.9437 156.374 13.7383 157.579 13.7383 159.062C13.7383 160.545 14.9437 161.75 16.4266 161.75C17.9095 161.75 19.115 160.545 19.115 159.062Z" fill="white" stroke="#263238" stroke-width="1.20545" stroke-linecap="round" stroke-linejoin="round"/>
<path d="M28.0793 159.062C28.0793 157.579 26.8739 156.374 25.391 156.374C23.9081 156.374 22.7026 157.579 22.7026 159.062C22.7026 160.545 23.9081 161.75 25.391 161.75C26.8739 161.75 28.0793 160.545 28.0793 159.062Z" fill="#39AE49" stroke="#263238" stroke-width="1.20545" stroke-linecap="round" stroke-linejoin="round"/>
<path d="M37.0339 159.062C37.0339 157.579 35.8285 156.374 34.3456 156.374C32.8627 156.374 31.6572 157.579 31.6572 159.062C31.6572 160.545 32.8627 161.75 34.3456 161.75C35.8285 161.75 37.0339 160.545 37.0339 159.062Z" fill="white" stroke="#263238" stroke-width="1.20545" stroke-linecap="round" stroke-linejoin="round"/>
<path d="M112.547 141.985H10.5142V151.6H112.547V141.985Z" fill="white"/>
<path d="M19.115 146.692C19.115 145.209 17.9095 144.003 16.4266 144.003C14.9437 144.003 13.7383 145.209 13.7383 146.692C13.7383 148.175 14.9437 149.38 16.4266 149.38C17.9095 149.38 19.115 148.175 19.115 146.692Z" fill="#39AE49" stroke="#263238" stroke-width="1.20545" stroke-linecap="round" stroke-linejoin="round"/>
<path d="M28.0793 146.692C28.0793 145.209 26.8739 144.003 25.391 144.003C23.9081 144.003 22.7026 145.209 22.7026 146.692C22.7026 148.175 23.9081 149.38 25.391 149.38C26.8739 149.38 28.0793 148.175 28.0793 146.692Z" fill="#263238" stroke="#263238" stroke-width="1.20545" stroke-linecap="round" stroke-linejoin="round"/>
<path d="M37.0339 146.692C37.0339 145.209 35.8285 144.003 34.3456 144.003C32.8627 144.003 31.6572 145.209 31.6572 146.692C31.6572 148.175 32.8627 149.38 34.3456 149.38C35.8285 149.38 37.0339 148.175 37.0339 146.692Z" fill="#263238" stroke="#263238" stroke-width="1.20545" stroke-linecap="round" stroke-linejoin="round"/>
<path d="M27.6009 167.127H10.7725V174.34H27.6009V167.127Z" fill="#263238" stroke="#263238" stroke-width="1.20545" stroke-linecap="round" stroke-linejoin="round"/>
<path d="M27.6009 182.759H10.7725V189.973H27.6009V182.759Z" fill="#263238" stroke="#263238" stroke-width="1.20545" stroke-linecap="round" stroke-linejoin="round"/>
<path d="M27.6009 198.382H10.7725V205.596H27.6009V198.382Z" fill="#39AE49" stroke="#263238" stroke-width="1.20545" stroke-linecap="round" stroke-linejoin="round"/>
<path d="M27.6009 214.015H10.7725V221.228H27.6009V214.015Z" fill="#39AE49" stroke="#263238" stroke-width="1.20545" stroke-linecap="round" stroke-linejoin="round"/>
<path d="M27.6009 229.638H10.7725V236.852H27.6009V229.638Z" fill="#39AE49" stroke="#263238" stroke-width="1.20545" stroke-linecap="round" stroke-linejoin="round"/>
<path d="M27.6009 258.894H10.7725V266.108H27.6009V258.894Z" fill="#39AE49" stroke="#263238" stroke-width="1.20545" stroke-linecap="round" stroke-linejoin="round"/>
<path d="M27.6009 274.526H10.7725V281.74H27.6009V274.526Z" fill="#263238" stroke="#263238" stroke-width="1.20545" stroke-linecap="round" stroke-linejoin="round"/>
<path d="M27.6009 290.149H10.7725V297.363H27.6009V290.149Z" fill="#39AE49" stroke="#263238" stroke-width="1.20545" stroke-linecap="round" stroke-linejoin="round"/>
<path d="M27.6009 305.782H10.7725V312.996H27.6009V305.782Z" fill="#263238" stroke="#263238" stroke-width="1.20545" stroke-linecap="round" stroke-linejoin="round"/>
<path d="M27.6009 321.405H10.7725V328.619H27.6009V321.405Z" fill="#39AE49" stroke="#263238" stroke-width="1.20545" stroke-linecap="round" stroke-linejoin="round"/>
<path d="M168.543 90.5425C168.543 90.5425 152.422 94.6468 147.945 100.779C143.468 106.902 125.319 148.614 125.319 148.614C125.319 148.614 119.426 155.216 125.788 161.578C132.15 167.94 144.874 170.293 149.591 164.639C154.307 158.985 161.138 132.351 162.076 129.289C163.023 126.228 170.083 100.301 170.791 98.885C171.499 97.4691 172.169 91.3749 168.533 90.533L168.543 90.5425Z" fill="#BDBDBD" stroke="#263238" stroke-width="1.20545" stroke-linecap="round" stroke-linejoin="round"/>
<path d="M168.543 90.5425C168.543 90.5425 152.422 94.6467 147.945 100.779C145.238 104.491 137.517 121.224 131.853 133.862C134.609 133.307 146.089 131.604 159.531 138.378C160.832 133.862 161.779 130.294 162.085 129.289C163.032 126.228 170.093 100.301 170.801 98.8945C171.509 97.4786 172.178 91.3844 168.543 90.5425Z" fill="#263238" stroke="#263238" stroke-width="1.20545" stroke-linecap="round" stroke-linejoin="round"/>
<path d="M215.814 36.2112C215.814 36.2112 220.291 38.5647 222.176 43.0421C224.06 47.5195 224.06 54.3503 224.06 54.3503C224.06 54.3503 254.225 53.4032 265.773 53.1736C277.32 52.9344 285.098 55.7663 285.328 61.4204C285.567 67.0745 282.974 78.1531 276.612 82.3913C270.25 86.6296 250.456 79.7987 240.324 76.9668C230.193 74.135 226.653 75.0821 219.353 74.135C212.054 73.1878 209.93 70.3656 208.753 65.8882C207.576 61.4108 209.93 52.9248 209.93 46.094C209.93 39.2631 208.983 34.7857 215.823 36.1921L215.814 36.2112Z" fill="#BDBDBD" stroke="#263238" stroke-width="1.20545" stroke-linecap="round" stroke-linejoin="round"/>
<path d="M259.879 65.1995C259.879 65.1995 255.641 76.0389 247.863 81.9322C242.286 86.1609 234.756 88.5717 230.958 89.5859C217.373 85.7782 198.172 83.9604 186.95 86.4574C186.95 86.4574 171.269 90.2077 168.552 90.5426C165.826 90.887 159.349 112.69 157.99 127.691C156.632 142.683 161.061 179.832 161.061 182.558C161.061 185.285 162.764 230.604 165.491 243.214C168.217 255.823 171.288 272.862 171.623 275.244C171.968 277.626 174.35 295.354 174.35 301.142C174.35 306.93 171.623 320.908 171.623 320.908C171.623 320.908 159.358 329.087 154.584 333.861C149.81 338.635 158.096 343.648 164.123 344.768C174.407 346.672 186.615 336.588 186.615 336.588C186.615 336.588 200.095 331.202 200.248 331.135C203.874 329.68 204.945 325.787 205.031 322.295C205.242 313.885 205.452 305.476 205.672 297.066C207.815 306.002 209.576 315.033 210.944 324.132C211.508 327.863 212.073 331.776 214.331 334.799C215.469 336.33 217.306 338.186 219.057 338.999C220.415 339.63 221.86 339.496 223.218 340.281C225.735 341.735 226.768 344.873 229.217 346.452C234.02 349.542 240.956 351.13 246.591 350.91C246.591 350.91 260.224 351.589 260.903 344.098C261.582 336.597 243.185 324.333 243.185 324.333C243.185 324.333 240.458 274.574 238.411 258.224C236.364 241.865 230.91 215.287 230.91 203.702C230.91 192.116 236.364 137.593 236.364 137.593C236.364 137.593 236.918 136.158 237.77 133.814C238.066 133.661 238.363 133.489 238.669 133.317C246.447 128.839 268.126 111.399 275.196 100.33C281.96 89.7294 284.409 69.8395 284.61 64.0227" fill="#BDBDBD"/>
<path d="M259.879 65.1995C259.879 65.1995 255.641 76.0389 247.863 81.9322C242.286 86.1609 234.756 88.5717 230.958 89.5859C217.373 85.7782 198.172 83.9604 186.95 86.4574C186.95 86.4574 171.269 90.2077 168.552 90.5426C165.826 90.887 159.349 112.69 157.99 127.691C156.632 142.683 161.061 179.832 161.061 182.558C161.061 185.285 162.764 230.604 165.491 243.213C168.217 255.823 171.288 272.862 171.623 275.244C171.968 277.626 174.35 295.354 174.35 301.142C174.35 306.93 171.623 320.907 171.623 320.907C171.623 320.907 159.358 329.087 154.584 333.861C149.81 338.635 158.096 343.648 164.123 344.768C174.407 346.672 186.615 336.588 186.615 336.588C186.615 336.588 200.095 331.202 200.248 331.135C203.874 329.68 204.945 325.787 205.031 322.295C205.242 313.885 205.452 305.476 205.672 297.066C207.815 306.002 209.576 315.033 210.944 324.132C211.508 327.863 212.073 331.776 214.331 334.799C215.469 336.33 217.306 338.186 219.057 338.999C220.415 339.63 221.86 339.496 223.218 340.281C225.735 341.735 226.768 344.873 229.217 346.452C234.02 349.542 240.956 351.13 246.591 350.91C246.591 350.91 260.224 351.589 260.903 344.098C261.582 336.597 243.185 324.333 243.185 324.333C243.185 324.333 240.458 274.574 238.411 258.224C236.364 241.865 230.91 215.287 230.91 203.702C230.91 192.116 236.364 137.593 236.364 137.593C236.364 137.593 236.918 136.158 237.77 133.814C238.066 133.661 238.363 133.489 238.669 133.317C246.447 128.839 268.126 111.399 275.196 100.33C281.96 89.7294 284.409 69.8395 284.61 64.0227" stroke="#263238" stroke-width="1.20545" stroke-linecap="round" stroke-linejoin="round"/>
<path d="M260.893 344.088C261.573 336.588 243.175 324.323 243.175 324.323C243.175 324.323 242.965 320.486 242.62 314.612C231.083 317.415 220.013 318.429 210.016 318.42C210.341 320.324 210.647 322.227 210.944 324.131C211.508 327.862 212.073 331.775 214.331 334.799C215.469 336.329 217.306 338.185 219.057 338.998C220.415 339.63 221.86 339.496 223.218 340.28C225.735 341.735 226.768 344.873 229.217 346.451C234.02 349.541 240.956 351.129 246.591 350.909C246.591 350.909 260.224 351.589 260.903 344.098L260.893 344.088Z" fill="#263238" stroke="#263238" stroke-width="1.20545" stroke-linecap="round" stroke-linejoin="round"/>
<path d="M200.238 331.134C203.864 329.68 204.936 325.786 205.031 322.294C205.06 320.974 205.098 319.654 205.127 318.334C191.408 317.865 180.09 315.588 172.896 313.722C172.245 317.702 171.614 320.907 171.614 320.907C171.614 320.907 159.349 329.087 154.575 333.861C149.801 338.635 158.086 343.648 164.113 344.767C174.398 346.671 186.605 336.588 186.605 336.588C186.605 336.588 200.085 331.201 200.238 331.134Z" fill="#263238" stroke="#263238" stroke-width="1.20545" stroke-linecap="round" stroke-linejoin="round"/>
<path d="M260.894 344.088C260.903 343.983 260.894 343.868 260.894 343.754C258.789 345.342 255.555 347.006 250.743 347.867C239.97 349.781 230.164 344.28 227.524 341.888C224.893 339.496 223.218 337.583 219.143 334.942C215.077 332.311 211.384 325.834 211.384 325.834L211.231 326.074C211.738 329.183 212.446 332.302 214.312 334.799C215.45 336.33 217.287 338.186 219.038 338.999C220.396 339.63 221.841 339.496 223.199 340.281C225.715 341.735 226.749 344.873 229.198 346.451C234.001 349.542 240.937 351.13 246.572 350.91C246.572 350.91 260.205 351.589 260.884 344.098L260.894 344.088Z" fill="white" stroke="#263238" stroke-width="1.20545" stroke-linecap="round" stroke-linejoin="round"/>
<path d="M200.238 331.135C203.405 329.872 204.62 326.743 204.936 323.653C201.807 325.519 194.546 329.747 189.954 331.584C183.974 333.976 179.899 341.161 168.17 341.161C159.808 341.161 155.235 337.879 153.283 335.995C152.25 340.041 158.976 343.811 164.113 344.768C174.398 346.671 186.605 336.588 186.605 336.588C186.605 336.588 200.085 331.201 200.238 331.135Z" fill="white" stroke="#263238" stroke-width="1.20545" stroke-linecap="round" stroke-linejoin="round"/>
<path d="M244.505 84.1421C239.549 87.0218 234.029 88.7534 230.949 89.5857C217.363 85.7781 198.162 83.9603 186.94 86.4573C186.94 86.4573 171.26 90.2076 168.543 90.5424C165.816 90.8869 159.339 112.69 157.981 127.691C157.139 136.943 158.507 154.632 159.674 167.461C188.069 177.87 218.358 174.302 233.168 171.461C234.67 154.479 236.354 137.574 236.354 137.574C236.354 137.574 236.909 136.139 237.76 133.795C238.057 133.632 238.353 133.47 238.66 133.298C243.941 130.255 255.641 121.234 264.816 112.288C246.399 106.94 244.17 92.4176 244.496 84.1421H244.505Z" fill="#263238" stroke="#263238" stroke-width="1.20545" stroke-linecap="round" stroke-linejoin="round"/>
<path d="M218.091 100.406C218.091 94.5988 215.077 89.3943 210.341 85.8641C201.635 85.0222 193.092 85.0891 186.94 86.4572C186.94 86.4572 182.606 87.4904 178.1 88.5237C175.106 91.7956 173.298 95.919 173.298 100.406C173.298 111.035 183.324 119.655 195.694 119.655C208.064 119.655 218.091 111.035 218.091 100.406Z" fill="#616161" stroke="#263238" stroke-width="1.20545" stroke-linecap="round" stroke-linejoin="round"/>
<path d="M211.394 325.834C214.312 326.925 219.755 328.398 227.332 328.073C239.09 327.566 243.175 324.323 243.175 324.323C243.175 324.323 240.449 274.565 238.401 258.215C236.354 241.855 230.901 215.278 230.901 203.692C230.901 196.861 232.795 175.125 234.355 158.411C234.115 158.44 233.867 158.469 233.627 158.497C225.304 159.454 218.071 152.824 218.32 144.453L218.645 133.575C218.645 133.575 207.911 134.599 192.068 132.81C176.225 131.021 159.866 125.654 159.866 125.654L158.143 126.18C158.086 126.687 158.038 127.194 157.99 127.691C156.632 142.683 161.061 179.832 161.061 182.558C161.061 185.285 162.764 230.604 165.491 243.213C168.218 255.823 171.289 272.862 171.623 275.244C171.968 277.626 174.35 295.354 174.35 301.142C174.35 306.93 171.719 320.391 171.633 320.888C173.68 321.52 177.966 322.821 185.687 325.002C197.445 328.322 205.022 324.323 205.022 324.323C205.022 320.238 205.701 297.057 205.701 297.057C205.701 297.057 210.006 316.66 211.403 325.834H211.394Z" fill="white" stroke="#263238" stroke-width="1.20545" stroke-linecap="round" stroke-linejoin="round"/>
<path d="M172.456 140.004L203.07 145.036V163.903L185.878 181.095L172.035 164.324L172.456 140.004Z" stroke="#263238" stroke-width="1.20545" stroke-linecap="round" stroke-linejoin="round"/>
<path d="M194.546 246.093C192.336 233.637 190.69 221.362 190.69 212.541L178.426 204.362" stroke="#263238" stroke-width="1.20545" stroke-linecap="round" stroke-linejoin="round"/>
<path d="M205.692 297.057C205.692 297.057 200.525 277.09 196.259 255.23" stroke="#263238" stroke-width="1.20545" stroke-linecap="round" stroke-linejoin="round"/>
<path d="M214.8 191.36C215.067 192.393 215.469 193.455 216.072 194.517C219.841 201.224 225.295 202.066 225.295 202.066L226.137 184.453" stroke="#263238" stroke-width="1.20545" stroke-linecap="round" stroke-linejoin="round"/>
<path d="M216.072 181.094C216.072 181.094 215.172 182.702 214.685 185.122" stroke="#263238" stroke-width="1.20545" stroke-linecap="round" stroke-linejoin="round"/>
<path d="M231.102 234.689C231.542 237.014 231.992 239.301 232.422 241.482" stroke="#263238" stroke-width="1.20545" stroke-linecap="round" stroke-linejoin="round"/>
<path d="M225.294 202.065C225.294 202.065 227.447 214.991 229.944 228.537" stroke="#263238" stroke-width="1.20545" stroke-linecap="round" stroke-linejoin="round"/>
<path d="M184.95 79.2055L184.778 89.2509C184.778 89.2509 181.315 92.0254 180.626 99.2963C179.937 106.567 186.864 113.322 194.651 113.322C202.439 113.322 209.203 107.256 210.408 101.717C211.623 96.1775 210.064 88.2081 210.064 88.2081L209.547 76.0867C209.547 76.0867 201.922 80.9372 194.651 79.55C187.38 78.1627 185.295 75.5701 185.295 75.5701L184.95 79.2055Z" fill="#BDBDBD" stroke="#263238" stroke-width="1.20545" stroke-linecap="round" stroke-linejoin="round"/>
<path d="M179.526 52.9821C179.526 52.9821 179.057 58.7319 180.301 60.1287C181.544 61.5255 183.257 62.6162 183.563 61.3724C183.869 60.1287 184.032 53.604 184.338 52.1976C184.644 50.8008 179.679 49.0883 179.516 52.9726L179.526 52.9821Z" fill="#BDBDBD" stroke="#263238" stroke-width="1.20545" stroke-linecap="round" stroke-linejoin="round"/>
<path d="M182.559 52.9056C182.559 52.9056 181.123 64.4148 181.123 69.9349C181.123 75.4551 178.961 77.6077 185.917 81.2049C192.872 84.8021 198.861 85.2805 203.663 83.6063C208.457 81.932 211.097 77.8469 211.336 74.4984C211.575 71.1404 211.575 65.8689 211.575 65.8689C211.575 65.8689 218.291 59.8704 216.847 55.3165C215.412 50.7626 212.293 56.5124 212.293 56.5124C212.293 56.5124 214.455 50.5138 214.216 44.2857C213.977 38.048 209.184 37.3304 207.261 37.3304C205.338 37.3304 193.589 33.7332 188.079 37.3304C182.568 40.9277 182.568 52.9152 182.568 52.9152L182.559 52.9056Z" fill="#BDBDBD" stroke="#263238" stroke-width="1.20545" stroke-linecap="round" stroke-linejoin="round"/>
<path d="M212.293 56.5028C212.293 56.5028 214.455 50.5042 214.216 44.2761C213.977 38.0384 209.184 37.3208 207.261 37.3208C207.232 37.3208 207.165 37.3208 207.127 37.3113C206.113 39.0142 204.859 41.6356 204.859 41.6356L205.816 42.1139C205.816 42.1139 204.859 47.3854 206.773 48.1125C208.686 48.83 207.729 50.5138 207.729 53.3839C207.729 56.254 209.404 58.4162 210.37 58.4162C211.126 58.4162 212.322 56.4932 212.8 55.6704C212.484 56.1392 212.293 56.5028 212.293 56.5028Z" fill="#263238" stroke="#263238" stroke-width="1.20545" stroke-linecap="round" stroke-linejoin="round"/>
<path d="M193.36 57.1821C193.36 57.1821 191.341 59.0477 192.269 60.4445C193.197 61.8413 196.622 62.6162 197.55 60.9133C198.478 59.2008 197.397 57.6509 196.928 57.3352" stroke="#263238" stroke-width="1.20545" stroke-linecap="round" stroke-linejoin="round"/>
<path d="M191.179 55.3165C191.179 56.2636 190.796 57.029 190.327 57.029C189.858 57.029 189.476 56.2636 189.476 55.3165C189.476 54.3694 189.858 53.604 190.327 53.604C190.796 53.604 191.179 54.3694 191.179 55.3165Z" fill="#263238"/>
<path d="M201.521 55.7853C201.521 56.7324 201.138 57.4978 200.669 57.4978C200.2 57.4978 199.818 56.7324 199.818 55.7853C199.818 54.8381 200.2 54.0728 200.669 54.0728C201.138 54.0728 201.521 54.8381 201.521 55.7853Z" fill="#263238"/>
<path d="M198.947 51.1261C198.947 51.1261 202.209 48.9544 205.319 52.3698" stroke="#263238" stroke-width="1.20545" stroke-linecap="round" stroke-linejoin="round"/>
<path d="M194.001 66.4238C194.001 66.4238 192.642 65.6872 191.341 66.309C190.04 66.9213 189.791 67.9737 189.791 67.9737C189.791 67.9737 187.801 69.581 189.897 70.2794C191.992 70.9778 196.565 70.9299 197.742 70.8725C198.918 70.8151 199.311 69.6097 199.272 68.8921C199.244 68.1746 198.784 67.9641 198.784 67.9641C198.784 67.9641 197.177 65.1706 193.991 66.4334L194.001 66.4238Z" fill="#666666" stroke="#263238" stroke-width="0.880168" stroke-linecap="round" stroke-linejoin="round"/>
<path d="M189.332 68.5669C189.332 68.5669 193.609 67.6676 198.985 69.1409" stroke="#263238" stroke-width="1.02367" stroke-linecap="round" stroke-linejoin="round"/>
<path d="M178.483 39.7127L204.142 43.3099C204.142 43.3099 214.933 40.4302 215.89 38.2777C216.847 36.1155 213.249 25.3334 211.336 22.6929C209.413 20.0524 190.958 24.6159 185.199 25.5726C179.44 26.5293 175.125 27.9739 175.364 30.8441C175.603 33.7237 178.483 39.7127 178.483 39.7127Z" fill="#39AE49" stroke="#263238" stroke-width="1.20545" stroke-linecap="round" stroke-linejoin="round"/>
<path d="M178.483 39.7126C178.483 39.7126 163.855 51.7002 163.616 52.9056C163.377 54.1015 184.96 54.5798 191.666 53.1448C198.382 51.7097 204.132 43.3099 204.132 43.3099L178.473 39.7126H178.483Z" fill="white" stroke="#263238" stroke-width="1.20545" stroke-linecap="round" stroke-linejoin="round"/>
<path d="M162.506 198.66L202.735 175.096C205.213 176.952 208.657 177.258 211.499 175.594C214.704 173.718 216.091 169.939 215.086 166.534L206.696 171.451L204.754 168.141L213.144 163.223C210.657 160.679 206.687 160.047 203.482 161.922C200.64 163.587 199.224 166.735 199.636 169.806L159.406 193.369C156.928 191.513 153.484 191.207 150.643 192.872C147.438 194.747 146.051 198.526 147.055 201.932L155.225 197.148L157.167 200.458L148.997 205.242C151.485 207.787 155.455 208.418 158.66 206.543C161.501 204.878 162.917 201.731 162.506 198.66Z" fill="#39AE49" stroke="#263238" stroke-width="1.20545" stroke-linecap="round" stroke-linejoin="round"/>
<path d="M196.718 181.142C196.718 181.142 201.664 184.673 201.664 187.973C201.664 191.274 195.771 194.804 191.762 195.043C187.753 195.282 187.045 190.805 187.753 188.442C188.461 186.089 196.708 181.133 196.708 181.133L196.718 181.142Z" fill="#BDBDBD" stroke="#263238" stroke-width="1.20545" stroke-linecap="round" stroke-linejoin="round"/>
<path d="M144.874 151.685C144.874 151.685 172.207 167.002 175.976 166.534C179.746 166.065 184.931 162.764 187.763 163.702C190.595 164.649 198.363 176.665 199.071 178.779C199.779 180.903 193.417 188.442 192.001 189.619C190.585 190.796 186.108 195.512 185.17 195.981C184.223 196.45 178.1 201.874 175.039 201.874C171.977 201.874 166.792 199.521 166.323 198.344C165.854 197.167 167.031 195.512 167.031 195.512L152.652 188.911C152.652 188.911 125.319 174.063 120.602 166.524C115.886 158.985 127.672 145.553 127.672 145.553" fill="#BDBDBD"/>
<path d="M144.874 151.685C144.874 151.685 172.207 167.002 175.976 166.534C179.746 166.065 184.931 162.764 187.763 163.702C190.595 164.649 198.363 176.665 199.071 178.779C199.779 180.903 193.417 188.442 192.001 189.619C190.585 190.796 186.108 195.512 185.17 195.981C184.223 196.45 178.1 201.874 175.039 201.874C171.977 201.874 166.792 199.521 166.323 198.344C165.854 197.167 167.031 195.512 167.031 195.512L152.652 188.911C152.652 188.911 125.319 174.063 120.602 166.524C115.886 158.985 127.672 145.553 127.672 145.553" stroke="#263238" stroke-width="1.20545" stroke-linecap="round" stroke-linejoin="round"/>
<path d="M176.455 188.681C176.455 188.681 179.287 188.92 179.755 191.982C180.224 195.043 179.047 200.468 179.047 200.468" stroke="#263238" stroke-width="1.20545" stroke-linecap="round" stroke-linejoin="round"/>
<path d="M181.879 184.204C181.879 184.204 185.18 184.443 185.18 187.505V195.99" stroke="#263238" stroke-width="1.20545" stroke-linecap="round" stroke-linejoin="round"/>
<path d="M185.409 175.718C185.409 175.718 191.532 180.195 192.011 182.788C192.479 185.38 192.011 189.619 192.011 189.619" stroke="#263238" stroke-width="1.20545" stroke-linecap="round" stroke-linejoin="round"/>
<path d="M212.733 159.569C214.101 159.569 217.756 150.442 217.756 147.017C217.756 143.592 219.354 118.488 223.008 106.854C225.63 98.5021 227.887 92.054 228.959 89.0595C226.175 88.3419 223.199 87.7105 220.138 87.1843C218.311 92.7236 212.733 110.011 210.456 121.004C207.72 134.235 208.399 149.982 208.629 151.351C208.858 152.719 211.365 159.569 212.733 159.569Z" fill="white" stroke="#263238" stroke-width="1.20545" stroke-linecap="round" stroke-linejoin="round"/>
<path d="M217.793 132.521L209.95 131.48C209.306 131.394 208.714 131.847 208.629 132.491L207.798 138.751C207.713 139.395 208.166 139.987 208.81 140.072L216.653 141.113C217.297 141.199 217.889 140.746 217.974 140.101L218.805 133.842C218.891 133.198 218.438 132.606 217.793 132.521Z" fill="white" stroke="#263238" stroke-width="1.20545" stroke-linecap="round" stroke-linejoin="round"/>
<path d="M215.685 133.862L211.636 133.325C210.991 133.239 210.4 133.692 210.314 134.336L209.908 137.4C209.822 138.044 210.275 138.636 210.919 138.721L214.969 139.259C215.613 139.344 216.205 138.891 216.29 138.247L216.697 135.184C216.782 134.539 216.329 133.948 215.685 133.862Z" fill="white" stroke="#263238" stroke-width="1.20545" stroke-linecap="round" stroke-linejoin="round"/>
<path d="M161.616 156.144C162.984 156.144 166.639 147.017 166.639 143.592C166.639 140.167 168.237 115.063 171.891 103.429C174.207 96.0339 175.785 91.3269 176.637 88.8586C173.078 89.6623 169.691 90.3989 168.552 90.5424C167.72 90.6477 166.524 92.7811 165.233 96.12C163.721 100.798 161.865 106.902 160.411 112.843C159.292 117.895 158.392 123.109 157.981 127.691C157.627 131.556 157.665 136.895 157.914 142.731C157.933 142.903 157.952 143.046 157.971 143.132C158.201 144.501 160.258 156.144 161.626 156.144H161.616Z" fill="white" stroke="#263238" stroke-width="1.20545" stroke-linecap="round" stroke-linejoin="round"/>
<path d="M166.812 125.321L158.944 124.482C158.298 124.413 157.718 124.881 157.649 125.527L156.979 131.806C156.91 132.452 157.378 133.032 158.025 133.101L165.892 133.94C166.538 134.009 167.118 133.541 167.187 132.895L167.857 126.616C167.926 125.97 167.458 125.39 166.812 125.321Z" fill="white" stroke="#263238" stroke-width="1.20545" stroke-linecap="round" stroke-linejoin="round"/>
<path d="M164.738 126.726L160.675 126.292C160.029 126.223 159.449 126.691 159.381 127.338L159.053 130.41C158.984 131.057 159.452 131.636 160.098 131.705L164.16 132.139C164.806 132.208 165.386 131.74 165.455 131.093L165.783 128.021C165.852 127.374 165.384 126.795 164.738 126.726Z" fill="white" stroke="#263238" stroke-width="1.20545" stroke-linecap="round" stroke-linejoin="round"/>
</g>
<path d="M266.548 273.568C265.465 272.592 264.931 271.363 264.931 269.893C264.931 268.423 265.492 266.939 266.628 265.643C267.764 264.346 269.02 263.705 270.437 263.705C270.891 263.705 271.359 263.785 271.814 263.945C272.268 264.106 272.709 264.36 273.137 264.68C277.547 268.115 282.265 269.826 287.263 269.826C291.086 269.826 294.039 268.824 296.098 266.805C298.156 264.801 299.185 261.82 299.185 257.904C299.185 253.989 298.076 251.209 295.87 249.097C293.665 246.985 290.885 245.929 287.557 245.929C283.735 245.929 280.033 247.266 276.465 249.952C275.81 250.514 274.887 250.781 273.711 250.781C271.907 250.781 270.237 250.18 268.713 248.963C267.176 247.747 266.401 246.117 266.401 244.058V216.193C266.401 213.413 267.069 211.515 268.419 210.499C269.755 209.483 272.001 208.976 275.141 208.976H304.678C306.282 208.976 307.565 209.47 308.527 210.446C309.489 211.421 309.97 212.771 309.97 214.469C309.97 216.166 309.462 217.502 308.447 218.465C307.431 219.427 306.014 219.908 304.183 219.908H278.91L278.67 238.606L280.14 237.723C281.116 237.135 282.733 236.547 284.991 235.959C287.25 235.371 289.642 235.077 292.155 235.077C298.57 235.077 303.796 237.095 307.832 241.118C311.868 245.141 313.886 250.661 313.886 257.651C313.886 262.395 312.723 266.565 310.398 270.16C308.073 273.755 304.932 276.495 300.976 278.353C297.02 280.224 292.569 281.146 287.624 281.146C279.579 281.146 272.549 278.607 266.521 273.541L266.548 273.568Z" fill="#455A64"/>
<path d="M339.092 279.502C335.938 278.192 333.332 276.415 331.287 274.183C329.242 271.938 327.545 269.238 326.209 266.057C324.872 262.89 323.923 259.535 323.362 256.02C322.801 252.505 322.533 248.696 322.533 244.606C322.533 240.517 322.814 236.841 323.362 233.367C323.91 229.905 324.859 226.577 326.182 223.41C327.505 220.242 329.189 217.543 331.207 215.311C333.239 213.092 335.831 211.314 339.012 209.991C342.18 208.668 345.788 208 349.811 208C353.834 208 357.309 208.642 360.436 209.938C363.563 211.234 366.143 212.985 368.188 215.19C370.232 217.396 371.93 220.082 373.293 223.236C374.643 226.39 375.619 229.718 376.193 233.22C376.768 236.721 377.049 240.517 377.049 244.606C377.049 248.696 376.768 252.452 376.22 255.967C375.659 259.482 374.71 262.823 373.373 266.004C372.037 269.171 370.339 271.884 368.295 274.129C366.25 276.375 363.657 278.152 360.516 279.475C357.375 280.799 353.807 281.467 349.824 281.467C345.842 281.467 342.26 280.812 339.106 279.502H339.092ZM355.905 268.089C357.536 266.792 358.765 264.908 359.567 262.422C360.369 259.936 360.931 257.303 361.238 254.523C361.545 251.743 361.706 248.442 361.706 244.606C361.706 241.599 361.626 238.953 361.465 236.681C361.305 234.409 360.971 232.137 360.463 229.865C359.955 227.593 359.273 225.722 358.431 224.265C357.576 222.808 356.44 221.632 354.997 220.737C353.553 219.841 351.842 219.387 349.851 219.387C348.18 219.387 346.71 219.681 345.441 220.269C344.171 220.857 343.102 221.739 342.246 222.888C341.391 224.051 340.683 225.361 340.108 226.818C339.533 228.275 339.092 229.999 338.785 231.99C338.478 233.981 338.264 235.959 338.143 237.924C338.023 239.889 337.97 242.107 337.97 244.593C337.97 247.079 338.023 249.311 338.143 251.289C338.25 253.267 338.464 255.258 338.785 257.276C339.092 259.281 339.533 261.032 340.108 262.502C340.683 263.972 341.391 265.295 342.246 266.458C343.102 267.621 344.158 268.503 345.441 269.104C346.71 269.706 348.194 270.013 349.851 270.013C352.27 270.013 354.302 269.372 355.932 268.075L355.905 268.089Z" fill="#455A64"/>
<path d="M401.226 279.502C398.071 278.192 395.465 276.415 393.42 274.183C391.376 271.938 389.678 269.238 388.342 266.057C387.005 262.89 386.056 259.535 385.495 256.02C384.934 252.505 384.667 248.696 384.667 244.606C384.667 240.517 384.947 236.841 385.495 233.367C386.043 229.905 386.992 226.577 388.315 223.41C389.638 220.242 391.322 217.543 393.34 215.311C395.372 213.092 397.965 211.314 401.145 209.991C404.313 208.668 407.921 208 411.944 208C415.967 208 419.442 208.642 422.569 209.938C425.697 211.234 428.276 212.985 430.321 215.19C432.366 217.396 434.063 220.082 435.426 223.236C436.776 226.39 437.752 229.718 438.327 233.22C438.901 236.721 439.182 240.517 439.182 244.606C439.182 248.696 438.901 252.452 438.353 255.967C437.792 259.482 436.843 262.823 435.507 266.004C434.17 269.171 432.473 271.884 430.428 274.129C428.383 276.375 425.79 278.152 422.649 279.475C419.509 280.799 415.94 281.467 411.958 281.467C407.975 281.467 404.393 280.812 401.239 279.502H401.226ZM418.039 268.089C419.669 266.792 420.899 264.908 421.701 262.422C422.502 259.936 423.064 257.303 423.371 254.523C423.679 251.743 423.839 248.442 423.839 244.606C423.839 241.599 423.759 238.953 423.598 236.681C423.438 234.409 423.104 232.137 422.596 229.865C422.088 227.593 421.407 225.722 420.565 224.265C419.709 222.808 418.573 221.632 417.13 220.737C415.686 219.841 413.976 219.387 411.984 219.387C410.314 219.387 408.844 219.681 407.574 220.269C406.304 220.857 405.235 221.739 404.38 222.888C403.524 224.051 402.816 225.361 402.241 226.818C401.667 228.275 401.226 229.999 400.918 231.99C400.611 233.981 400.397 235.959 400.277 237.924C400.156 239.889 400.103 242.107 400.103 244.593C400.103 247.079 400.156 249.311 400.277 251.289C400.384 253.267 400.597 255.258 400.918 257.276C401.226 259.281 401.667 261.032 402.241 262.502C402.816 263.972 403.524 265.295 404.38 266.458C405.235 267.621 406.291 268.503 407.574 269.104C408.844 269.706 410.327 270.013 411.984 270.013C414.403 270.013 416.435 269.372 418.065 268.075L418.039 268.089Z" fill="#455A64"/>
<defs>
<clipPath id="clip0_7297_69125">
<rect width="420.759" height="373" fill="white"/>
</clipPath>
</defs>
</svg>
