<svg width="1440" height="987" viewBox="0 0 1440 987" fill="none" xmlns="http://www.w3.org/2000/svg">
<g clip-path="url(#clip0_7297_69243)">
<rect width="1440" height="987" fill="#F4F6F9"/>
<g clip-path="url(#clip1_7297_69243)">
<path d="M332.048 -31.1172C300.686 11.7254 264.463 52.5729 246.897 102.658C224.295 167.128 233.919 243.281 194.682 299.211C170.969 332.997 130.533 354.407 89.2745 355.033C48.0057 355.658 6.94169 335.487 -17.7945 302.437C-61.5659 243.927 -50.4735 159.664 -85.9069 95.7708C-100.995 68.5749 -123.724 46.5707 -142.682 21.9146C-189.625 -39.0993 -215.741 -118.097 -206.842 -194.581C-184.292 -388.393 49.7608 -390.166 132.597 -370.964C188.778 -357.944 246.057 -344.485 295.249 -314.398C344.441 -284.301 385.038 -234.164 388.407 -176.589C391.504 -123.596 363.417 -73.9389 332.057 -31.1062L332.048 -31.1172Z" fill="#066235" fill-opacity="0.05"/>
</g>
<g clip-path="url(#clip2_7297_69243)">
<path d="M1594.15 876.026C1562.79 918.869 1526.57 959.716 1509 1009.8C1486.4 1074.27 1496.02 1150.42 1456.79 1206.35C1433.07 1240.14 1392.64 1261.55 1351.38 1262.18C1310.11 1262.8 1269.05 1242.63 1244.31 1209.58C1200.54 1151.07 1211.63 1066.81 1176.2 1002.91C1161.11 975.718 1138.38 953.714 1119.42 929.058C1072.48 868.044 1046.36 789.047 1055.26 712.563C1077.81 518.75 1311.86 516.977 1394.7 536.179C1450.88 549.199 1508.16 562.659 1557.35 592.745C1606.54 622.842 1647.14 672.98 1650.51 730.555C1653.61 783.548 1625.52 833.205 1594.16 876.037L1594.15 876.026Z" fill="#066235" fill-opacity="0.05"/>
</g>
</g>
<defs>
<clipPath id="clip0_7297_69243">
<rect width="1440" height="987" fill="white"/>
</clipPath>
<clipPath id="clip1_7297_69243">
<rect width="595.45" height="728.8" fill="white" transform="translate(-181.878 -409.143) rotate(6.63638)"/>
</clipPath>
<clipPath id="clip2_7297_69243">
<rect width="595.45" height="728.8" fill="white" transform="translate(1080.23 498) rotate(6.63638)"/>
</clipPath>
</defs>
</svg>
