<svg width="233" height="76" viewBox="0 0 233 76" fill="none" xmlns="http://www.w3.org/2000/svg">
<rect width="233" height="76" fill="white"/>
<path d="M17.3076 22.9374C17.225 22.1046 16.8705 21.4576 16.2442 20.9965C15.6179 20.5353 14.7679 20.3048 13.6942 20.3048C12.9646 20.3048 12.3486 20.408 11.8462 20.6145C11.3438 20.8141 10.9583 21.0928 10.6899 21.4507C10.4284 21.8086 10.2976 22.2147 10.2976 22.6689C10.2838 23.0475 10.363 23.3779 10.5351 23.66C10.714 23.9422 10.9583 24.1866 11.2681 24.393C11.5778 24.5926 11.9357 24.7681 12.3417 24.9196C12.7478 25.0641 13.1814 25.188 13.6426 25.2912L15.5422 25.7455C16.4644 25.952 17.311 26.2273 18.0819 26.5714C18.8527 26.9155 19.5203 27.3388 20.0847 27.8412C20.6491 28.3437 21.0861 28.9356 21.3958 29.617C21.7124 30.2983 21.8742 31.0795 21.8811 31.9605C21.8742 33.2544 21.5438 34.3763 20.89 35.3261C20.243 36.269 19.307 37.002 18.0819 37.5251C16.8636 38.0413 15.3942 38.2994 13.6735 38.2994C11.9666 38.2994 10.48 38.0379 9.21359 37.5148C7.95407 36.9917 6.96985 36.2174 6.26094 35.1919C5.55892 34.1595 5.19069 32.8828 5.15628 31.3617H9.48201C9.53019 32.0706 9.73323 32.6625 10.0911 33.1374C10.4559 33.6054 10.9411 33.9599 11.5468 34.2008C12.1594 34.4348 12.8511 34.5518 13.6219 34.5518C14.379 34.5518 15.0363 34.4417 15.5938 34.2214C16.1582 34.0012 16.5952 33.6949 16.9049 33.3026C17.2146 32.9103 17.3695 32.4595 17.3695 31.9502C17.3695 31.4753 17.2284 31.0761 16.9462 30.7526C16.6709 30.4291 16.2648 30.1538 15.728 29.9267C15.198 29.6995 14.5476 29.4931 13.7768 29.3072L11.4745 28.7291C9.69193 28.2955 8.28444 27.6176 7.25204 26.6953C6.21965 25.773 5.70689 24.5307 5.71377 22.9683C5.70689 21.6882 6.04758 20.5697 6.73585 19.6131C7.43099 18.6564 8.38423 17.9096 9.59558 17.3728C10.8069 16.8359 12.1834 16.5675 13.7252 16.5675C15.2944 16.5675 16.664 16.8359 17.8341 17.3728C19.011 17.9096 19.9264 18.6564 20.5803 19.6131C21.2341 20.5697 21.5714 21.6778 21.592 22.9374H17.3076ZM24.8879 38V16.8566H29.3582V26.1791H29.6369L37.2457 16.8566H42.6038L34.7576 26.3236L42.6967 38H37.3489L31.5572 29.3072L29.3582 31.9915V38H24.8879ZM49.4021 16.8566V38H44.9319V16.8566H49.4021ZM53.08 38V16.8566H57.5503V34.3144H66.6147V38H53.08ZM69.5751 38V16.8566H74.0454V34.3144H83.1098V38H69.5751ZM97.5401 22.9374C97.4575 22.1046 97.103 21.4576 96.4767 20.9965C95.8504 20.5353 95.0004 20.3048 93.9267 20.3048C93.1972 20.3048 92.5812 20.408 92.0787 20.6145C91.5763 20.8141 91.1909 21.0928 90.9224 21.4507C90.6609 21.8086 90.5301 22.2147 90.5301 22.6689C90.5164 23.0475 90.5955 23.3779 90.7676 23.66C90.9465 23.9422 91.1909 24.1866 91.5006 24.393C91.8103 24.5926 92.1682 24.7681 92.5743 24.9196C92.9804 25.0641 93.414 25.188 93.8751 25.2912L95.7747 25.7455C96.697 25.952 97.5435 26.2273 98.3144 26.5714C99.0852 26.9155 99.7529 27.3388 100.317 27.8412C100.882 28.3437 101.319 28.9356 101.628 29.617C101.945 30.2983 102.107 31.0795 102.114 31.9605C102.107 33.2544 101.776 34.3763 101.123 35.3261C100.476 36.269 99.5395 37.002 98.3144 37.5251C97.0962 38.0413 95.6267 38.2994 93.9061 38.2994C92.1992 38.2994 90.7125 38.0379 89.4461 37.5148C88.1866 36.9917 87.2024 36.2174 86.4935 35.1919C85.7914 34.1595 85.4232 32.8828 85.3888 31.3617H89.7145C89.7627 32.0706 89.9658 32.6625 90.3237 33.1374C90.6884 33.6054 91.1737 33.9599 91.7793 34.2008C92.3919 34.4348 93.0836 34.5518 93.8544 34.5518C94.6115 34.5518 95.2688 34.4417 95.8263 34.2214C96.3907 34.0012 96.8277 33.6949 97.1375 33.3026C97.4472 32.9103 97.602 32.4595 97.602 31.9502C97.602 31.4753 97.4609 31.0761 97.1788 30.7526C96.9034 30.4291 96.4974 30.1538 95.9605 29.9267C95.4306 29.6995 94.7802 29.4931 94.0093 29.3072L91.7071 28.7291C89.9245 28.2955 88.517 27.6176 87.4846 26.6953C86.4522 25.773 85.9394 24.5307 85.9463 22.9683C85.9394 21.6882 86.2801 20.5697 86.9684 19.6131C87.6635 18.6564 88.6168 17.9096 89.8281 17.3728C91.0394 16.8359 92.416 16.5675 93.9577 16.5675C95.5269 16.5675 96.8966 16.8359 98.0666 17.3728C99.2435 17.9096 100.159 18.6564 100.813 19.6131C101.467 20.5697 101.804 21.6778 101.825 22.9374H97.5401ZM111.849 38V16.8566H120.191C121.794 16.8566 123.161 17.1628 124.289 17.7754C125.418 18.3811 126.279 19.2242 126.87 20.3048C127.469 21.3784 127.769 22.6173 127.769 24.0214C127.769 25.4254 127.466 26.6643 126.86 27.738C126.254 28.8117 125.377 29.6479 124.227 30.2467C123.085 30.8455 121.702 31.1449 120.077 31.1449H114.76V27.5625H119.355C120.215 27.5625 120.924 27.4145 121.481 27.1186C122.046 26.8157 122.466 26.3993 122.741 25.8694C123.023 25.3325 123.164 24.7165 123.164 24.0214C123.164 23.3194 123.023 22.7068 122.741 22.1837C122.466 21.6538 122.046 21.2442 121.481 20.9552C120.917 20.6592 120.201 20.5112 119.334 20.5112H116.319V38H111.849ZM143.732 16.8566H148.202V30.5874C148.202 32.1291 147.834 33.4781 147.098 34.6344C146.368 35.7907 145.346 36.6923 144.031 37.3393C142.717 37.9794 141.185 38.2994 139.437 38.2994C137.682 38.2994 136.147 37.9794 134.833 37.3393C133.518 36.6923 132.496 35.7907 131.767 34.6344C131.037 33.4781 130.672 32.1291 130.672 30.5874V16.8566H135.142V30.2054C135.142 31.0107 135.318 31.7265 135.669 32.3528C136.027 32.9791 136.529 33.4712 137.176 33.8291C137.823 34.187 138.577 34.366 139.437 34.366C140.304 34.366 141.058 34.187 141.698 33.8291C142.345 33.4712 142.844 32.9791 143.195 32.3528C143.553 31.7265 143.732 31.0107 143.732 30.2054V16.8566ZM169.565 16.8566V38H165.704L156.505 24.6924H156.35V38H151.88V16.8566H155.803L164.93 30.1538H165.115V16.8566H169.565ZM181.724 16.8566H186.143V31.5992C186.143 32.9619 185.836 34.1457 185.224 35.1506C184.618 36.1555 183.775 36.9298 182.695 37.4735C181.614 38.0172 180.358 38.2891 178.926 38.2891C177.653 38.2891 176.497 38.0654 175.457 37.618C174.425 37.1638 173.606 36.4755 173 35.5532C172.395 34.6241 172.095 33.4575 172.102 32.0534H176.552C176.566 32.6109 176.679 33.0892 176.893 33.4884C177.113 33.8807 177.412 34.1836 177.791 34.3969C178.176 34.6034 178.63 34.7067 179.153 34.7067C179.704 34.7067 180.169 34.5897 180.547 34.3556C180.933 34.1148 181.225 33.7637 181.425 33.3026C181.624 32.8415 181.724 32.2737 181.724 31.5992V16.8566ZM193.483 38H188.693L195.992 16.8566H201.753L209.041 38H204.251L198.955 21.6882H198.79L193.483 38ZM193.184 29.6892H204.499V33.1787H193.184V29.6892ZM211.586 38V16.8566H220.052C221.607 16.8566 222.905 17.0871 223.944 17.5483C224.983 18.0094 225.764 18.6495 226.287 19.4685C226.81 20.2807 227.072 21.2167 227.072 22.2766C227.072 23.1025 226.907 23.8287 226.576 24.455C226.246 25.0744 225.792 25.5837 225.214 25.9829C224.642 26.3752 223.989 26.654 223.252 26.8192V27.0256C224.057 27.0601 224.811 27.2872 225.513 27.707C226.222 28.1269 226.797 28.7153 227.237 29.4724C227.678 30.2226 227.898 31.1174 227.898 32.1566C227.898 33.2785 227.619 34.2799 227.062 35.1609C226.511 36.035 225.696 36.7267 224.615 37.236C223.534 37.7453 222.203 38 220.62 38H211.586ZM216.056 34.3453H219.701C220.946 34.3453 221.855 34.1079 222.426 33.633C222.998 33.1512 223.283 32.5111 223.283 31.7127C223.283 31.1277 223.142 30.6115 222.86 30.1641C222.578 29.7168 222.175 29.3657 221.652 29.1111C221.136 28.8564 220.52 28.7291 219.804 28.7291H216.056V34.3453ZM216.056 25.7042H219.37C219.983 25.7042 220.527 25.5975 221.002 25.3841C221.483 25.1639 221.862 24.8542 222.137 24.455C222.419 24.0558 222.56 23.5775 222.56 23.02C222.56 22.256 222.289 21.64 221.745 21.172C221.208 20.704 220.444 20.4699 219.453 20.4699H216.056V25.7042Z" fill="#343434"/>
<path d="M5.51765 62V49.4672H7.0353V55.6846H7.18217L12.8122 49.4672H14.7949L9.53207 55.1216L14.7949 62H12.959L8.6019 56.1742L7.0353 57.9366V62H5.51765ZM18.0076 56.3455V62H16.5634V52.6004H17.9587V54.0691H18.0811C18.3014 53.5917 18.6359 53.2082 19.0847 52.9186C19.5335 52.6249 20.1128 52.478 20.8226 52.478C21.4591 52.478 22.016 52.6085 22.4933 52.8696C22.9706 53.1267 23.3419 53.5183 23.607 54.0446C23.8722 54.5668 24.0048 55.2277 24.0048 56.0273V62H22.5606V56.1252C22.5606 55.3868 22.3688 54.8116 21.9854 54.3995C21.6019 53.9834 21.0756 53.7753 20.4065 53.7753C19.9455 53.7753 19.5335 53.8753 19.1704 54.0752C18.8113 54.2751 18.5278 54.5668 18.3197 54.9503C18.1117 55.3338 18.0076 55.7989 18.0076 56.3455ZM30.4625 62.1958C29.6139 62.1958 28.8693 61.9939 28.2288 61.59C27.5924 61.1861 27.0947 60.6211 26.7357 59.8949C26.3807 59.1687 26.2033 58.3201 26.2033 57.3491C26.2033 56.37 26.3807 55.5153 26.7357 54.7851C27.0947 54.0548 27.5924 53.4877 28.2288 53.0838C28.8693 52.6799 29.6139 52.478 30.4625 52.478C31.311 52.478 32.0535 52.6799 32.69 53.0838C33.3305 53.4877 33.8282 54.0548 34.1831 54.7851C34.5422 55.5153 34.7217 56.37 34.7217 57.3491C34.7217 58.3201 34.5422 59.1687 34.1831 59.8949C33.8282 60.6211 33.3305 61.1861 32.69 61.59C32.0535 61.9939 31.311 62.1958 30.4625 62.1958ZM30.4625 60.8985C31.1071 60.8985 31.6374 60.7333 32.0535 60.4028C32.4697 60.0723 32.7777 59.6379 32.9776 59.0993C33.1775 58.5608 33.2775 57.9774 33.2775 57.3491C33.2775 56.7209 33.1775 56.1354 32.9776 55.5928C32.7777 55.0502 32.4697 54.6117 32.0535 54.2771C31.6374 53.9426 31.1071 53.7753 30.4625 53.7753C29.8179 53.7753 29.2875 53.9426 28.8714 54.2771C28.4552 54.6117 28.1472 55.0502 27.9473 55.5928C27.7474 56.1354 27.6475 56.7209 27.6475 57.3491C27.6475 57.9774 27.7474 58.5608 27.9473 59.0993C28.1472 59.6379 28.4552 60.0723 28.8714 60.4028C29.2875 60.7333 29.8179 60.8985 30.4625 60.8985ZM38.7361 62L35.8721 52.6004H37.3898L39.4215 59.797H39.5194L41.5266 52.6004H43.0687L45.0515 59.7725H45.1494L47.1811 52.6004H48.6987L45.8348 62H44.415L42.3589 54.7789H42.212L40.1558 62H38.7361ZM52.0522 49.4672V62H50.608V49.4672H52.0522ZM58.6384 62.1958C57.7327 62.1958 56.9514 61.9959 56.2946 61.5961C55.6419 61.1922 55.138 60.6292 54.7831 59.9071C54.4322 59.1809 54.2568 58.3364 54.2568 57.3736C54.2568 56.4108 54.4322 55.5622 54.7831 54.8279C55.138 54.0895 55.6317 53.5142 56.264 53.1022C56.9004 52.686 57.6429 52.478 58.4915 52.478C58.9811 52.478 59.4645 52.5596 59.9419 52.7228C60.4192 52.886 60.8537 53.1511 61.2453 53.5183C61.637 53.8814 61.9491 54.3628 62.1816 54.9625C62.4142 55.5622 62.5304 56.3007 62.5304 57.1778V57.7898H55.2849V56.5414H61.0617C61.0617 56.011 60.9557 55.5378 60.7435 55.1216C60.5355 54.7055 60.2376 54.3771 59.8501 54.1364C59.4666 53.8957 59.0137 53.7753 58.4915 53.7753C57.9163 53.7753 57.4186 53.9181 56.9984 54.2037C56.5822 54.4852 56.262 54.8524 56.0376 55.3052C55.8132 55.7581 55.701 56.2435 55.701 56.7617V57.5939C55.701 58.3038 55.8234 58.9055 56.0682 59.3992C56.317 59.8888 56.6618 60.262 57.1024 60.5191C57.543 60.772 58.055 60.8985 58.6384 60.8985C59.0178 60.8985 59.3605 60.8454 59.6665 60.7394C59.9765 60.6292 60.2438 60.466 60.4681 60.2498C60.6925 60.0295 60.8659 59.7562 60.9883 59.4298L62.3836 59.8214C62.2367 60.2947 61.9899 60.7108 61.6431 61.0698C61.2963 61.4248 60.868 61.7022 60.358 61.9021C59.848 62.0979 59.2748 62.1958 58.6384 62.1958ZM68.2767 62.1958C67.4934 62.1958 66.8019 61.998 66.2022 61.6022C65.6024 61.2024 65.1333 60.6394 64.7947 59.9132C64.456 59.183 64.2867 58.3201 64.2867 57.3247C64.2867 56.3374 64.456 55.4806 64.7947 54.7545C65.1333 54.0283 65.6045 53.4673 66.2083 53.0716C66.8121 52.6758 67.5097 52.478 68.3012 52.478C68.9131 52.478 69.3966 52.58 69.7515 52.784C70.1105 52.9839 70.3839 53.2123 70.5715 53.4693C70.7633 53.7223 70.9122 53.9304 71.0182 54.0935H71.1406V49.4672H72.5848V62H71.1896V60.5558H71.0182C70.9122 60.7271 70.7612 60.9434 70.5654 61.2045C70.3696 61.4615 70.0901 61.692 69.727 61.896C69.3639 62.0959 68.8805 62.1958 68.2767 62.1958ZM68.4725 60.8985C69.0518 60.8985 69.5414 60.7475 69.9412 60.4456C70.341 60.1397 70.645 59.7174 70.853 59.1789C71.0611 58.6363 71.1651 58.0101 71.1651 57.3002C71.1651 56.5985 71.0631 55.9845 70.8591 55.4582C70.6552 54.9278 70.3533 54.5158 69.9534 54.2221C69.5536 53.9242 69.06 53.7753 68.4725 53.7753C67.8606 53.7753 67.3506 53.9324 66.9426 54.2465C66.5387 54.5566 66.2348 54.9788 66.0308 55.5133C65.8309 56.0436 65.731 56.6393 65.731 57.3002C65.731 57.9693 65.8329 58.5771 66.0369 59.1238C66.245 59.6664 66.551 60.0989 66.9549 60.4212C67.3628 60.7394 67.8687 60.8985 68.4725 60.8985ZM79.2246 65.7207C78.5269 65.7207 77.9272 65.6309 77.4254 65.4514C76.9236 65.276 76.5054 65.0435 76.1709 64.7538C75.8405 64.4682 75.5773 64.1622 75.3815 63.8359L76.532 63.0281C76.6625 63.1994 76.8277 63.3953 77.0276 63.6156C77.2276 63.8399 77.5009 64.0337 77.8477 64.1969C78.1985 64.3642 78.6575 64.4478 79.2246 64.4478C79.9834 64.4478 80.6096 64.2642 81.1033 63.8971C81.5969 63.5299 81.8437 62.9546 81.8437 62.1713V60.262H81.7213C81.6153 60.4334 81.4643 60.6455 81.2685 60.8985C81.0767 61.1473 80.7993 61.3697 80.4362 61.5655C80.0772 61.7573 79.5917 61.8531 78.9798 61.8531C78.221 61.8531 77.5396 61.6736 76.9359 61.3146C76.3361 60.9556 75.8609 60.4334 75.51 59.748C75.1632 59.0626 74.9898 58.2304 74.9898 57.2512C74.9898 56.2884 75.1591 55.45 75.4978 54.7361C75.8364 54.0181 76.3076 53.4632 76.9114 53.0716C77.5152 52.6758 78.2128 52.478 79.0043 52.478C79.6162 52.478 80.1017 52.58 80.4607 52.784C80.8238 52.9839 81.1012 53.2123 81.293 53.4693C81.4888 53.7223 81.6397 53.9304 81.7458 54.0935H81.8927V52.6004H83.2879V62.2693C83.2879 63.077 83.1044 63.7339 82.7372 64.2398C82.3741 64.7497 81.8845 65.123 81.2685 65.3596C80.6565 65.6003 79.9752 65.7207 79.2246 65.7207ZM79.1756 60.5558C79.7549 60.5558 80.2445 60.4232 80.6443 60.158C81.0441 59.8928 81.348 59.5114 81.5561 59.0137C81.7642 58.5159 81.8682 57.9203 81.8682 57.2268C81.8682 56.5495 81.7662 55.9518 81.5622 55.4337C81.3582 54.9156 81.0563 54.5097 80.6565 54.2159C80.2567 53.9222 79.7631 53.7753 79.1756 53.7753C78.5637 53.7753 78.0537 53.9304 77.6457 54.2404C77.2418 54.5505 76.9379 54.9666 76.7339 55.4888C76.534 56.011 76.434 56.5903 76.434 57.2268C76.434 57.8795 76.536 58.4568 76.74 58.9586C76.9481 59.4563 77.2541 59.848 77.658 60.1335C78.0659 60.415 78.5718 60.5558 79.1756 60.5558ZM89.8726 62.1958C88.9669 62.1958 88.1856 61.9959 87.5288 61.5961C86.876 61.1922 86.3722 60.6292 86.0173 59.9071C85.6664 59.1809 85.491 58.3364 85.491 57.3736C85.491 56.4108 85.6664 55.5622 86.0173 54.8279C86.3722 54.0895 86.8658 53.5142 87.4982 53.1022C88.1346 52.686 88.8771 52.478 89.7257 52.478C90.2153 52.478 90.6987 52.5596 91.176 52.7228C91.6534 52.886 92.0879 53.1511 92.4795 53.5183C92.8712 53.8814 93.1833 54.3628 93.4158 54.9625C93.6483 55.5622 93.7646 56.3007 93.7646 57.1778V57.7898H86.5191V56.5414H92.2959C92.2959 56.011 92.1898 55.5378 91.9777 55.1216C91.7696 54.7055 91.4718 54.3771 91.0842 54.1364C90.7008 53.8957 90.2479 53.7753 89.7257 53.7753C89.1505 53.7753 88.6527 53.9181 88.2325 54.2037C87.8164 54.4852 87.4962 54.8524 87.2718 55.3052C87.0474 55.7581 86.9352 56.2435 86.9352 56.7617V57.5939C86.9352 58.3038 87.0576 58.9055 87.3024 59.3992C87.5512 59.8888 87.896 60.262 88.3366 60.5191C88.7772 60.772 89.2892 60.8985 89.8726 60.8985C90.252 60.8985 90.5947 60.8454 90.9007 60.7394C91.2107 60.6292 91.4779 60.466 91.7023 60.2498C91.9267 60.0295 92.1001 59.7562 92.2225 59.4298L93.6177 59.8214C93.4709 60.2947 93.224 60.7108 92.8773 61.0698C92.5305 61.4248 92.1021 61.7022 91.5922 61.9021C91.0822 62.0979 90.509 62.1958 89.8726 62.1958ZM107.858 52.6004C107.784 51.9803 107.487 51.4989 106.964 51.1562C106.442 50.8135 105.802 50.6421 105.043 50.6421C104.488 50.6421 104.003 50.7319 103.586 50.9114C103.174 51.0909 102.852 51.3377 102.62 51.6518C102.391 51.966 102.277 52.323 102.277 52.7228C102.277 53.0573 102.356 53.3449 102.516 53.5856C102.679 53.8222 102.887 54.0201 103.14 54.1792C103.393 54.3342 103.658 54.4628 103.935 54.5647C104.213 54.6627 104.468 54.7422 104.7 54.8034L105.973 55.1461C106.299 55.2318 106.663 55.3501 107.062 55.501C107.466 55.652 107.852 55.858 108.219 56.1191C108.59 56.3761 108.896 56.7066 109.137 57.1105C109.378 57.5144 109.498 58.0101 109.498 58.5975C109.498 59.2748 109.321 59.8867 108.966 60.4334C108.615 60.9801 108.101 61.4146 107.423 61.7369C106.75 62.0592 105.932 62.2203 104.97 62.2203C104.072 62.2203 103.295 62.0755 102.638 61.7858C101.985 61.4962 101.471 61.0923 101.096 60.5741C100.725 60.056 100.514 59.4543 100.466 58.7689H102.032C102.073 59.2421 102.232 59.6338 102.509 59.9438C102.791 60.2498 103.146 60.4783 103.574 60.6292C104.007 60.7761 104.472 60.8495 104.97 60.8495C105.549 60.8495 106.069 60.7557 106.53 60.568C106.991 60.3763 107.356 60.1111 107.625 59.7725C107.895 59.4298 108.029 59.03 108.029 58.5731C108.029 58.1569 107.913 57.8183 107.68 57.5572C107.448 57.2961 107.142 57.084 106.763 56.9208C106.383 56.7576 105.973 56.6148 105.533 56.4924L103.99 56.0518C103.011 55.7703 102.236 55.3684 101.665 54.8462C101.094 54.324 100.808 53.6407 100.808 52.7962C100.808 52.0945 100.998 51.4825 101.377 50.9603C101.761 50.4341 102.275 50.0261 102.919 49.7364C103.568 49.4427 104.292 49.2958 105.092 49.2958C105.9 49.2958 106.618 49.4406 107.246 49.7303C107.874 50.0159 108.372 50.4075 108.739 50.9053C109.11 51.403 109.306 51.968 109.327 52.6004H107.858ZM113.144 58.5731L113.119 56.7861H113.413L117.525 52.6004H119.312L114.931 57.0309H114.808L113.144 58.5731ZM111.797 62V49.4672H113.242V62H111.797ZM117.77 62L114.098 57.3491L115.126 56.3455L119.606 62H117.77ZM121.171 62V52.6004H122.615V62H121.171ZM121.905 51.0338C121.624 51.0338 121.381 50.9379 121.177 50.7461C120.977 50.5544 120.877 50.3239 120.877 50.0546C120.877 49.7854 120.977 49.5549 121.177 49.3631C121.381 49.1714 121.624 49.0755 121.905 49.0755C122.187 49.0755 122.428 49.1714 122.627 49.3631C122.831 49.5549 122.933 49.7854 122.933 50.0546C122.933 50.3239 122.831 50.5544 122.627 50.7461C122.428 50.9379 122.187 51.0338 121.905 51.0338ZM126.705 49.4672V62H125.26V49.4672H126.705ZM130.794 49.4672V62H129.35V49.4672H130.794ZM140.097 54.7055L138.8 55.0727C138.718 54.8564 138.598 54.6463 138.439 54.4424C138.284 54.2343 138.072 54.0629 137.802 53.9283C137.533 53.7937 137.188 53.7264 136.768 53.7264C136.193 53.7264 135.714 53.859 135.33 54.1241C134.951 54.3852 134.761 54.7177 134.761 55.1216C134.761 55.4806 134.892 55.7642 135.153 55.9722C135.414 56.1803 135.822 56.3537 136.377 56.4924L137.772 56.8351C138.612 57.0391 139.238 57.3512 139.651 57.7714C140.063 58.1875 140.269 58.724 140.269 59.3808C140.269 59.9194 140.114 60.4008 139.804 60.825C139.498 61.2493 139.069 61.5839 138.518 61.8287C137.968 62.0734 137.327 62.1958 136.597 62.1958C135.638 62.1958 134.845 61.9878 134.216 61.5716C133.588 61.1555 133.19 60.5476 133.023 59.748L134.394 59.4053C134.524 59.9112 134.771 60.2906 135.134 60.5435C135.501 60.7965 135.981 60.923 136.572 60.923C137.246 60.923 137.78 60.7802 138.176 60.4946C138.576 60.2049 138.775 59.8582 138.775 59.4543C138.775 59.1279 138.661 58.8546 138.433 58.6342C138.204 58.4099 137.853 58.2426 137.38 58.1324L135.814 57.7653C134.953 57.5613 134.32 57.2451 133.917 56.8167C133.517 56.3843 133.317 55.8437 133.317 55.1951C133.317 54.6647 133.466 54.1955 133.764 53.7876C134.065 53.3796 134.475 53.0593 134.994 52.8268C135.516 52.5943 136.107 52.478 136.768 52.478C137.698 52.478 138.429 52.682 138.959 53.0899C139.493 53.4979 139.873 54.0364 140.097 54.7055ZM147.485 62V49.4672H151.867C152.74 49.4672 153.46 49.6181 154.027 49.92C154.594 50.2178 155.016 50.6197 155.294 51.1256C155.571 51.6274 155.71 52.1842 155.71 52.7962C155.71 53.3347 155.614 53.7794 155.422 54.1303C155.234 54.4811 154.986 54.7585 154.676 54.9625C154.37 55.1665 154.037 55.3175 153.678 55.4154V55.5378C154.062 55.5622 154.447 55.6969 154.835 55.9416C155.222 56.1864 155.547 56.5373 155.808 56.9942C156.069 57.4511 156.199 58.0101 156.199 58.671C156.199 59.2992 156.057 59.8643 155.771 60.3661C155.485 60.8679 155.035 61.2657 154.419 61.5594C153.802 61.8531 153.001 62 152.014 62H147.485ZM149.003 60.6537H152.014C153.005 60.6537 153.709 60.462 154.125 60.0785C154.545 59.6909 154.755 59.2217 154.755 58.671C154.755 58.2467 154.647 57.855 154.431 57.496C154.215 57.1329 153.907 56.8433 153.507 56.627C153.107 56.4067 152.634 56.2966 152.087 56.2966H149.003V60.6537ZM149.003 54.9748H151.818C152.275 54.9748 152.687 54.885 153.054 54.7055C153.425 54.526 153.719 54.273 153.935 53.9467C154.155 53.6203 154.266 53.2368 154.266 52.7962C154.266 52.2454 154.074 51.7783 153.69 51.3948C153.307 51.0072 152.699 50.8135 151.867 50.8135H149.003V54.9748ZM162.438 62.1958C161.533 62.1958 160.751 61.9959 160.094 61.5961C159.442 61.1922 158.938 60.6292 158.583 59.9071C158.232 59.1809 158.057 58.3364 158.057 57.3736C158.057 56.4108 158.232 55.5622 158.583 54.8279C158.938 54.0895 159.431 53.5142 160.064 53.1022C160.7 52.686 161.443 52.478 162.291 52.478C162.781 52.478 163.264 52.5596 163.742 52.7228C164.219 52.886 164.653 53.1511 165.045 53.5183C165.437 53.8814 165.749 54.3628 165.981 54.9625C166.214 55.5622 166.33 56.3007 166.33 57.1778V57.7898H159.085V56.5414H164.862C164.862 56.011 164.755 55.5378 164.543 55.1216C164.335 54.7055 164.037 54.3771 163.65 54.1364C163.266 53.8957 162.814 53.7753 162.291 53.7753C161.716 53.7753 161.218 53.9181 160.798 54.2037C160.382 54.4852 160.062 54.8524 159.837 55.3052C159.613 55.7581 159.501 56.2435 159.501 56.7617V57.5939C159.501 58.3038 159.623 58.9055 159.868 59.3992C160.117 59.8888 160.462 60.262 160.902 60.5191C161.343 60.772 161.855 60.8985 162.438 60.8985C162.818 60.8985 163.16 60.8454 163.466 60.7394C163.776 60.6292 164.044 60.466 164.268 60.2498C164.492 60.0295 164.666 59.7562 164.788 59.4298L166.183 59.8214C166.036 60.2947 165.79 60.7108 165.443 61.0698C165.096 61.4248 164.668 61.7022 164.158 61.9021C163.648 62.0979 163.075 62.1958 162.438 62.1958ZM169.971 56.3455V62H168.527V49.4672H169.971V54.0691H170.094C170.314 53.5836 170.645 53.198 171.085 52.9125C171.53 52.6228 172.121 52.478 172.86 52.478C173.5 52.478 174.061 52.6065 174.543 52.8635C175.024 53.1165 175.397 53.5061 175.663 54.0323C175.932 54.5545 176.066 55.2195 176.066 56.0273V62H174.622V56.1252C174.622 55.3786 174.428 54.8014 174.041 54.3934C173.657 53.9814 173.125 53.7753 172.444 53.7753C171.97 53.7753 171.546 53.8753 171.171 54.0752C170.8 54.2751 170.506 54.5668 170.29 54.9503C170.077 55.3338 169.971 55.7989 169.971 56.3455ZM181.475 62.2203C180.879 62.2203 180.338 62.1081 179.853 61.8837C179.367 61.6553 178.982 61.3268 178.696 60.8985C178.411 60.466 178.268 59.9438 178.268 59.3319C178.268 58.7934 178.374 58.3568 178.586 58.0223C178.798 57.6837 179.082 57.4185 179.437 57.2268C179.792 57.035 180.183 56.8922 180.612 56.7984C181.044 56.7005 181.479 56.623 181.915 56.5658C182.486 56.4924 182.949 56.4373 183.304 56.4006C183.663 56.3598 183.924 56.2925 184.088 56.1987C184.255 56.1048 184.339 55.9416 184.339 55.7091V55.6601C184.339 55.0564 184.173 54.5872 183.843 54.2527C183.516 53.9181 183.021 53.7508 182.356 53.7508C181.666 53.7508 181.126 53.9018 180.734 54.2037C180.342 54.5056 180.067 54.8279 179.908 55.1706L178.537 54.681C178.782 54.1099 179.108 53.6652 179.516 53.347C179.928 53.0247 180.377 52.8003 180.863 52.6738C181.352 52.5433 181.834 52.478 182.307 52.478C182.609 52.478 182.956 52.5147 183.347 52.5881C183.743 52.6575 184.124 52.8023 184.492 53.0226C184.863 53.2429 185.171 53.5754 185.416 54.0201C185.66 54.4648 185.783 55.0604 185.783 55.807V62H184.339V60.7271H184.265C184.167 60.9311 184.004 61.1494 183.776 61.3819C183.547 61.6145 183.243 61.8123 182.864 61.9755C182.484 62.1387 182.021 62.2203 181.475 62.2203ZM181.695 60.923C182.266 60.923 182.747 60.8108 183.139 60.5864C183.535 60.362 183.833 60.0723 184.033 59.7174C184.237 59.3625 184.339 58.9892 184.339 58.5975V57.2757C184.277 57.3491 184.143 57.4165 183.935 57.4777C183.731 57.5348 183.494 57.5858 183.225 57.6306C182.96 57.6714 182.701 57.7082 182.448 57.7408C182.199 57.7694 181.997 57.7938 181.842 57.8142C181.466 57.8632 181.116 57.9427 180.789 58.0529C180.467 58.159 180.206 58.3201 180.006 58.5363C179.81 58.7485 179.712 59.0381 179.712 59.4053C179.712 59.9071 179.898 60.2865 180.269 60.5435C180.644 60.7965 181.12 60.923 181.695 60.923ZM195.768 52.6004L192.292 62H190.824L187.348 52.6004H188.914L191.509 60.0907H191.607L194.202 52.6004H195.768ZM197.675 62V52.6004H199.119V62H197.675ZM198.409 51.0338C198.127 51.0338 197.885 50.9379 197.681 50.7461C197.481 50.5544 197.381 50.3239 197.381 50.0546C197.381 49.7854 197.481 49.5549 197.681 49.3631C197.885 49.1714 198.127 49.0755 198.409 49.0755C198.69 49.0755 198.931 49.1714 199.131 49.3631C199.335 49.5549 199.437 49.7854 199.437 50.0546C199.437 50.3239 199.335 50.5544 199.131 50.7461C198.931 50.9379 198.69 51.0338 198.409 51.0338ZM205.583 62.1958C204.734 62.1958 203.989 61.9939 203.349 61.59C202.712 61.1861 202.215 60.6211 201.856 59.8949C201.501 59.1687 201.323 58.3201 201.323 57.3491C201.323 56.37 201.501 55.5153 201.856 54.7851C202.215 54.0548 202.712 53.4877 203.349 53.0838C203.989 52.6799 204.734 52.478 205.583 52.478C206.431 52.478 207.174 52.6799 207.81 53.0838C208.451 53.4877 208.948 54.0548 209.303 54.7851C209.662 55.5153 209.842 56.37 209.842 57.3491C209.842 58.3201 209.662 59.1687 209.303 59.8949C208.948 60.6211 208.451 61.1861 207.81 61.59C207.174 61.9939 206.431 62.1958 205.583 62.1958ZM205.583 60.8985C206.227 60.8985 206.757 60.7333 207.174 60.4028C207.59 60.0723 207.898 59.6379 208.098 59.0993C208.298 58.5608 208.398 57.9774 208.398 57.3491C208.398 56.7209 208.298 56.1354 208.098 55.5928C207.898 55.0502 207.59 54.6117 207.174 54.2771C206.757 53.9426 206.227 53.7753 205.583 53.7753C204.938 53.7753 204.408 53.9426 203.991 54.2771C203.575 54.6117 203.267 55.0502 203.067 55.5928C202.868 56.1354 202.768 56.7209 202.768 57.3491C202.768 57.9774 202.868 58.5608 203.067 59.0993C203.267 59.6379 203.575 60.0723 203.991 60.4028C204.408 60.7333 204.938 60.8985 205.583 60.8985ZM217.97 58.1569V52.6004H219.414V62H217.97V60.4089H217.872C217.652 60.8862 217.309 61.2922 216.844 61.6267C216.379 61.9572 215.791 62.1224 215.082 62.1224C214.494 62.1224 213.972 61.9939 213.515 61.7369C213.058 61.4758 212.699 61.0841 212.438 60.5619C212.177 60.0356 212.046 59.3727 212.046 58.5731V52.6004H213.491V58.4751C213.491 59.1605 213.682 59.7072 214.066 60.1152C214.453 60.5231 214.947 60.7271 215.547 60.7271C215.906 60.7271 216.271 60.6353 216.642 60.4518C217.017 60.2682 217.332 59.9867 217.585 59.6073C217.842 59.2278 217.97 58.7444 217.97 58.1569ZM222.059 62V52.6004H223.455V54.0201H223.553C223.724 53.555 224.034 53.1776 224.483 52.888C224.932 52.5983 225.437 52.4535 226 52.4535C226.106 52.4535 226.239 52.4555 226.398 52.4596C226.557 52.4637 226.678 52.4698 226.759 52.478V53.9467C226.71 53.9344 226.598 53.9161 226.423 53.8916C226.251 53.863 226.07 53.8488 225.878 53.8488C225.421 53.8488 225.013 53.9446 224.654 54.1364C224.299 54.324 224.018 54.5851 223.81 54.9197C223.606 55.2501 223.504 55.6275 223.504 56.0518V62H222.059Z" fill="#343434"/>
</svg>
