<svg width="67" height="67" viewBox="0 0 67 67" fill="none" xmlns="http://www.w3.org/2000/svg">
<rect width="66.7773" height="66.8037" rx="33.3886" fill="#066235" fill-opacity="0.05"/>
<path d="M31.0001 13.5675C30.5017 13.7855 30.2602 14.206 29.7618 15.7324L29.2946 17.1575L28.2433 17.5079C26.9817 17.9362 26.3977 18.1854 25.5021 18.6605L24.8168 19.0265L23.4151 18.3256C22.1146 17.6792 21.9744 17.6247 21.5617 17.6325C21.3125 17.6403 21.0088 17.6948 20.8842 17.7649C20.7518 17.8272 19.9964 18.5436 19.1943 19.3535C17.629 20.9344 17.4966 21.1291 17.6057 21.8066C17.6368 21.9701 17.9561 22.7177 18.3299 23.4575L19.0074 24.8125L18.4779 25.8483C18.1897 26.4245 17.7692 27.4369 17.5511 28.0988L17.1384 29.3059L15.7367 29.7731C14.2026 30.2793 14.0312 30.365 13.7042 30.7933L13.4861 31.0814L13.4627 33.2308C13.4472 34.6247 13.4705 35.4813 13.525 35.6682C13.6886 36.2289 14.1169 36.4937 15.7133 37.0154L17.1384 37.4827L17.5511 38.6897C17.7692 39.3517 18.1897 40.364 18.4779 40.9403L19.0074 41.976L18.3299 43.3311C17.2397 45.5193 17.2163 45.4415 19.1943 47.435C19.9964 48.2449 20.7596 48.9614 20.8842 49.0237C21.0166 49.0938 21.3203 49.1561 21.5617 49.1561C21.9744 49.1638 22.1224 49.1093 23.4151 48.463L24.8168 47.7621L25.5021 48.1281C26.4055 48.6032 26.9817 48.8524 28.2433 49.2729L29.2946 49.6311L29.7618 51.0562C30.2602 52.5903 30.4705 52.9563 30.9923 53.2055C31.3972 53.3924 35.3688 53.3924 35.7737 53.2055C36.2955 52.9563 36.5058 52.5903 37.0042 51.064L37.4714 49.6389L38.6785 49.2261C39.3404 49.0081 40.3528 48.5876 40.9212 48.2994L41.9648 47.7777L43.3665 48.4708C44.6436 49.1093 44.7994 49.1638 45.2043 49.1561C45.4535 49.1561 45.7495 49.1015 45.8818 49.0315C46.0142 48.9614 46.7696 48.2449 47.5717 47.435C49.137 45.8542 49.2694 45.6595 49.1604 44.982C49.1292 44.8185 48.8021 44.0709 48.4283 43.3233L47.7508 41.9605L48.1168 41.283C48.5919 40.3718 48.8411 39.7956 49.2616 38.534L49.6198 37.4827L51.0449 37.0154C52.1585 36.6494 52.5401 36.4859 52.7893 36.2834C53.3033 35.8473 53.3188 35.7617 53.3188 33.3865C53.3188 31.0191 53.3033 30.9412 52.7659 30.4896C52.5479 30.3027 52.1118 30.1236 51.0449 29.7731L49.6198 29.3059L49.2694 28.2546C48.8411 26.993 48.5919 26.409 48.1168 25.5056L47.7508 24.8281L48.4283 23.4653C49.5264 21.2692 49.5497 21.3471 47.5717 19.3535C46.7696 18.5436 46.0142 17.8272 45.8818 17.7649C45.7572 17.6948 45.4535 17.6403 45.2043 17.6325C44.7916 17.6247 44.6514 17.6792 43.3509 18.3256L41.9492 19.0265L41.2639 18.6605C40.3683 18.1854 39.7843 17.9362 38.5227 17.5079L37.4714 17.1575L37.0042 15.7324C36.6537 14.6655 36.4746 14.2294 36.2877 14.0114C35.836 13.474 35.7582 13.4584 33.3674 13.4584C31.7632 13.4662 31.1792 13.4896 31.0001 13.5675ZM35.1196 14.7745C35.2909 14.8446 35.3766 15.0393 35.7893 16.3164C36.1943 17.5936 36.2955 17.8272 36.5369 18.0686C36.8484 18.3801 36.8562 18.3801 38.1333 18.7851C38.624 18.9486 39.5974 19.3535 40.2905 19.6884C42.0193 20.545 41.9803 20.545 43.787 19.6105C44.8305 19.0732 45.181 18.9252 45.2822 18.9797C45.3523 19.0187 45.9675 19.6105 46.645 20.2958C47.7664 21.425 47.8676 21.5496 47.7976 21.7209C47.7586 21.8299 47.4471 22.4607 47.0967 23.1304C46.2479 24.7814 46.2479 24.7814 47.0889 26.4868C47.4238 27.1799 47.8287 28.1533 47.9922 28.644C48.3972 29.9211 48.3972 29.9289 48.7087 30.2404C48.9501 30.4818 49.1837 30.583 50.4609 30.988C51.738 31.4007 51.9327 31.4864 52.0028 31.6577C52.0962 31.9069 52.0962 34.8817 52.0028 35.1309C51.9327 35.3022 51.738 35.3879 50.4609 35.8006C49.1837 36.2056 48.9501 36.3068 48.7087 36.5482C48.3972 36.8597 48.3972 36.8675 47.9922 38.1446C47.8287 38.6352 47.4238 39.6087 47.0889 40.3017C46.2401 42.0306 46.2323 41.9916 47.1668 43.7983C47.7119 44.8418 47.8521 45.1845 47.7976 45.2935C47.7586 45.3636 47.1668 45.9788 46.4815 46.6563C45.4925 47.6375 45.2121 47.8711 45.0953 47.8322C45.0174 47.801 44.3789 47.4818 43.6858 47.1235C42.0115 46.2669 41.9492 46.2591 40.4696 47.0145C39.4494 47.5363 38.3358 47.9802 37.4013 48.2371C37.082 48.3228 36.8406 48.463 36.5992 48.681C36.2799 48.977 36.241 49.0626 35.7893 50.4644C35.3766 51.7493 35.2909 51.944 35.1274 52.0141C34.8704 52.1075 31.8956 52.1075 31.6464 52.0141C31.4751 51.944 31.3894 51.7493 30.9767 50.4644C30.525 49.0626 30.4861 48.977 30.1668 48.681C29.9254 48.463 29.684 48.3228 29.3647 48.2371C28.4302 47.9802 27.3166 47.5363 26.2964 47.0145C24.8013 46.2513 24.7701 46.2591 22.979 47.1781C21.9355 47.7232 21.5928 47.8633 21.4838 47.8088C21.4137 47.7699 20.7985 47.1781 20.121 46.4928C18.9996 45.3636 18.8984 45.239 18.9685 45.0677C19.0074 44.9586 19.3189 44.3279 19.6693 43.6581C20.5182 42.0072 20.5182 41.9994 19.6927 40.3329C19.3189 39.5931 18.9451 38.6742 18.7115 37.9733C18.2053 36.4236 18.1819 36.3925 16.2584 35.785C15.0124 35.3879 14.8333 35.31 14.771 35.1387C14.6698 34.8895 14.6698 31.9069 14.7632 31.6577C14.8255 31.4942 15.0358 31.4007 16.3129 30.988C17.7147 30.5363 17.8003 30.4974 18.0963 30.1781C18.3143 29.9367 18.4545 29.6953 18.5402 29.376C18.7971 28.4415 19.241 27.3279 19.7628 26.3077C20.5259 24.8125 20.5182 24.7814 19.5992 22.9981C19.0541 21.939 18.9062 21.6041 18.9685 21.5029C19.0074 21.425 19.5992 20.8098 20.2845 20.1323C21.4137 19.0109 21.5383 18.9097 21.7096 18.9797C21.8187 19.0187 22.4494 19.3302 23.1192 19.6806C24.7545 20.5217 24.8168 20.5217 26.2964 19.7741C27.3166 19.2523 28.4302 18.8084 29.3647 18.5514C29.684 18.4658 29.9254 18.3256 30.1668 18.1075C30.4861 17.8116 30.525 17.726 30.9767 16.3242C31.3583 15.1405 31.4829 14.8368 31.623 14.7823C31.8489 14.6889 34.886 14.6889 35.1196 14.7745Z" fill="#066235"/>
<path d="M32.9158 19.2216C32.7757 19.3618 32.7601 19.4786 32.7601 20.4287V21.4722L32.5109 21.5111C32.3707 21.5345 31.9502 21.589 31.5686 21.6357C29.9021 21.846 27.9474 22.6325 26.4211 23.715C25.619 24.2912 24.2796 25.6229 23.7111 26.4328C22.6131 27.9747 21.7642 30.1007 21.5851 31.7204C21.5617 31.9774 21.5228 32.3201 21.4994 32.4758L21.4527 32.7718H20.4092C19.4669 32.7718 19.3501 32.7873 19.2099 32.9275C18.9997 33.1378 18.9997 33.6517 19.2099 33.862C19.3501 34.0022 19.4669 34.0177 20.4092 34.0177H21.4527L21.4994 34.3059C21.5228 34.4694 21.5617 34.8121 21.5851 35.069C21.6552 35.7232 22.0368 37.1405 22.3249 37.8336C22.9791 39.4066 23.7812 40.6059 24.9726 41.8052C26.4834 43.3159 28.0643 44.2426 30.1435 44.8501C30.7198 45.0214 32.3473 45.3095 32.7289 45.3095C32.7445 45.3095 32.7601 45.7846 32.7601 46.3608C32.7601 47.3109 32.7757 47.4277 32.9158 47.5679C33.0171 47.6691 33.1728 47.7236 33.3831 47.7236C33.5933 47.7236 33.7491 47.6691 33.8503 47.5679C33.9905 47.4277 34.0061 47.3109 34.0061 46.3608C34.0061 45.7846 34.0294 45.3095 34.0684 45.3095C34.0995 45.3095 34.5045 45.255 34.9639 45.1927C37.6039 44.8423 39.8856 43.7053 41.7935 41.8052C42.985 40.6059 43.7871 39.4066 44.4412 37.8336C44.7294 37.1405 45.111 35.7232 45.181 35.069C45.2044 34.8121 45.2433 34.4694 45.2667 34.3059L45.3134 34.0177H46.3569C47.2992 34.0177 47.416 34.0022 47.5562 33.862C47.7665 33.6517 47.7665 33.1378 47.5562 32.9275C47.416 32.7873 47.2992 32.7718 46.3569 32.7718H45.3134L45.2667 32.4758C45.2433 32.3201 45.2044 31.9774 45.181 31.7204C45.111 31.0663 44.7294 29.649 44.4412 28.9559C43.7871 27.3828 42.985 26.1836 41.7935 24.9843C40.2827 23.4736 38.7019 22.5468 36.6227 21.9394C36.0464 21.7681 34.4188 21.48 34.0372 21.48C34.0216 21.48 34.0061 21.0049 34.0061 20.4287C34.0061 19.4786 33.9905 19.3618 33.8503 19.2216C33.7491 19.1204 33.5933 19.0659 33.3831 19.0659C33.1728 19.0659 33.0171 19.1204 32.9158 19.2216ZM32.7601 23.8551C32.7601 24.8052 32.7757 24.922 32.9158 25.0622C33.0171 25.1634 33.1728 25.2179 33.3831 25.2179C33.5933 25.2179 33.7491 25.1634 33.8503 25.0622C33.9905 24.922 34.0061 24.8052 34.0061 23.8551V22.8038L34.3799 22.8506C36.9419 23.1465 39.029 24.1511 40.8279 25.95C42.6268 27.7489 43.6313 29.8359 43.9273 32.398L43.974 32.7718H42.9227C41.9726 32.7718 41.8558 32.7873 41.7156 32.9275C41.6144 33.0287 41.5599 33.1845 41.5599 33.3947C41.5599 33.605 41.6144 33.7608 41.7156 33.862C41.8558 34.0022 41.9726 34.0177 42.9227 34.0177H43.974L43.9273 34.3838C43.608 37.1639 42.4087 39.4923 40.3373 41.3457C38.7408 42.7708 36.6538 43.6742 34.3799 43.9389L34.0061 43.9857V42.9344C34.0061 41.9843 33.9905 41.8675 33.8503 41.7273C33.6401 41.517 33.1261 41.517 32.9158 41.7273C32.7757 41.8675 32.7601 41.9843 32.7601 42.9344V43.9857L32.3941 43.9389C30.1124 43.6742 28.0253 42.7708 26.4289 41.3457C24.3574 39.4923 23.1582 37.1639 22.8389 34.3838L22.7922 34.0177H23.8435C24.7935 34.0177 24.9103 34.0022 25.0505 33.862C25.2608 33.6517 25.2608 33.1378 25.0505 32.9275C24.9103 32.7873 24.7935 32.7718 23.8435 32.7718H22.7922L22.8389 32.398C23.1192 29.9371 24.0771 27.8657 25.7358 26.1369C27.6359 24.1588 29.8476 23.0998 32.6666 22.8116C32.7367 22.8038 32.7601 23.0608 32.7601 23.8551Z" fill="#066235"/>
<path d="M32.3315 26.2773C32.2458 26.2929 31.9343 26.3629 31.6462 26.433C29.1386 27.0093 27.1139 29.0262 26.4053 31.6506C26.195 32.4138 26.195 34.3762 26.4053 35.1394C27.1061 37.756 29.0218 39.6717 31.6384 40.3725C32.0511 40.4894 32.4483 40.5205 33.3828 40.5205C34.3173 40.5205 34.7144 40.4894 35.1272 40.3725C36.4978 40.0065 37.5257 39.3991 38.5225 38.3867C39.4258 37.4678 40.0177 36.4165 40.3603 35.1472C40.5706 34.3762 40.5706 32.4138 40.3603 31.6506C39.6595 29.0496 37.7983 27.1728 35.2128 26.4408C34.6833 26.2929 32.7287 26.1838 32.3315 26.2773ZM34.7534 27.7102C36.9027 28.2553 38.5381 29.8984 39.0754 32.0711C39.3013 32.9589 39.2545 34.236 38.9664 35.1238C38.7795 35.7079 38.2577 36.7436 38.1487 36.7436C38.1176 36.7436 38.0085 36.619 37.9073 36.4633C37.4167 35.7546 36.451 35.1394 35.5088 34.9447L35.0259 34.8435L35.3686 34.5398C35.5944 34.3529 35.8203 34.0258 36.0072 33.652C36.2797 33.1069 36.2953 33.0134 36.2953 32.3904C36.2797 30.6928 35.0649 29.4701 33.3828 29.4701C32.1134 29.4701 31.1167 30.1554 30.626 31.3547C30.5248 31.6117 30.4781 31.9232 30.4703 32.3904C30.4703 33.0134 30.4859 33.1069 30.7584 33.652C30.9453 34.0258 31.1712 34.3529 31.397 34.5398L31.7396 34.8435L31.2568 34.9447C30.3145 35.1394 29.3489 35.7546 28.8583 36.4633C28.7571 36.619 28.648 36.7436 28.6169 36.7436C28.5079 36.7436 27.9861 35.7079 27.7992 35.1238C27.5111 34.236 27.4643 32.9589 27.6902 32.0711C28.2275 29.914 29.8473 28.2631 31.9811 27.7102C32.7832 27.5077 33.9435 27.5077 34.7534 27.7102ZM34.0681 30.9342C34.3484 31.0821 34.6911 31.4248 34.8468 31.7207C34.9948 32.0011 35.0026 32.7409 34.8624 33.0056C34.6599 33.4106 34.2083 33.7922 33.7955 33.909C33.4217 34.018 33.3439 34.018 32.9701 33.909C32.5729 33.7922 32.0979 33.4106 31.9188 33.0446C31.5138 32.2191 32.0278 31.1211 32.9623 30.8251C33.2426 30.7317 33.7877 30.7862 34.0681 30.9342ZM35.867 36.4555C36.342 36.7125 36.8949 37.2498 37.0429 37.608C37.1441 37.8416 37.1363 37.865 36.8794 38.0753C36.7314 38.1999 36.3342 38.4413 35.9916 38.6126C34.3017 39.4536 32.4639 39.4536 30.774 38.6126C30.4314 38.4413 30.0342 38.1999 29.8862 38.0753C29.6293 37.865 29.6215 37.8416 29.7227 37.608C29.933 37.1018 30.6883 36.4788 31.3581 36.2686C31.4671 36.2374 32.4327 36.2141 33.4996 36.2218L35.4465 36.2374L35.867 36.4555Z" fill="#066235"/>
</svg>
