<svg width="25" height="24" viewBox="0 0 25 24" fill="none" xmlns="http://www.w3.org/2000/svg">
<path d="M10.7038 0.0337353C8.48962 0.301121 6.29893 1.22525 4.53512 2.63723C4.0238 3.05004 3.14658 3.92726 2.73378 4.43857C1.32648 6.19769 0.491485 8.17729 0.191261 10.443C0.0880594 11.2499 0.120896 13.0559 0.256935 13.7736C0.500867 15.0496 0.862073 16.1473 1.37339 17.1558C1.46252 17.3341 1.53288 17.5124 1.53288 17.5546C1.53288 17.6249 0.200643 23.742 0.144351 23.9156C0.125587 23.9719 0.144351 24 0.195952 24C0.242862 24 1.72052 23.6716 3.48434 23.2682L6.69766 22.5411L7.29342 22.7944C8.38642 23.2635 9.50288 23.5731 10.6803 23.7279C11.3511 23.8171 13.068 23.803 13.7529 23.6998C16.4596 23.3057 18.7488 22.1658 20.6487 20.2707C22.4969 18.4224 23.6509 16.1238 24.0356 13.5156C24.1481 12.7322 24.1481 11.0107 24.0356 10.2554C23.8245 8.87625 23.4633 7.7551 22.8487 6.54483C22.2483 5.36739 21.554 4.41981 20.5595 3.43001C18.8051 1.68496 16.666 0.57789 14.1986 0.136936C13.6028 0.0337353 13.3636 0.0149708 12.2987 0.000898361C11.6279 -0.00379181 10.9102 0.0102806 10.7038 0.0337353ZM13.4949 1.9805C18.0405 2.57625 21.7088 6.37126 22.1732 10.9544C22.6001 15.195 20.1092 19.3559 16.1172 21.0587C13.3589 22.2362 10.2581 22.1471 7.60302 20.8054L6.9885 20.4958L4.84472 20.9837C3.66259 21.2558 2.69156 21.4669 2.68218 21.4575C2.67279 21.4481 2.8792 20.4864 3.13251 19.3231L3.60161 17.1981L3.32015 16.6961C2.59305 15.3967 2.13802 13.8862 2.05358 12.4977C1.85187 9.11549 3.35299 5.92093 6.1066 3.87566C8.22693 2.29948 10.8257 1.63336 13.4949 1.9805Z" fill="#151515"/>
<path d="M8.12381 6.63859C7.72508 6.74179 7.28882 7.17805 6.97452 7.77381C6.73059 8.23822 6.63677 8.66041 6.63208 9.24678C6.63208 10.1568 6.97921 11.0294 7.81421 12.2162C8.46626 13.1403 8.77586 13.5156 9.4326 14.1723C10.5913 15.331 11.5248 15.9221 13.0353 16.4662C14.2409 16.8978 15.0243 17.0338 15.7232 16.9259C16.3659 16.8227 17.2337 16.288 17.5058 15.8189C17.7685 15.3732 17.9045 14.3881 17.731 14.2286C17.6184 14.1301 15.5966 13.1356 15.3104 13.0418C15.1884 12.9996 15.0336 12.9808 14.9727 12.9949C14.9023 13.0136 14.6912 13.2341 14.4191 13.5766C13.8187 14.3271 13.7155 14.4303 13.5654 14.4303C13.3824 14.4303 12.4208 13.9565 11.8907 13.6047C11.1214 13.0934 10.3473 12.2959 9.78912 11.4515C9.38569 10.8323 9.38569 10.8464 9.85948 10.3492C10.1785 10.0114 10.3989 9.63144 10.3989 9.41097C10.3989 9.27024 9.5358 7.11707 9.39507 6.8966C9.25434 6.6855 9.09954 6.62452 8.66797 6.61045C8.44749 6.60575 8.20356 6.61514 8.12381 6.63859Z" fill="#151515"/>
</svg>
